{"glyphs":{"0":{"ha":675,"x_min":0,"x_max":0,"o":"m 336 -15 b 624 289 511 -15 624 79 l 624 706 b 338 1010 624 908 510 1010 b 50 706 163 1010 50 910 l 50 289 b 336 -15 50 79 160 -15 z m 338 149 b 235 299 264 149 235 197 l 235 699 b 336 851 235 799 264 851 b 439 699 410 851 439 801 l 439 299 b 338 149 439 196 410 149 z "},"1":{"ha":499,"x_min":0,"x_max":0,"o":"m 33 172 l 33 0 l 467 0 l 467 172 l 342 172 l 342 996 l 201 996 b 58 847 181 904 139 860 l 58 714 l 164 714 l 164 172 z "},"2":{"ha":639,"x_min":0,"x_max":0,"o":"m 44 0 l 596 0 l 596 172 l 249 172 l 249 179 b 404 385 250 269 325 324 b 597 694 496 456 597 535 l 597 765 b 325 1010 597 924 507 1010 b 49 765 143 1010 49 922 l 49 619 l 232 619 l 232 758 b 325 851 232 817 258 851 b 415 758 390 851 415 821 l 415 694 b 254 490 415 606 338 553 b 44 154 154 417 44 326 z "},"3":{"ha":649,"x_min":0,"x_max":0,"o":"m 315 -15 b 606 229 517 -15 606 86 l 606 338 b 492 515 606 432 565 489 b 592 688 564 543 592 603 l 592 785 b 318 1010 592 924 500 1010 b 46 772 144 1010 46 919 l 46 658 l 226 658 l 226 760 b 318 847 226 817 253 847 b 410 760 386 847 410 818 l 410 675 b 314 583 410 615 381 583 l 244 583 l 244 440 l 314 440 b 417 351 385 440 417 414 l 417 253 b 317 154 417 188 390 154 b 221 246 247 154 221 183 l 221 364 l 38 364 l 38 231 b 315 -15 38 72 121 -15 z "},"4":{"ha":663,"x_min":0,"x_max":0,"o":"m 365 0 l 533 0 l 533 197 l 638 197 l 638 354 l 533 354 l 533 996 l 376 996 l 29 331 l 29 197 l 365 197 z m 347 631 l 378 732 l 365 628 l 365 354 l 206 354 z "},"5":{"ha":639,"x_min":0,"x_max":0,"o":"m 322 -15 b 597 246 510 -15 597 81 l 597 451 b 401 690 597 597 540 692 b 222 586 301 690 254 646 l 249 832 l 404 832 b 581 986 551 832 581 847 l 581 996 l 101 996 l 46 492 l 217 446 l 225 472 b 324 539 244 510 275 539 b 414 442 382 539 414 506 l 414 264 b 322 150 414 190 392 150 b 229 256 253 150 229 182 l 229 351 l 40 351 l 40 240 b 322 -15 40 68 129 -15 z "},"6":{"ha":664,"x_min":0,"x_max":0,"o":"m 336 -15 b 624 264 517 -15 624 74 l 624 369 b 411 606 624 531 544 606 b 233 500 318 606 263 558 l 233 699 b 340 851 233 800 265 851 b 431 747 404 851 431 815 l 431 681 l 615 681 l 615 750 b 343 1010 614 918 525 1010 b 50 703 150 1010 50 908 l 50 290 b 336 -15 50 82 150 -15 z m 233 297 l 233 394 b 338 463 250 435 286 463 b 439 356 413 463 439 418 l 439 274 b 336 151 439 196 407 151 b 233 297 263 151 233 197 z "},"7":{"ha":578,"x_min":0,"x_max":0,"o":"m 88 0 l 296 0 b 554 846 344 343 422 579 l 554 996 l 26 996 l 26 819 l 360 819 b 88 0 246 597 147 347 z "},"8":{"ha":649,"x_min":0,"x_max":0,"o":"m 608 215 l 608 344 b 500 521 608 432 568 492 b 597 689 564 549 597 607 l 597 783 b 325 1010 597 918 500 1010 b 56 783 150 1010 56 915 l 56 688 b 150 519 56 603 88 547 b 40 344 82 489 40 425 l 40 215 b 324 -15 40 74 136 -15 b 608 215 510 -15 608 78 z m 326 851 b 419 763 392 851 419 818 l 419 679 b 331 592 419 631 393 592 l 319 592 b 233 678 257 592 233 632 l 233 761 b 326 851 233 818 263 851 z m 325 151 b 225 240 260 151 225 186 l 225 357 b 318 447 225 403 257 447 l 329 447 b 425 358 392 447 425 407 l 425 242 b 325 151 425 185 389 151 z "},"9":{"ha":663,"x_min":0,"x_max":0,"o":"m 325 -15 b 611 286 514 -15 611 85 l 611 700 b 325 1010 611 915 514 1010 b 42 736 143 1010 42 913 l 42 635 b 261 401 42 476 119 401 b 432 507 354 401 406 447 l 432 286 b 332 146 432 190 406 146 b 235 250 263 146 235 182 l 235 339 l 46 339 l 46 240 b 325 -15 49 76 136 -15 z m 226 640 l 226 732 b 328 849 226 807 258 849 b 432 708 403 849 432 803 l 432 615 b 328 542 417 571 381 542 b 226 640 258 542 226 578 z "},"\u0000":{"ha":0,"x_min":0,"x_max":0,"o":""},"\r":{"ha":285,"x_min":0,"x_max":0,"o":""}," ":{"ha":283,"x_min":0,"x_max":0,"o":""},"A":{"ha":646,"x_min":0,"x_max":0,"o":"m 10 0 l 189 0 l 217 147 l 428 147 l 457 0 l 636 0 l 410 996 l 231 996 z m 310 636 l 319 771 l 332 636 l 397 304 l 246 304 z "},"B":{"ha":649,"x_min":0,"x_max":0,"o":"m 64 0 l 367 0 b 610 235 551 0 610 82 l 610 336 b 483 513 610 433 572 488 b 596 689 564 538 596 592 l 596 778 b 331 996 596 921 526 996 l 64 996 z m 324 850 b 421 765 390 850 421 824 l 421 686 b 322 585 421 611 396 585 l 238 585 l 238 850 z m 322 435 b 426 338 399 435 426 407 l 426 251 b 329 156 426 179 403 156 l 238 156 l 238 435 z "},"C":{"ha":660,"x_min":0,"x_max":0,"o":"m 331 -14 b 617 282 513 -14 615 72 l 617 422 l 426 422 l 426 294 b 333 153 425 199 404 153 b 238 301 260 153 238 199 l 238 699 b 332 849 238 800 260 849 b 426 707 408 849 426 810 l 426 599 l 617 599 l 617 721 b 333 1010 617 921 522 1010 b 50 708 158 1010 50 914 l 50 288 b 331 -14 50 78 147 -14 z "},"D":{"ha":671,"x_min":0,"x_max":0,"o":"m 64 996 l 64 0 l 319 0 b 619 296 492 0 619 86 l 619 700 b 321 996 619 911 493 996 z m 311 840 b 433 688 385 840 433 796 l 433 311 b 313 158 433 203 388 158 l 243 158 l 243 840 z "},"E":{"ha":572,"x_min":0,"x_max":0,"o":"m 64 0 l 538 0 l 538 168 l 242 168 l 242 422 l 493 422 l 493 586 l 242 586 l 242 832 l 526 832 l 526 996 l 64 996 z "},"F":{"ha":539,"x_min":0,"x_max":0,"o":"m 64 0 l 239 0 l 239 397 l 486 397 l 486 565 l 239 565 l 239 829 l 507 829 l 507 996 l 64 996 z "},"G":{"ha":685,"x_min":0,"x_max":0,"o":"m 275 -14 b 469 157 385 -14 449 44 l 492 0 l 625 0 l 625 536 l 329 536 l 329 382 l 444 382 l 444 294 b 342 151 444 206 414 151 b 236 303 268 151 236 197 l 236 697 b 343 850 236 801 269 850 b 439 736 411 850 439 811 l 439 633 l 625 633 l 625 746 b 346 1010 625 919 526 1010 b 50 708 165 1010 50 914 l 50 286 b 275 -14 50 81 125 -14 z "},"H":{"ha":676,"x_min":0,"x_max":0,"o":"m 64 996 l 64 0 l 243 0 l 243 414 l 435 414 l 435 0 l 614 0 l 614 996 l 435 996 l 435 583 l 243 583 l 243 996 z "},"I":{"ha":482,"x_min":0,"x_max":0,"o":"m 39 169 l 39 0 l 442 0 l 442 169 l 329 169 l 329 829 l 442 829 l 442 996 l 39 996 l 39 829 l 154 829 l 154 169 z "},"J":{"ha":614,"x_min":0,"x_max":0,"o":"m 293 -14 b 551 268 467 -14 551 69 l 551 996 l 368 996 l 368 272 b 293 153 368 182 349 153 b 219 250 238 153 219 188 l 219 394 l 33 394 l 33 250 b 293 -14 33 61 122 -14 z "},"K":{"ha":676,"x_min":0,"x_max":0,"o":"m 315 453 l 463 0 l 660 0 l 447 607 l 439 629 l 644 996 l 443 996 l 244 619 l 236 593 l 239 644 l 239 996 l 64 996 l 64 0 l 239 0 l 239 385 l 304 504 z "},"L":{"ha":549,"x_min":0,"x_max":0,"o":"m 64 996 l 64 0 l 514 0 l 514 179 l 247 179 l 247 996 z "},"M":{"ha":788,"x_min":0,"x_max":0,"o":"m 64 0 l 231 0 l 231 553 l 207 725 l 235 629 l 375 299 l 417 299 l 551 628 l 583 732 l 557 560 l 557 0 l 725 0 l 725 996 l 568 996 l 393 564 l 219 996 l 64 996 z "},"N":{"ha":704,"x_min":0,"x_max":0,"o":"m 64 0 l 226 0 l 226 536 l 215 682 l 250 565 l 485 0 l 640 0 l 640 996 l 478 996 l 478 457 l 488 319 l 453 435 l 221 996 l 64 996 z "},"O":{"ha":678,"x_min":0,"x_max":0,"o":"m 339 -14 b 625 288 513 -14 625 79 l 625 706 b 339 1008 625 908 511 1008 b 50 706 164 1008 50 908 l 50 288 b 339 -14 50 78 161 -14 z m 339 151 b 238 301 265 151 238 199 l 238 697 b 339 849 238 799 265 849 b 440 697 411 849 440 799 l 440 301 b 339 151 440 199 411 151 z "},"P":{"ha":638,"x_min":0,"x_max":0,"o":"m 64 0 l 239 0 l 239 313 l 328 313 b 603 575 522 313 603 411 l 603 744 b 326 996 603 919 519 996 l 64 996 z m 319 843 b 424 738 392 843 424 814 l 424 579 b 319 469 424 506 390 469 l 239 469 l 239 843 z "},"Q":{"ha":676,"x_min":0,"x_max":0,"o":"m 338 -14 l 364 -14 l 418 -125 l 622 -125 l 525 40 b 624 288 588 89 624 169 l 624 706 b 338 1008 624 908 511 1008 b 50 706 161 1008 50 908 l 50 288 b 338 -14 50 78 160 -14 z m 338 151 b 236 301 263 151 236 199 l 236 697 b 338 849 236 799 264 849 b 439 697 410 849 439 799 l 439 301 b 338 151 439 199 410 151 z "},"R":{"ha":644,"x_min":0,"x_max":0,"o":"m 64 0 l 238 0 l 238 381 l 313 381 b 407 282 386 381 407 350 l 407 67 b 425 0 407 33 413 10 l 611 0 b 586 65 596 15 586 33 l 586 289 b 490 464 586 388 563 439 b 597 638 560 490 597 543 l 597 758 b 332 996 597 922 518 996 l 64 996 z m 319 842 b 419 749 393 842 419 814 l 419 638 b 322 539 419 569 393 539 l 238 539 l 238 842 z "},"S":{"ha":613,"x_min":0,"x_max":0,"o":"m 308 -14 b 578 238 486 -14 578 79 l 578 313 b 376 581 578 469 471 531 b 221 733 294 622 221 657 l 221 761 b 304 860 221 821 243 860 b 389 765 365 860 389 829 l 389 668 l 565 668 l 565 776 b 304 1010 565 921 482 1010 b 40 763 128 1010 40 915 l 40 721 b 240 457 40 567 144 507 b 399 293 322 414 399 375 l 399 242 b 311 146 399 186 376 146 b 217 247 239 146 217 185 l 217 378 l 31 378 l 31 244 b 308 -14 31 75 103 -14 z "},"T":{"ha":563,"x_min":0,"x_max":0,"o":"m 192 0 l 371 0 l 371 832 l 533 832 l 533 996 l 26 996 l 26 832 l 192 832 z "},"U":{"ha":660,"x_min":0,"x_max":0,"o":"m 331 -14 b 601 283 504 -14 601 76 l 601 996 l 421 996 l 421 294 b 331 158 421 196 396 158 b 239 294 265 158 239 197 l 239 996 l 58 996 l 58 283 b 331 -14 58 76 149 -14 z "},"V":{"ha":646,"x_min":0,"x_max":0,"o":"m 235 0 l 415 0 l 631 996 l 450 996 l 335 401 l 325 256 l 315 401 l 197 996 l 14 996 z "},"W":{"ha":936,"x_min":0,"x_max":0,"o":"m 176 0 l 340 0 l 453 554 l 464 703 l 474 554 l 579 0 l 743 0 l 917 996 l 747 996 l 661 442 l 649 247 l 632 431 l 525 996 l 407 996 l 293 431 l 274 258 l 268 442 l 192 996 l 19 996 z "},"X":{"ha":642,"x_min":0,"x_max":0,"o":"m 4 0 l 201 0 l 315 318 l 321 364 l 329 319 l 446 0 l 636 0 l 419 524 l 617 996 l 431 996 l 328 713 l 321 668 l 315 713 l 214 996 l 25 996 l 219 524 z "},"Y":{"ha":599,"x_min":0,"x_max":0,"o":"m 204 0 l 389 0 l 389 357 l 599 996 l 414 996 l 308 635 l 297 553 l 288 635 l 188 996 l 1 996 l 204 357 z "},"Z":{"ha":590,"x_min":0,"x_max":0,"o":"m 42 0 l 550 0 l 550 174 l 244 174 l 546 840 l 546 996 l 60 996 l 60 825 l 350 825 l 42 150 z "},"Á":{"ha":646,"x_min":0,"x_max":0,"o":"m 10 0 l 189 0 l 217 147 l 428 147 l 457 0 l 636 0 l 410 996 l 231 996 z m 310 636 l 319 771 l 332 636 l 397 304 l 246 304 z m 250 1065 l 379 1065 l 550 1281 l 375 1281 z "},"Ă":{"ha":646,"x_min":0,"x_max":0,"o":"m 10 0 l 189 0 l 217 147 l 428 147 l 457 0 l 636 0 l 410 996 l 231 996 z m 310 636 l 319 771 l 332 636 l 397 304 l 246 304 z m 318 1064 b 513 1278 453 1064 513 1133 l 393 1278 b 318 1176 393 1203 372 1178 b 244 1278 263 1178 244 1204 l 125 1278 b 318 1064 125 1133 174 1064 z "},"Ắ":{"ha":646,"x_min":0,"x_max":0,"o":"m 10 0 l 189 0 l 217 147 l 428 147 l 457 0 l 636 0 l 410 996 l 231 996 z m 310 636 l 319 771 l 332 636 l 397 304 l 246 304 z m 253 1233 l 364 1233 l 453 1411 l 311 1411 z m 318 1046 b 518 1229 463 1046 518 1115 l 399 1229 b 318 1160 399 1189 378 1160 b 238 1229 257 1160 238 1188 l 118 1229 b 318 1046 118 1114 174 1046 z "},"Ặ":{"ha":646,"x_min":0,"x_max":0,"o":"m 10 0 l 189 0 l 217 147 l 428 147 l 457 0 l 636 0 l 410 996 l 231 996 z m 310 636 l 319 771 l 332 636 l 397 304 l 246 304 z m 318 1064 b 513 1278 453 1064 513 1133 l 393 1278 b 318 1176 393 1203 372 1178 b 244 1278 263 1178 244 1204 l 125 1278 b 318 1064 125 1133 174 1064 z m 321 -272 b 418 -169 390 -272 418 -250 b 321 -67 418 -89 388 -67 b 224 -169 251 -67 224 -89 b 321 -272 224 -253 246 -272 z "},"Ằ":{"ha":646,"x_min":0,"x_max":0,"o":"m 10 0 l 189 0 l 217 147 l 428 147 l 457 0 l 636 0 l 410 996 l 231 996 z m 310 636 l 319 771 l 332 636 l 397 304 l 246 304 z m 383 1233 l 324 1411 l 181 1411 l 271 1233 z m 318 1046 b 518 1229 463 1046 518 1115 l 399 1229 b 318 1160 399 1189 376 1160 b 238 1229 257 1160 238 1188 l 118 1229 b 318 1046 118 1114 172 1046 z "},"Ẳ":{"ha":646,"x_min":0,"x_max":0,"o":"m 10 0 l 189 0 l 217 147 l 428 147 l 457 0 l 636 0 l 410 996 l 231 996 z m 310 636 l 319 771 l 332 636 l 397 304 l 246 304 z m 397 1268 b 465 1358 447 1292 465 1317 b 315 1463 465 1425 411 1463 b 156 1333 211 1463 156 1419 l 268 1333 b 314 1374 268 1358 281 1374 b 350 1351 339 1374 350 1367 b 311 1319 350 1339 339 1332 b 256 1232 269 1300 256 1282 l 364 1232 b 397 1268 364 1251 368 1254 z m 317 1043 b 517 1226 461 1043 517 1113 l 397 1226 b 317 1157 397 1186 375 1157 b 236 1226 256 1157 236 1185 l 117 1226 b 317 1043 117 1111 172 1043 z "},"Ẵ":{"ha":646,"x_min":0,"x_max":0,"o":"m 10 0 l 189 0 l 217 147 l 428 147 l 457 0 l 636 0 l 410 996 l 231 996 z m 310 636 l 319 771 l 332 636 l 397 304 l 246 304 z m 117 1258 l 226 1258 b 258 1304 226 1289 236 1304 b 401 1254 299 1304 324 1254 b 517 1415 479 1254 517 1304 l 407 1415 b 375 1371 407 1385 396 1371 b 232 1419 335 1371 308 1419 b 117 1258 153 1419 117 1369 z m 317 1046 b 517 1229 461 1046 517 1115 l 397 1229 b 317 1160 397 1189 376 1160 b 236 1229 256 1160 236 1188 l 117 1229 b 317 1046 117 1114 172 1046 z "},"Ǎ":{"ha":646,"x_min":0,"x_max":0,"o":"m 10 0 l 189 0 l 217 147 l 428 147 l 457 0 l 636 0 l 410 996 l 231 996 z m 310 636 l 319 771 l 332 636 l 397 304 l 246 304 z m 257 1065 l 372 1065 l 506 1294 l 378 1294 l 315 1179 l 256 1294 l 124 1294 z "},"Â":{"ha":646,"x_min":0,"x_max":0,"o":"m 10 0 l 189 0 l 217 147 l 428 147 l 457 0 l 636 0 l 410 996 l 231 996 z m 310 636 l 319 771 l 332 636 l 397 304 l 246 304 z m 128 1065 l 257 1065 l 318 1181 l 379 1065 l 513 1065 l 376 1294 l 261 1294 z "},"Ấ":{"ha":646,"x_min":0,"x_max":0,"o":"m 10 0 l 189 0 l 217 147 l 428 147 l 457 0 l 636 0 l 410 996 l 231 996 z m 310 636 l 319 771 l 332 636 l 397 304 l 246 304 z m 449 1176 l 560 1176 l 649 1354 l 507 1354 z m 111 1040 l 247 1040 l 317 1132 l 381 1040 l 515 1040 l 376 1229 l 257 1229 z "},"Ậ":{"ha":646,"x_min":0,"x_max":0,"o":"m 10 0 l 189 0 l 217 147 l 428 147 l 457 0 l 636 0 l 410 996 l 231 996 z m 310 636 l 319 771 l 332 636 l 397 304 l 246 304 z m 128 1065 l 257 1065 l 318 1181 l 379 1065 l 513 1065 l 376 1294 l 261 1294 z m 321 -272 b 418 -169 390 -272 418 -250 b 321 -67 418 -89 388 -67 b 224 -169 251 -67 224 -89 b 321 -272 224 -253 246 -272 z "},"Ầ":{"ha":646,"x_min":0,"x_max":0,"o":"m 10 0 l 189 0 l 217 147 l 428 147 l 457 0 l 636 0 l 410 996 l 231 996 z m 310 636 l 319 771 l 332 636 l 397 304 l 246 304 z m 575 1176 l 517 1354 l 374 1354 l 463 1176 z m 114 1040 l 250 1040 l 319 1132 l 383 1040 l 518 1040 l 379 1229 l 260 1229 z "},"Ẩ":{"ha":646,"x_min":0,"x_max":0,"o":"m 10 0 l 189 0 l 217 147 l 428 147 l 457 0 l 636 0 l 410 996 l 231 996 z m 310 636 l 319 771 l 332 636 l 397 304 l 246 304 z m 592 1213 b 658 1303 642 1235 658 1261 b 508 1408 658 1369 606 1408 b 349 1278 406 1408 349 1365 l 461 1278 b 507 1319 461 1304 474 1319 b 544 1299 532 1319 544 1313 b 504 1264 544 1285 532 1279 b 447 1176 464 1246 449 1228 l 557 1176 b 592 1213 557 1196 563 1199 z m 117 1040 l 251 1040 l 319 1132 l 385 1040 l 519 1040 l 379 1229 l 261 1229 z "},"Ẫ":{"ha":646,"x_min":0,"x_max":0,"o":"m 10 0 l 189 0 l 217 147 l 428 147 l 457 0 l 636 0 l 410 996 l 231 996 z m 310 636 l 319 771 l 332 636 l 397 304 l 246 304 z m 119 1257 l 228 1257 b 260 1304 228 1289 238 1304 b 401 1254 299 1304 324 1254 b 517 1413 479 1253 517 1304 l 406 1413 b 374 1368 406 1382 394 1368 b 235 1417 335 1368 308 1417 b 119 1257 154 1417 119 1367 z m 115 1042 l 250 1042 l 319 1133 l 383 1042 l 518 1042 l 379 1231 l 260 1231 z "},"Ä":{"ha":646,"x_min":0,"x_max":0,"o":"m 10 0 l 189 0 l 217 147 l 428 147 l 457 0 l 636 0 l 410 996 l 231 996 z m 310 636 l 319 771 l 332 636 l 397 304 l 246 304 z m 214 1063 b 296 1151 274 1063 296 1086 b 214 1242 296 1219 274 1242 b 133 1151 157 1242 133 1219 b 214 1063 133 1081 153 1063 z m 422 1063 b 504 1151 481 1063 504 1086 b 422 1242 504 1219 481 1242 b 342 1151 363 1242 342 1219 b 422 1063 342 1081 360 1063 z "},"Ạ":{"ha":646,"x_min":0,"x_max":0,"o":"m 10 0 l 189 0 l 217 147 l 428 147 l 457 0 l 636 0 l 410 996 l 231 996 z m 310 636 l 319 771 l 332 636 l 397 304 l 246 304 z m 321 -272 b 418 -169 390 -272 418 -250 b 321 -67 418 -89 388 -67 b 224 -169 251 -67 224 -89 b 321 -272 224 -253 246 -272 z "},"À":{"ha":646,"x_min":0,"x_max":0,"o":"m 10 0 l 189 0 l 217 147 l 428 147 l 457 0 l 636 0 l 410 996 l 231 996 z m 310 636 l 319 771 l 332 636 l 397 304 l 246 304 z m 260 1065 l 381 1065 l 275 1281 l 101 1281 z "},"Ả":{"ha":646,"x_min":0,"x_max":0,"o":"m 10 0 l 189 0 l 217 147 l 428 147 l 457 0 l 636 0 l 410 996 l 231 996 z m 310 636 l 319 771 l 332 636 l 397 304 l 246 304 z m 411 1110 b 486 1211 467 1136 486 1164 b 324 1325 486 1285 428 1325 b 156 1182 211 1325 156 1279 l 274 1182 b 322 1226 274 1213 286 1226 b 361 1206 349 1226 361 1217 b 321 1171 361 1190 350 1185 b 261 1061 278 1150 261 1128 l 375 1061 b 411 1110 375 1088 382 1094 z "},"Ā":{"ha":646,"x_min":0,"x_max":0,"o":"m 10 0 l 189 0 l 217 147 l 428 147 l 457 0 l 636 0 l 410 996 l 231 996 z m 310 636 l 319 771 l 332 636 l 397 304 l 246 304 z m 163 1075 l 469 1075 l 469 1201 l 163 1201 z "},"Ą":{"ha":646,"x_min":0,"x_max":0,"o":"m 10 0 l 189 0 l 217 147 l 428 147 l 457 3 b 371 -144 389 -49 371 -96 b 539 -279 371 -233 431 -279 b 739 -119 649 -279 714 -229 l 596 -119 b 546 -169 592 -153 572 -169 b 504 -133 519 -169 504 -158 b 636 0 504 -104 522 -81 l 410 996 l 231 996 z m 310 636 l 319 771 l 332 636 l 397 304 l 246 304 z "},"Å":{"ha":646,"x_min":0,"x_max":0,"o":"m 10 0 l 189 0 l 217 147 l 428 147 l 457 0 l 636 0 l 410 996 l 231 996 z m 310 636 l 319 771 l 332 636 l 397 304 l 246 304 z m 317 1053 b 475 1200 414 1053 475 1107 b 317 1349 475 1294 413 1349 b 158 1199 225 1349 158 1294 b 317 1053 158 1103 221 1053 z m 317 1156 b 271 1200 286 1156 271 1174 b 317 1247 271 1228 288 1247 b 363 1200 347 1247 363 1228 b 317 1156 363 1172 343 1156 z "},"Ǻ":{"ha":646,"x_min":0,"x_max":0,"o":"m 10 0 l 189 0 l 217 147 l 428 147 l 457 0 l 636 0 l 410 996 l 231 996 z m 310 636 l 319 771 l 332 636 l 397 304 l 246 304 z m 317 1040 b 474 1175 414 1040 474 1092 b 382 1300 474 1236 439 1281 l 446 1426 l 304 1426 l 263 1303 b 161 1174 199 1288 161 1240 b 317 1040 161 1092 219 1040 z m 318 1138 b 272 1175 286 1138 272 1153 b 317 1214 272 1197 286 1214 b 364 1176 349 1214 364 1200 b 318 1138 364 1153 349 1138 z "},"Ã":{"ha":646,"x_min":0,"x_max":0,"o":"m 10 0 l 189 0 l 217 147 l 428 147 l 457 0 l 636 0 l 410 996 l 231 996 z m 310 636 l 319 771 l 332 636 l 397 304 l 246 304 z m 104 1069 l 214 1069 b 244 1124 214 1107 224 1124 b 406 1064 290 1124 325 1064 b 529 1247 490 1064 528 1114 l 418 1247 b 388 1194 418 1208 410 1194 b 226 1254 346 1194 308 1254 b 104 1069 142 1254 106 1201 z "},"Æ":{"ha":915,"x_min":0,"x_max":0,"o":"m -1 0 l 178 0 l 222 150 l 440 150 l 460 0 l 875 0 l 875 167 l 601 167 l 569 425 l 840 425 l 840 586 l 550 586 l 518 836 l 867 836 l 867 996 l 311 996 z m 376 664 l 376 661 l 422 300 l 267 300 z "},"Ǽ":{"ha":915,"x_min":0,"x_max":0,"o":"m -1 0 l 178 0 l 222 150 l 440 150 l 460 0 l 875 0 l 875 167 l 601 167 l 569 425 l 840 425 l 840 586 l 550 586 l 518 836 l 867 836 l 867 996 l 311 996 z m 376 664 l 376 661 l 422 300 l 267 300 z m 415 1064 l 544 1064 l 715 1279 l 540 1279 z "},"Ć":{"ha":660,"x_min":0,"x_max":0,"o":"m 331 -14 b 617 282 513 -14 615 72 l 617 422 l 426 422 l 426 294 b 333 153 425 199 404 153 b 238 301 260 153 238 199 l 238 699 b 332 849 238 800 260 849 b 426 707 408 849 426 810 l 426 599 l 617 599 l 617 721 b 333 1010 617 921 522 1010 b 50 708 158 1010 50 914 l 50 288 b 331 -14 50 78 147 -14 z m 269 1079 l 399 1079 l 569 1294 l 394 1294 z "},"Č":{"ha":660,"x_min":0,"x_max":0,"o":"m 331 -14 b 617 282 513 -14 615 72 l 617 422 l 426 422 l 426 294 b 333 153 425 199 404 153 b 238 301 260 153 238 199 l 238 699 b 332 849 238 800 260 849 b 426 707 408 849 426 810 l 426 599 l 617 599 l 617 721 b 333 1010 617 921 522 1010 b 50 708 158 1010 50 914 l 50 288 b 331 -14 50 78 147 -14 z m 276 1079 l 392 1079 l 525 1308 l 397 1308 l 335 1193 l 275 1308 l 143 1308 z "},"Ç":{"ha":660,"x_min":0,"x_max":0,"o":"m 339 -336 b 528 -190 457 -336 528 -285 b 390 -68 528 -111 478 -74 l 390 -10 b 617 282 535 7 615 96 l 617 422 l 426 422 l 426 294 b 333 153 425 199 404 153 b 238 301 260 153 238 199 l 238 699 b 332 849 238 800 260 849 b 426 707 408 849 426 810 l 426 599 l 617 599 l 617 721 b 333 1010 617 921 522 1010 b 50 708 158 1010 50 914 l 50 288 b 275 -11 50 100 128 7 l 275 -151 l 340 -151 b 401 -190 382 -151 401 -165 b 342 -233 401 -218 382 -233 b 275 -186 303 -233 281 -219 l 135 -186 b 339 -336 153 -287 213 -336 z "},"Ĉ":{"ha":660,"x_min":0,"x_max":0,"o":"m 331 -14 b 617 282 513 -14 615 72 l 617 422 l 426 422 l 426 294 b 333 153 425 199 404 153 b 238 301 260 153 238 199 l 238 699 b 332 849 238 800 260 849 b 426 707 408 849 426 810 l 426 599 l 617 599 l 617 721 b 333 1010 617 921 522 1010 b 50 708 158 1010 50 914 l 50 288 b 331 -14 50 78 147 -14 z m 146 1081 l 275 1081 l 336 1196 l 397 1081 l 531 1081 l 394 1310 l 279 1310 z "},"Ċ":{"ha":660,"x_min":0,"x_max":0,"o":"m 331 -14 b 617 282 513 -14 615 72 l 617 422 l 426 422 l 426 294 b 333 153 425 199 404 153 b 238 301 260 153 238 199 l 238 699 b 332 849 238 800 260 849 b 426 707 408 849 426 810 l 426 599 l 617 599 l 617 721 b 333 1010 617 921 522 1010 b 50 708 158 1010 50 914 l 50 288 b 331 -14 50 78 147 -14 z m 335 1078 b 432 1179 404 1078 432 1100 b 335 1282 432 1261 403 1282 b 238 1179 265 1282 238 1261 b 335 1078 238 1097 260 1078 z "},"Ď":{"ha":671,"x_min":0,"x_max":0,"o":"m 64 996 l 64 0 l 319 0 b 619 296 492 0 619 86 l 619 700 b 321 996 619 911 493 996 z m 311 840 b 433 688 385 840 433 796 l 433 311 b 313 158 433 203 388 158 l 243 158 l 243 840 z m 271 1065 l 386 1065 l 519 1294 l 392 1294 l 329 1179 l 269 1294 l 138 1294 z "},"Đ":{"ha":682,"x_min":0,"x_max":0,"o":"m 8 581 l 8 419 l 78 419 l 78 0 l 333 0 b 632 296 507 0 632 86 l 632 700 b 335 996 632 911 507 996 l 78 996 l 78 581 z m 346 419 l 346 581 l 256 581 l 256 840 l 322 840 b 447 688 397 840 447 796 l 447 311 b 325 158 447 203 400 158 l 256 158 l 256 419 z "},"É":{"ha":572,"x_min":0,"x_max":0,"o":"m 64 0 l 538 0 l 538 168 l 242 168 l 242 422 l 493 422 l 493 586 l 242 586 l 242 832 l 526 832 l 526 996 l 64 996 z m 226 1065 l 356 1065 l 526 1281 l 351 1281 z "},"Ĕ":{"ha":572,"x_min":0,"x_max":0,"o":"m 64 0 l 538 0 l 538 168 l 242 168 l 242 422 l 493 422 l 493 586 l 242 586 l 242 832 l 526 832 l 526 996 l 64 996 z m 292 1064 b 486 1278 426 1064 486 1133 l 367 1278 b 292 1176 367 1203 346 1178 b 218 1278 236 1178 218 1204 l 99 1278 b 292 1064 99 1133 147 1064 z "},"Ě":{"ha":572,"x_min":0,"x_max":0,"o":"m 64 0 l 538 0 l 538 168 l 242 168 l 242 422 l 493 422 l 493 586 l 242 586 l 242 832 l 526 832 l 526 996 l 64 996 z m 235 1065 l 350 1065 l 483 1294 l 356 1294 l 293 1179 l 233 1294 l 101 1294 z "},"Ê":{"ha":572,"x_min":0,"x_max":0,"o":"m 64 0 l 538 0 l 538 168 l 242 168 l 242 422 l 493 422 l 493 586 l 242 586 l 242 832 l 526 832 l 526 996 l 64 996 z m 104 1065 l 233 1065 l 294 1181 l 356 1065 l 489 1065 l 353 1294 l 238 1294 z "},"Ế":{"ha":572,"x_min":0,"x_max":0,"o":"m 64 0 l 538 0 l 538 168 l 242 168 l 242 422 l 493 422 l 493 586 l 242 586 l 242 832 l 526 832 l 526 996 l 64 996 z m 428 1176 l 539 1176 l 628 1354 l 486 1354 z m 90 1040 l 226 1040 l 296 1132 l 360 1040 l 494 1040 l 356 1229 l 236 1229 z "},"Ệ":{"ha":572,"x_min":0,"x_max":0,"o":"m 64 0 l 538 0 l 538 168 l 242 168 l 242 422 l 493 422 l 493 586 l 242 586 l 242 832 l 526 832 l 526 996 l 64 996 z m 104 1065 l 233 1065 l 294 1181 l 356 1065 l 489 1065 l 353 1294 l 238 1294 z m 299 -282 b 396 -179 368 -282 396 -260 b 299 -76 396 -99 365 -76 b 201 -179 229 -76 201 -99 b 299 -282 201 -262 224 -282 z "},"Ề":{"ha":572,"x_min":0,"x_max":0,"o":"m 64 0 l 538 0 l 538 168 l 242 168 l 242 422 l 493 422 l 493 586 l 242 586 l 242 832 l 526 832 l 526 996 l 64 996 z m 553 1176 l 494 1354 l 351 1354 l 440 1176 z m 92 1040 l 228 1040 l 297 1132 l 361 1040 l 496 1040 l 357 1229 l 238 1229 z "},"Ể":{"ha":572,"x_min":0,"x_max":0,"o":"m 64 0 l 538 0 l 538 168 l 242 168 l 242 422 l 493 422 l 493 586 l 242 586 l 242 832 l 526 832 l 526 996 l 64 996 z m 568 1213 b 635 1303 618 1235 635 1261 b 485 1408 635 1369 582 1408 b 325 1278 382 1408 325 1365 l 438 1278 b 483 1319 438 1304 450 1319 b 521 1299 508 1319 521 1313 b 481 1264 521 1285 508 1279 b 424 1176 440 1246 425 1228 l 533 1176 b 568 1213 533 1196 539 1199 z m 93 1040 l 228 1040 l 296 1132 l 361 1040 l 496 1040 l 356 1229 l 238 1229 z "},"Ễ":{"ha":572,"x_min":0,"x_max":0,"o":"m 64 0 l 538 0 l 538 168 l 242 168 l 242 422 l 493 422 l 493 586 l 242 586 l 242 832 l 526 832 l 526 996 l 64 996 z m 94 1256 l 203 1256 b 235 1303 203 1288 213 1303 b 376 1253 274 1303 299 1253 b 492 1411 454 1251 492 1303 l 381 1411 b 349 1367 381 1381 369 1367 b 210 1415 310 1367 283 1415 b 94 1256 129 1415 94 1365 z m 90 1040 l 225 1040 l 294 1132 l 358 1040 l 493 1040 l 354 1229 l 235 1229 z "},"Ë":{"ha":572,"x_min":0,"x_max":0,"o":"m 64 0 l 538 0 l 538 168 l 242 168 l 242 422 l 493 422 l 493 586 l 242 586 l 242 832 l 526 832 l 526 996 l 64 996 z m 189 1063 b 271 1151 249 1063 271 1086 b 189 1242 271 1219 249 1242 b 108 1151 132 1242 108 1219 b 189 1063 108 1081 128 1063 z m 397 1063 b 479 1151 456 1063 479 1086 b 397 1242 479 1219 456 1242 b 317 1151 338 1242 317 1219 b 397 1063 317 1081 335 1063 z "},"Ė":{"ha":572,"x_min":0,"x_max":0,"o":"m 64 0 l 538 0 l 538 168 l 242 168 l 242 422 l 493 422 l 493 586 l 242 586 l 242 832 l 526 832 l 526 996 l 64 996 z m 293 1064 b 390 1165 363 1064 390 1086 b 293 1268 390 1247 361 1268 b 196 1165 224 1268 196 1247 b 293 1064 196 1083 218 1064 z "},"Ẹ":{"ha":572,"x_min":0,"x_max":0,"o":"m 64 0 l 538 0 l 538 168 l 242 168 l 242 422 l 493 422 l 493 586 l 242 586 l 242 832 l 526 832 l 526 996 l 64 996 z m 299 -282 b 396 -179 368 -282 396 -260 b 299 -76 396 -99 365 -76 b 201 -179 229 -76 201 -99 b 299 -282 201 -262 224 -282 z "},"È":{"ha":572,"x_min":0,"x_max":0,"o":"m 64 0 l 538 0 l 538 168 l 242 168 l 242 422 l 493 422 l 493 586 l 242 586 l 242 832 l 526 832 l 526 996 l 64 996 z m 236 1065 l 357 1065 l 251 1281 l 78 1281 z "},"Ẻ":{"ha":572,"x_min":0,"x_max":0,"o":"m 64 0 l 538 0 l 538 168 l 242 168 l 242 422 l 493 422 l 493 586 l 242 586 l 242 832 l 526 832 l 526 996 l 64 996 z m 385 1114 b 460 1215 440 1140 460 1168 b 297 1329 460 1289 401 1329 b 129 1186 185 1329 129 1283 l 247 1186 b 296 1231 247 1217 260 1231 b 335 1210 322 1231 335 1221 b 294 1175 335 1194 324 1189 b 235 1065 251 1154 235 1132 l 349 1065 b 385 1114 349 1092 356 1099 z "},"Ē":{"ha":572,"x_min":0,"x_max":0,"o":"m 64 0 l 538 0 l 538 168 l 242 168 l 242 422 l 493 422 l 493 586 l 242 586 l 242 832 l 526 832 l 526 996 l 64 996 z m 140 1075 l 447 1075 l 447 1201 l 140 1201 z "},"Ŋ":{"ha":704,"x_min":0,"x_max":0,"o":"m 360 -265 l 429 -265 b 640 -51 604 -265 640 -224 l 640 996 l 476 996 l 476 472 l 488 322 l 458 419 l 222 996 l 64 996 l 64 0 l 226 0 l 226 538 l 215 682 l 244 581 l 476 17 l 476 -31 b 410 -104 476 -94 464 -104 l 360 -104 z "},"Ę":{"ha":572,"x_min":0,"x_max":0,"o":"m 64 0 l 351 0 b 269 -144 288 -51 269 -96 b 438 -279 269 -233 329 -279 b 638 -119 547 -279 613 -229 l 494 -119 b 444 -169 490 -153 471 -169 b 403 -133 418 -169 403 -158 b 535 0 403 -104 421 -81 l 538 0 l 538 168 l 242 168 l 242 422 l 493 422 l 493 586 l 242 586 l 242 832 l 526 832 l 526 996 l 64 996 z "},"Ð":{"ha":682,"x_min":0,"x_max":0,"o":"m 7 581 l 7 419 l 76 419 l 76 0 l 332 0 b 631 296 507 0 631 86 l 631 700 b 333 996 631 911 506 996 l 76 996 l 76 581 z m 346 419 l 346 581 l 256 581 l 256 840 l 324 840 b 446 688 399 840 446 796 l 446 311 b 325 158 446 203 400 158 l 256 158 l 256 419 z "},"Ẽ":{"ha":572,"x_min":0,"x_max":0,"o":"m 64 0 l 538 0 l 538 168 l 242 168 l 242 422 l 493 422 l 493 586 l 242 586 l 242 832 l 526 832 l 526 996 l 64 996 z m 79 1069 l 189 1069 b 219 1124 189 1107 199 1124 b 381 1064 265 1124 300 1064 b 504 1247 465 1064 503 1114 l 393 1247 b 363 1194 393 1208 385 1194 b 201 1254 321 1194 283 1254 b 79 1069 117 1254 81 1201 z "},"Ğ":{"ha":685,"x_min":0,"x_max":0,"o":"m 275 -14 b 469 157 385 -14 449 44 l 492 0 l 625 0 l 625 536 l 329 536 l 329 382 l 444 382 l 444 294 b 342 151 444 206 414 151 b 236 303 268 151 236 197 l 236 697 b 343 850 236 801 269 850 b 439 736 411 850 439 811 l 439 633 l 625 633 l 625 746 b 346 1010 625 919 526 1010 b 50 708 165 1010 50 914 l 50 286 b 275 -14 50 81 125 -14 z m 336 1078 b 531 1292 471 1078 531 1147 l 411 1292 b 336 1190 411 1217 390 1192 b 263 1292 281 1192 263 1218 l 143 1292 b 336 1078 143 1147 192 1078 z "},"Ǧ":{"ha":685,"x_min":0,"x_max":0,"o":"m 275 -14 b 469 157 385 -14 449 44 l 492 0 l 625 0 l 625 536 l 329 536 l 329 382 l 444 382 l 444 294 b 342 151 444 206 414 151 b 236 303 268 151 236 197 l 236 697 b 343 850 236 801 269 850 b 439 736 411 850 439 811 l 439 633 l 625 633 l 625 746 b 346 1010 625 919 526 1010 b 50 708 165 1010 50 914 l 50 286 b 275 -14 50 81 125 -14 z m 278 1079 l 393 1079 l 526 1308 l 399 1308 l 336 1193 l 276 1308 l 144 1308 z "},"Ĝ":{"ha":685,"x_min":0,"x_max":0,"o":"m 275 -14 b 469 157 385 -14 449 44 l 492 0 l 625 0 l 625 536 l 329 536 l 329 382 l 444 382 l 444 294 b 342 151 444 206 414 151 b 236 303 268 151 236 197 l 236 697 b 343 850 236 801 269 850 b 439 736 411 850 439 811 l 439 633 l 625 633 l 625 746 b 346 1010 625 919 526 1010 b 50 708 165 1010 50 914 l 50 286 b 275 -14 50 81 125 -14 z m 147 1081 l 276 1081 l 338 1196 l 399 1081 l 532 1081 l 396 1310 l 281 1310 z "},"Ģ":{"ha":685,"x_min":0,"x_max":0,"o":"m 275 -14 b 469 157 385 -14 449 44 l 492 0 l 625 0 l 625 536 l 329 536 l 329 382 l 444 382 l 444 294 b 342 151 444 206 414 151 b 236 303 268 151 236 197 l 236 697 b 343 850 236 801 269 850 b 439 736 411 850 439 811 l 439 633 l 625 633 l 625 746 b 346 1010 625 919 526 1010 b 50 708 165 1010 50 914 l 50 286 b 275 -14 50 81 125 -14 z m 260 -308 l 260 -389 b 419 -189 368 -382 419 -307 b 332 -69 419 -97 399 -69 b 244 -160 268 -69 244 -93 b 317 -243 244 -229 265 -243 l 328 -243 b 260 -308 322 -285 303 -306 z "},"Ġ":{"ha":685,"x_min":0,"x_max":0,"o":"m 275 -14 b 469 157 385 -14 449 44 l 492 0 l 625 0 l 625 536 l 329 536 l 329 382 l 444 382 l 444 294 b 342 151 444 206 414 151 b 236 303 268 151 236 197 l 236 697 b 343 850 236 801 269 850 b 439 736 411 850 439 811 l 439 633 l 625 633 l 625 746 b 346 1010 625 919 526 1010 b 50 708 165 1010 50 914 l 50 286 b 275 -14 50 81 125 -14 z m 336 1078 b 433 1179 406 1078 433 1100 b 336 1282 433 1261 404 1282 b 239 1179 267 1282 239 1261 b 336 1078 239 1097 261 1078 z "},"Ħ":{"ha":708,"x_min":0,"x_max":0,"o":"m 8 835 l 8 690 l 79 690 l 79 0 l 258 0 l 258 386 l 454 386 l 454 0 l 633 0 l 633 690 l 701 690 l 701 835 l 633 835 l 633 996 l 454 996 l 454 835 l 258 835 l 258 996 l 79 996 l 79 835 z m 258 536 l 258 690 l 454 690 l 454 536 z "},"Ĥ":{"ha":676,"x_min":0,"x_max":0,"o":"m 64 996 l 64 0 l 243 0 l 243 414 l 435 414 l 435 0 l 614 0 l 614 996 l 435 996 l 435 583 l 243 583 l 243 996 z m 147 1060 l 276 1060 l 338 1175 l 399 1060 l 532 1060 l 396 1289 l 281 1289 z "},"Ĳ":{"ha":824,"x_min":0,"x_max":0,"o":"m 494 169 l 494 0 l 540 0 b 763 247 725 0 763 32 l 763 996 l 578 996 l 578 253 b 515 169 578 181 572 169 z m 39 169 l 39 0 l 438 0 l 438 169 l 328 169 l 328 829 l 440 829 l 440 996 l 39 996 l 39 829 l 154 829 l 154 169 z "},"Í":{"ha":482,"x_min":0,"x_max":0,"o":"m 39 169 l 39 0 l 442 0 l 442 169 l 329 169 l 329 829 l 442 829 l 442 996 l 39 996 l 39 829 l 154 829 l 154 169 z m 169 1064 l 299 1064 l 469 1279 l 294 1279 z "},"Ĭ":{"ha":482,"x_min":0,"x_max":0,"o":"m 39 169 l 39 0 l 442 0 l 442 169 l 329 169 l 329 829 l 442 829 l 442 996 l 39 996 l 39 829 l 154 829 l 154 169 z m 239 1064 b 433 1278 374 1064 433 1133 l 314 1278 b 239 1176 314 1203 293 1178 b 165 1278 183 1178 165 1204 l 46 1278 b 239 1064 46 1133 94 1064 z "},"Ǐ":{"ha":482,"x_min":0,"x_max":0,"o":"m 39 169 l 39 0 l 442 0 l 442 169 l 329 169 l 329 829 l 442 829 l 442 996 l 39 996 l 39 829 l 154 829 l 154 169 z m 179 1065 l 294 1065 l 428 1294 l 300 1294 l 238 1179 l 178 1294 l 46 1294 z "},"Î":{"ha":482,"x_min":0,"x_max":0,"o":"m 39 169 l 39 0 l 442 0 l 442 169 l 329 169 l 329 829 l 442 829 l 442 996 l 39 996 l 39 829 l 154 829 l 154 169 z m 49 1065 l 178 1065 l 239 1181 l 300 1065 l 433 1065 l 297 1294 l 182 1294 z "},"Ï":{"ha":482,"x_min":0,"x_max":0,"o":"m 39 169 l 39 0 l 442 0 l 442 169 l 329 169 l 329 829 l 442 829 l 442 996 l 39 996 l 39 829 l 154 829 l 154 169 z m 135 1063 b 217 1151 194 1063 217 1086 b 135 1242 217 1219 194 1242 b 54 1151 78 1242 54 1219 b 135 1063 54 1081 74 1063 z m 343 1063 b 425 1151 401 1063 425 1086 b 343 1242 425 1219 401 1242 b 263 1151 283 1242 263 1219 b 343 1063 263 1081 281 1063 z "},"İ":{"ha":482,"x_min":0,"x_max":0,"o":"m 39 169 l 39 0 l 442 0 l 442 169 l 329 169 l 329 829 l 442 829 l 442 996 l 39 996 l 39 829 l 154 829 l 154 169 z m 238 1064 b 335 1165 307 1064 335 1086 b 238 1268 335 1247 306 1268 b 140 1165 168 1268 140 1247 b 238 1064 140 1083 163 1064 z "},"Ị":{"ha":482,"x_min":0,"x_max":0,"o":"m 39 169 l 39 0 l 442 0 l 442 169 l 329 169 l 329 829 l 442 829 l 442 996 l 39 996 l 39 829 l 154 829 l 154 169 z m 242 -282 b 339 -179 311 -282 339 -260 b 242 -76 339 -99 308 -76 b 144 -179 172 -76 144 -99 b 242 -282 144 -262 167 -282 z "},"Ì":{"ha":482,"x_min":0,"x_max":0,"o":"m 39 169 l 39 0 l 442 0 l 442 169 l 329 169 l 329 829 l 442 829 l 442 996 l 39 996 l 39 829 l 154 829 l 154 169 z m 181 1065 l 301 1065 l 196 1281 l 22 1281 z "},"Ỉ":{"ha":482,"x_min":0,"x_max":0,"o":"m 39 169 l 39 0 l 442 0 l 442 169 l 329 169 l 329 829 l 442 829 l 442 996 l 39 996 l 39 829 l 154 829 l 154 169 z m 329 1115 b 404 1217 385 1142 404 1169 b 242 1331 404 1290 346 1331 b 74 1188 129 1331 74 1285 l 192 1188 b 240 1232 192 1218 204 1232 b 279 1211 267 1232 279 1222 b 239 1176 279 1196 268 1190 b 179 1067 196 1156 179 1133 l 293 1067 b 329 1115 293 1093 300 1100 z "},"Ī":{"ha":482,"x_min":0,"x_max":0,"o":"m 39 169 l 39 0 l 442 0 l 442 169 l 329 169 l 329 829 l 442 829 l 442 996 l 39 996 l 39 829 l 154 829 l 154 169 z m 85 1075 l 392 1075 l 392 1201 l 85 1201 z "},"Į":{"ha":482,"x_min":0,"x_max":0,"o":"m 39 169 l 39 0 l 256 0 b 174 -144 192 -51 174 -96 b 342 -279 174 -233 233 -279 b 542 -119 451 -279 517 -229 l 399 -119 b 349 -169 394 -153 375 -169 b 307 -133 322 -169 307 -158 b 439 0 307 -104 325 -81 l 442 0 l 442 169 l 329 169 l 329 829 l 442 829 l 442 996 l 39 996 l 39 829 l 154 829 l 154 169 z "},"Ɨ":{"ha":482,"x_min":0,"x_max":0,"o":"m 39 169 l 39 0 l 442 0 l 442 169 l 329 169 l 329 442 l 406 442 l 406 590 l 329 590 l 329 829 l 442 829 l 442 996 l 39 996 l 39 829 l 154 829 l 154 590 l 79 590 l 79 442 l 154 442 l 154 169 z "},"Ĩ":{"ha":482,"x_min":0,"x_max":0,"o":"m 39 169 l 39 0 l 442 0 l 442 169 l 329 169 l 329 829 l 442 829 l 442 996 l 39 996 l 39 829 l 154 829 l 154 169 z m 25 1069 l 135 1069 b 165 1124 135 1107 144 1124 b 326 1064 211 1124 246 1064 b 450 1247 411 1064 449 1114 l 339 1247 b 308 1194 339 1208 331 1194 b 147 1254 267 1194 229 1254 b 25 1069 63 1254 26 1201 z "},"Ĵ":{"ha":614,"x_min":0,"x_max":0,"o":"m 293 -14 b 551 268 467 -14 551 69 l 551 996 l 368 996 l 368 272 b 293 153 368 182 349 153 b 219 250 238 153 219 188 l 219 394 l 33 394 l 33 250 b 293 -14 33 61 122 -14 z m 274 1065 l 403 1065 l 464 1181 l 525 1065 l 658 1065 l 522 1294 l 407 1294 z "},"Ǩ":{"ha":676,"x_min":0,"x_max":0,"o":"m 315 453 l 463 0 l 660 0 l 447 607 l 439 629 l 644 996 l 443 996 l 244 619 l 236 593 l 239 644 l 239 996 l 64 996 l 64 0 l 239 0 l 239 385 l 304 504 z m 274 1060 l 389 1060 l 522 1289 l 394 1289 l 332 1174 l 272 1289 l 140 1289 z "},"Ķ":{"ha":676,"x_min":0,"x_max":0,"o":"m 315 453 l 463 0 l 660 0 l 447 607 l 439 629 l 644 996 l 443 996 l 244 619 l 236 593 l 239 644 l 239 996 l 64 996 l 64 0 l 239 0 l 239 385 l 304 504 z m 274 -289 l 274 -369 b 433 -169 382 -362 433 -287 b 346 -50 433 -78 413 -50 b 258 -140 282 -50 258 -74 b 331 -224 258 -210 279 -224 l 342 -224 b 274 -289 336 -265 317 -286 z "},"Ĺ":{"ha":549,"x_min":0,"x_max":0,"o":"m 64 996 l 64 0 l 514 0 l 514 179 l 247 179 l 247 996 z m 85 1065 l 214 1065 l 385 1281 l 210 1281 z "},"Ľ":{"ha":549,"x_min":0,"x_max":0,"o":"m 64 996 l 64 0 l 514 0 l 514 179 l 247 179 l 247 996 z m 332 765 l 418 765 l 447 1042 l 332 1042 z "},"Ļ":{"ha":549,"x_min":0,"x_max":0,"o":"m 64 996 l 64 0 l 514 0 l 514 179 l 247 179 l 247 996 z m 222 -294 l 222 -375 b 382 -175 331 -368 382 -293 b 294 -56 382 -83 361 -56 b 207 -146 231 -56 207 -79 b 279 -229 207 -215 228 -229 l 290 -229 b 222 -294 285 -271 265 -292 z "},"Ŀ":{"ha":575,"x_min":0,"x_max":0,"o":"m 64 994 l 64 0 l 542 0 l 542 178 l 204 178 l 247 128 l 247 994 z m 347 497 b 444 396 347 415 369 396 b 542 497 514 396 542 418 b 444 600 542 579 514 600 b 347 497 375 600 347 579 z "},"Ł":{"ha":558,"x_min":0,"x_max":0,"o":"m 8 501 l 8 357 l 72 385 l 72 0 l 522 0 l 522 179 l 256 179 l 256 453 l 417 522 l 417 665 l 256 594 l 256 996 l 72 996 l 72 528 z "},"Ꝉ":{"ha":553,"x_min":0,"x_max":0,"o":"m 0 619 l 0 471 l 68 471 l 68 0 l 519 0 l 519 179 l 251 179 l 251 471 l 421 471 l 421 619 l 251 619 l 251 996 l 68 996 l 68 619 z "},"Ń":{"ha":704,"x_min":0,"x_max":0,"o":"m 64 0 l 226 0 l 226 536 l 215 682 l 250 565 l 485 0 l 640 0 l 640 996 l 478 996 l 478 457 l 488 319 l 453 435 l 221 996 l 64 996 z m 283 1056 l 413 1056 l 583 1271 l 408 1271 z "},"Ň":{"ha":704,"x_min":0,"x_max":0,"o":"m 64 0 l 226 0 l 226 536 l 215 682 l 250 565 l 485 0 l 640 0 l 640 996 l 478 996 l 478 457 l 488 319 l 453 435 l 221 996 l 64 996 z m 292 1056 l 407 1056 l 540 1285 l 413 1285 l 350 1169 l 290 1285 l 158 1285 z "},"Ņ":{"ha":704,"x_min":0,"x_max":0,"o":"m 64 0 l 226 0 l 226 536 l 215 682 l 250 565 l 485 0 l 640 0 l 640 996 l 478 996 l 478 457 l 488 319 l 453 435 l 221 996 l 64 996 z m 276 -286 l 276 -367 b 436 -167 385 -360 436 -285 b 349 -47 436 -75 415 -47 b 261 -137 285 -47 261 -71 b 333 -221 261 -207 282 -221 l 344 -221 b 276 -286 339 -262 319 -283 z "},"Ǹ":{"ha":704,"x_min":0,"x_max":0,"o":"m 64 0 l 226 0 l 226 536 l 215 682 l 250 565 l 485 0 l 640 0 l 640 996 l 478 996 l 478 457 l 488 319 l 453 435 l 221 996 l 64 996 z m 293 1056 l 414 1056 l 308 1271 l 135 1271 z "},"Ɲ":{"ha":710,"x_min":0,"x_max":0,"o":"m 64 -19 b 0 -97 64 -86 51 -97 l -26 -97 l -26 -265 l 17 -265 b 226 -29 190 -265 226 -228 l 226 536 l 215 682 l 250 565 l 485 0 l 640 0 l 640 996 l 478 996 l 478 457 l 488 319 l 453 435 l 221 996 l 64 996 z "},"Ñ":{"ha":704,"x_min":0,"x_max":0,"o":"m 64 0 l 226 0 l 226 536 l 215 682 l 250 565 l 485 0 l 640 0 l 640 996 l 478 996 l 478 457 l 488 319 l 453 435 l 221 996 l 64 996 z m 136 1058 l 246 1058 b 276 1113 246 1096 256 1113 b 438 1053 322 1113 357 1053 b 561 1236 522 1053 560 1103 l 450 1236 b 419 1183 450 1197 442 1183 b 258 1243 378 1183 340 1243 b 136 1058 174 1243 138 1190 z "},"Œ":{"ha":939,"x_min":0,"x_max":0,"o":"m 288 -14 b 431 58 363 -14 406 11 l 431 0 l 897 0 l 897 167 l 610 167 l 610 425 l 863 425 l 863 586 l 610 586 l 610 836 l 889 836 l 889 996 l 431 996 l 431 939 b 288 1008 406 985 363 1008 b 49 704 139 1008 49 908 l 49 290 b 288 -14 49 81 131 -14 z m 336 151 b 235 303 263 151 235 201 l 235 696 b 336 849 235 796 263 849 b 438 696 408 849 438 799 l 438 303 b 336 151 438 199 408 151 z "},"Ó":{"ha":678,"x_min":0,"x_max":0,"o":"m 339 -14 b 625 288 513 -14 625 79 l 625 706 b 339 1008 625 908 511 1008 b 50 706 164 1008 50 908 l 50 288 b 339 -14 50 78 161 -14 z m 339 151 b 238 301 265 151 238 199 l 238 697 b 339 849 238 799 265 849 b 440 697 411 849 440 799 l 440 301 b 339 151 440 199 411 151 z m 267 1079 l 396 1079 l 567 1294 l 392 1294 z "},"Ŏ":{"ha":678,"x_min":0,"x_max":0,"o":"m 339 -14 b 625 288 513 -14 625 79 l 625 706 b 339 1008 625 908 511 1008 b 50 706 164 1008 50 908 l 50 288 b 339 -14 50 78 161 -14 z m 339 151 b 238 301 265 151 238 199 l 238 697 b 339 849 238 799 265 849 b 440 697 411 849 440 799 l 440 301 b 339 151 440 199 411 151 z m 336 1076 b 531 1290 471 1076 531 1146 l 411 1290 b 336 1189 411 1215 390 1190 b 263 1290 281 1190 263 1217 l 143 1290 b 336 1076 143 1146 192 1076 z "},"Ǒ":{"ha":678,"x_min":0,"x_max":0,"o":"m 339 -14 b 625 288 513 -14 625 79 l 625 706 b 339 1008 625 908 511 1008 b 50 706 164 1008 50 908 l 50 288 b 339 -14 50 78 161 -14 z m 339 151 b 238 301 265 151 238 199 l 238 697 b 339 849 238 799 265 849 b 440 697 411 849 440 799 l 440 301 b 339 151 440 199 411 151 z m 276 1079 l 392 1079 l 525 1308 l 397 1308 l 335 1193 l 275 1308 l 143 1308 z "},"Ô":{"ha":678,"x_min":0,"x_max":0,"o":"m 339 -14 b 625 288 513 -14 625 79 l 625 706 b 339 1008 625 908 511 1008 b 50 706 164 1008 50 908 l 50 288 b 339 -14 50 78 161 -14 z m 339 151 b 238 301 265 151 238 199 l 238 697 b 339 849 238 799 265 849 b 440 697 411 849 440 799 l 440 301 b 339 151 440 199 411 151 z m 146 1079 l 275 1079 l 336 1194 l 397 1079 l 531 1079 l 394 1308 l 279 1308 z "},"Ố":{"ha":678,"x_min":0,"x_max":0,"o":"m 339 -14 b 625 288 513 -14 625 79 l 625 706 b 339 1008 625 908 511 1008 b 50 706 164 1008 50 908 l 50 288 b 339 -14 50 78 161 -14 z m 339 151 b 238 301 265 151 238 199 l 238 697 b 339 849 238 799 265 849 b 440 697 411 849 440 799 l 440 301 b 339 151 440 199 411 151 z m 469 1190 l 581 1190 l 669 1368 l 528 1368 z m 132 1054 l 268 1054 l 338 1146 l 401 1054 l 536 1054 l 397 1243 l 278 1243 z "},"Ộ":{"ha":678,"x_min":0,"x_max":0,"o":"m 339 -14 b 625 288 513 -14 625 79 l 625 706 b 339 1008 625 908 511 1008 b 50 706 164 1008 50 908 l 50 288 b 339 -14 50 78 161 -14 z m 339 151 b 238 301 265 151 238 199 l 238 697 b 339 849 238 799 265 849 b 440 697 411 849 440 799 l 440 301 b 339 151 440 199 411 151 z m 144 1079 l 274 1079 l 335 1194 l 396 1079 l 529 1079 l 393 1308 l 278 1308 z m 336 -297 b 433 -194 406 -297 433 -275 b 336 -92 433 -114 403 -92 b 239 -194 267 -92 239 -114 b 336 -297 239 -278 261 -297 z "},"Ồ":{"ha":678,"x_min":0,"x_max":0,"o":"m 339 -14 b 625 288 513 -14 625 79 l 625 706 b 339 1008 625 908 511 1008 b 50 706 164 1008 50 908 l 50 288 b 339 -14 50 78 161 -14 z m 339 151 b 238 301 265 151 238 199 l 238 697 b 339 849 238 799 265 849 b 440 697 411 849 440 799 l 440 301 b 339 151 440 199 411 151 z m 596 1190 l 538 1368 l 394 1368 l 483 1190 z m 135 1054 l 271 1054 l 340 1146 l 404 1054 l 539 1054 l 400 1243 l 281 1243 z "},"Ổ":{"ha":678,"x_min":0,"x_max":0,"o":"m 339 -14 b 625 288 513 -14 625 79 l 625 706 b 339 1008 625 908 511 1008 b 50 706 164 1008 50 908 l 50 288 b 339 -14 50 78 161 -14 z m 339 151 b 238 301 265 151 238 199 l 238 697 b 339 849 238 799 265 849 b 440 697 411 849 440 799 l 440 301 b 339 151 440 199 411 151 z m 610 1226 b 676 1317 660 1249 676 1275 b 526 1422 676 1383 624 1422 b 367 1292 424 1422 367 1379 l 479 1292 b 525 1333 479 1318 492 1333 b 563 1313 550 1333 563 1326 b 522 1278 563 1299 550 1293 b 465 1190 482 1260 467 1242 l 575 1190 b 610 1226 575 1210 581 1213 z m 135 1054 l 269 1054 l 338 1146 l 403 1054 l 538 1054 l 397 1243 l 279 1243 z "},"Ỗ":{"ha":678,"x_min":0,"x_max":0,"o":"m 339 -14 b 625 288 513 -14 625 79 l 625 706 b 339 1008 625 908 511 1008 b 50 706 164 1008 50 908 l 50 288 b 339 -14 50 78 161 -14 z m 339 151 b 238 301 265 151 238 199 l 238 697 b 339 849 238 799 265 849 b 440 697 411 849 440 799 l 440 301 b 339 151 440 199 411 151 z m 139 1269 l 247 1269 b 279 1317 247 1301 257 1317 b 421 1267 318 1317 343 1267 b 536 1425 499 1265 536 1317 l 425 1425 b 393 1381 425 1394 414 1381 b 254 1429 354 1381 328 1429 b 139 1269 174 1429 139 1379 z m 135 1054 l 269 1054 l 339 1146 l 403 1054 l 538 1054 l 399 1243 l 279 1243 z "},"Ö":{"ha":678,"x_min":0,"x_max":0,"o":"m 339 -14 b 625 288 513 -14 625 79 l 625 706 b 339 1008 625 908 511 1008 b 50 706 164 1008 50 908 l 50 288 b 339 -14 50 78 161 -14 z m 339 151 b 238 301 265 151 238 199 l 238 697 b 339 849 238 799 265 849 b 440 697 411 849 440 799 l 440 301 b 339 151 440 199 411 151 z m 232 1075 b 314 1164 292 1075 314 1099 b 232 1254 314 1232 292 1254 b 151 1164 175 1254 151 1232 b 232 1075 151 1093 171 1075 z m 440 1075 b 522 1164 499 1075 522 1099 b 440 1254 522 1232 499 1254 b 360 1164 381 1254 360 1232 b 440 1075 360 1093 378 1075 z "},"Ȯ":{"ha":678,"x_min":0,"x_max":0,"o":"m 339 -14 b 625 288 513 -14 625 79 l 625 706 b 339 1008 625 908 511 1008 b 50 706 164 1008 50 908 l 50 288 b 339 -14 50 78 161 -14 z m 339 151 b 238 301 265 151 238 199 l 238 697 b 339 849 238 799 265 849 b 440 697 411 849 440 799 l 440 301 b 339 151 440 199 411 151 z m 335 1078 b 432 1179 404 1078 432 1100 b 335 1282 432 1261 403 1282 b 238 1179 265 1282 238 1261 b 335 1078 238 1097 260 1078 z "},"Ọ":{"ha":678,"x_min":0,"x_max":0,"o":"m 339 -14 b 625 288 513 -14 625 79 l 625 706 b 339 1008 625 908 511 1008 b 50 706 164 1008 50 908 l 50 288 b 339 -14 50 78 161 -14 z m 339 151 b 238 301 265 151 238 199 l 238 697 b 339 849 238 799 265 849 b 440 697 411 849 440 799 l 440 301 b 339 151 440 199 411 151 z m 336 -297 b 433 -194 406 -297 433 -275 b 336 -92 433 -114 403 -92 b 239 -194 267 -92 239 -114 b 336 -297 239 -278 261 -297 z "},"Ò":{"ha":678,"x_min":0,"x_max":0,"o":"m 339 -14 b 625 288 513 -14 625 79 l 625 706 b 339 1008 625 908 511 1008 b 50 706 164 1008 50 908 l 50 288 b 339 -14 50 78 161 -14 z m 339 151 b 238 301 265 151 238 199 l 238 697 b 339 849 238 799 265 849 b 440 697 411 849 440 799 l 440 301 b 339 151 440 199 411 151 z m 276 1079 l 397 1079 l 292 1294 l 118 1294 z "},"Ỏ":{"ha":678,"x_min":0,"x_max":0,"o":"m 339 -14 b 625 288 513 -14 625 79 l 625 706 b 339 1008 625 908 511 1008 b 50 706 164 1008 50 908 l 50 288 b 339 -14 50 78 161 -14 z m 339 151 b 238 301 265 151 238 199 l 238 697 b 339 849 238 799 265 849 b 440 697 411 849 440 799 l 440 301 b 339 151 440 199 411 151 z m 426 1126 b 501 1228 482 1153 501 1181 b 339 1342 501 1301 443 1342 b 171 1199 226 1342 171 1296 l 289 1199 b 338 1243 289 1229 301 1243 b 376 1222 364 1243 376 1233 b 336 1188 376 1207 365 1201 b 276 1078 293 1167 276 1144 l 390 1078 b 426 1126 390 1104 397 1111 z "},"Ơ":{"ha":678,"x_min":0,"x_max":0,"o":"m 339 -14 b 625 288 513 -14 625 79 l 625 706 b 543 936 625 810 594 886 b 669 1092 636 950 671 993 l 671 1153 l 511 1153 l 511 1093 b 438 1007 511 1026 494 1007 b 344 1008 413 1007 382 1008 l 332 1008 b 50 706 164 1008 50 908 l 50 288 b 339 -14 50 78 161 -14 z m 339 151 b 238 301 265 151 238 199 l 238 697 b 339 849 238 799 265 849 b 440 697 411 849 440 799 l 440 301 b 339 151 440 199 411 151 z "},"Ớ":{"ha":678,"x_min":0,"x_max":0,"o":"m 339 -14 b 625 288 513 -14 625 79 l 625 706 b 543 936 625 810 594 886 b 669 1092 636 950 671 993 l 671 1153 l 511 1153 l 511 1093 b 438 1007 511 1026 494 1007 b 344 1008 413 1007 382 1008 l 332 1008 b 50 706 164 1008 50 908 l 50 288 b 339 -14 50 78 161 -14 z m 339 151 b 238 301 265 151 238 199 l 238 697 b 339 849 238 799 265 849 b 440 697 411 849 440 799 l 440 301 b 339 151 440 199 411 151 z m 267 1079 l 396 1079 l 567 1294 l 392 1294 z "},"Ợ":{"ha":678,"x_min":0,"x_max":0,"o":"m 339 -14 b 625 288 513 -14 625 79 l 625 706 b 543 936 625 810 594 886 b 669 1092 636 950 671 993 l 671 1153 l 511 1153 l 511 1093 b 438 1007 511 1026 494 1007 b 344 1008 413 1007 382 1008 l 332 1008 b 50 706 164 1008 50 908 l 50 288 b 339 -14 50 78 161 -14 z m 339 151 b 238 301 265 151 238 199 l 238 697 b 339 849 238 799 265 849 b 440 697 411 849 440 799 l 440 301 b 339 151 440 199 411 151 z "},"Ờ":{"ha":678,"x_min":0,"x_max":0,"o":"m 339 -14 b 625 288 513 -14 625 79 l 625 706 b 543 936 625 810 594 886 b 669 1092 636 950 671 993 l 671 1153 l 511 1153 l 511 1093 b 438 1007 511 1026 494 1007 b 344 1008 413 1007 382 1008 l 332 1008 b 50 706 164 1008 50 908 l 50 288 b 339 -14 50 78 161 -14 z m 339 151 b 238 301 265 151 238 199 l 238 697 b 339 849 238 799 265 849 b 440 697 411 849 440 799 l 440 301 b 339 151 440 199 411 151 z m 290 1079 l 411 1079 l 306 1294 l 132 1294 z "},"Ở":{"ha":678,"x_min":0,"x_max":0,"o":"m 417 1125 b 492 1226 472 1151 492 1181 b 329 1342 492 1299 432 1342 b 160 1199 217 1342 161 1296 l 279 1199 b 328 1243 279 1226 292 1243 b 367 1221 354 1243 367 1235 b 326 1188 367 1207 356 1200 b 267 1076 283 1168 267 1143 l 381 1076 b 417 1125 381 1104 388 1111 z m 339 -14 b 625 288 513 -14 625 79 l 625 706 b 543 936 625 810 594 886 b 669 1092 636 950 671 993 l 671 1153 l 511 1153 l 511 1093 b 438 1007 511 1026 494 1007 b 344 1008 413 1007 382 1008 l 332 1008 b 50 706 164 1008 50 908 l 50 288 b 339 -14 50 78 161 -14 z m 339 151 b 238 301 265 151 238 199 l 238 697 b 339 849 238 799 265 849 b 440 697 411 849 440 799 l 440 301 b 339 151 440 199 411 151 z "},"Ỡ":{"ha":678,"x_min":0,"x_max":0,"o":"m 93 1081 l 208 1081 b 238 1129 208 1113 217 1129 b 379 1076 274 1129 303 1076 b 492 1260 456 1076 490 1126 l 376 1260 b 349 1213 376 1226 368 1213 b 208 1265 311 1213 282 1265 b 93 1081 133 1265 94 1213 z m 339 -14 b 625 288 513 -14 625 79 l 625 706 b 543 936 625 810 594 886 b 669 1092 636 950 671 993 l 671 1153 l 511 1153 l 511 1093 b 438 1007 511 1026 494 1007 b 344 1008 413 1007 382 1008 l 332 1008 b 50 706 164 1008 50 908 l 50 288 b 339 -14 50 78 161 -14 z m 339 151 b 238 301 265 151 238 199 l 238 697 b 339 849 238 799 265 849 b 440 697 411 849 440 799 l 440 301 b 339 151 440 199 411 151 z "},"Ő":{"ha":678,"x_min":0,"x_max":0,"o":"m 339 -14 b 625 288 513 -14 625 79 l 625 706 b 339 1008 625 908 511 1008 b 50 706 164 1008 50 908 l 50 288 b 339 -14 50 78 161 -14 z m 339 151 b 238 301 265 151 238 199 l 238 697 b 339 849 238 799 265 849 b 440 697 411 849 440 799 l 440 301 b 339 151 440 199 411 151 z m 279 1293 l 188 1078 l 292 1078 l 426 1293 z m 471 1293 l 372 1078 l 476 1078 l 624 1293 z "},"Ō":{"ha":678,"x_min":0,"x_max":0,"o":"m 339 -14 b 625 288 513 -14 625 79 l 625 706 b 339 1008 625 908 511 1008 b 50 706 164 1008 50 908 l 50 288 b 339 -14 50 78 161 -14 z m 339 151 b 238 301 265 151 238 199 l 238 697 b 339 849 238 799 265 849 b 440 697 411 849 440 799 l 440 301 b 339 151 440 199 411 151 z m 182 1089 l 489 1089 l 489 1215 l 182 1215 z "},"Ǫ":{"ha":678,"x_min":0,"x_max":0,"o":"m 339 -282 b 539 -122 449 -282 514 -232 l 396 -122 b 346 -172 392 -156 372 -172 b 304 -136 319 -172 304 -161 b 436 -3 304 -107 322 -83 l 436 -3 b 625 288 553 28 625 121 l 625 706 b 339 1008 625 908 511 1008 b 50 706 164 1008 50 908 l 50 288 b 250 -6 50 115 125 22 b 171 -147 188 -56 171 -100 b 339 -282 171 -236 231 -282 z m 339 151 b 238 301 265 151 238 199 l 238 697 b 339 849 238 799 265 849 b 440 697 411 849 440 799 l 440 301 b 339 151 440 199 411 151 z "},"Ø":{"ha":683,"x_min":0,"x_max":0,"o":"m 126 -135 l 278 -135 l 308 -15 b 342 -17 319 -15 329 -17 b 631 288 517 -15 631 79 l 631 704 b 521 960 631 826 590 911 l 564 1113 l 418 1113 l 392 1007 b 340 1011 375 1010 358 1011 b 50 704 165 1011 50 907 l 50 288 b 172 24 50 156 94 69 z m 342 150 b 236 301 268 150 236 199 l 236 697 b 342 851 236 799 268 851 b 449 697 415 851 449 801 l 449 301 b 342 150 449 199 415 150 z "},"Ǿ":{"ha":683,"x_min":0,"x_max":0,"o":"m 263 1135 l 392 1135 l 563 1350 l 388 1350 z m 126 -135 l 278 -135 l 308 -15 b 342 -17 319 -15 329 -17 b 631 288 517 -15 631 79 l 631 704 b 521 960 631 826 590 911 l 564 1113 l 418 1113 l 392 1007 b 340 1011 375 1010 358 1011 b 50 704 165 1011 50 907 l 50 288 b 172 24 50 156 94 69 z m 342 150 b 236 301 268 150 236 199 l 236 697 b 342 851 236 799 268 851 b 449 697 415 851 449 801 l 449 301 b 342 150 449 199 415 150 z "},"Õ":{"ha":678,"x_min":0,"x_max":0,"o":"m 339 -14 b 625 288 513 -14 625 79 l 625 706 b 339 1008 625 908 511 1008 b 50 706 164 1008 50 908 l 50 288 b 339 -14 50 78 161 -14 z m 339 151 b 238 301 265 151 238 199 l 238 697 b 339 849 238 799 265 849 b 440 697 411 849 440 799 l 440 301 b 339 151 440 199 411 151 z m 122 1083 l 232 1083 b 263 1138 232 1121 242 1138 b 424 1078 308 1138 343 1078 b 547 1261 508 1078 546 1128 l 436 1261 b 406 1208 436 1222 428 1208 b 244 1268 364 1208 326 1268 b 122 1083 160 1268 124 1215 z "},"Ŕ":{"ha":644,"x_min":0,"x_max":0,"o":"m 64 0 l 238 0 l 238 381 l 313 381 b 407 282 386 381 407 350 l 407 67 b 425 0 407 33 413 10 l 611 0 b 586 65 596 15 586 33 l 586 289 b 490 464 586 388 563 439 b 597 638 560 490 597 543 l 597 758 b 332 996 597 922 518 996 l 64 996 z m 319 842 b 419 749 393 842 419 814 l 419 638 b 322 539 419 569 393 539 l 238 539 l 238 842 z m 251 1065 l 381 1065 l 551 1281 l 376 1281 z "},"Ř":{"ha":644,"x_min":0,"x_max":0,"o":"m 64 0 l 238 0 l 238 381 l 313 381 b 407 282 386 381 407 350 l 407 67 b 425 0 407 33 413 10 l 611 0 b 586 65 596 15 586 33 l 586 289 b 490 464 586 388 563 439 b 597 638 560 490 597 543 l 597 758 b 332 996 597 922 518 996 l 64 996 z m 319 842 b 419 749 393 842 419 814 l 419 638 b 322 539 419 569 393 539 l 238 539 l 238 842 z m 260 1065 l 375 1065 l 508 1294 l 381 1294 l 318 1179 l 258 1294 l 126 1294 z "},"Ŗ":{"ha":644,"x_min":0,"x_max":0,"o":"m 64 0 l 238 0 l 238 381 l 313 381 b 407 282 386 381 407 350 l 407 67 b 425 0 407 33 413 10 l 611 0 b 586 65 596 15 586 33 l 586 289 b 490 464 586 388 563 439 b 597 638 560 490 597 543 l 597 758 b 332 996 597 922 518 996 l 64 996 z m 319 842 b 419 749 393 842 419 814 l 419 638 b 322 539 419 569 393 539 l 238 539 l 238 842 z m 260 -290 l 260 -371 b 419 -171 368 -364 419 -289 b 332 -51 419 -79 399 -51 b 244 -142 268 -51 244 -75 b 317 -225 244 -211 265 -225 l 328 -225 b 260 -290 322 -267 303 -287 z "},"Ś":{"ha":613,"x_min":0,"x_max":0,"o":"m 308 -14 b 578 238 486 -14 578 79 l 578 313 b 376 581 578 469 471 531 b 221 733 294 622 221 657 l 221 761 b 304 860 221 821 243 860 b 389 765 365 860 389 829 l 389 668 l 565 668 l 565 776 b 304 1010 565 921 482 1010 b 40 763 128 1010 40 915 l 40 721 b 240 457 40 567 144 507 b 399 293 322 414 399 375 l 399 242 b 311 146 399 186 376 146 b 217 247 239 146 217 185 l 217 378 l 31 378 l 31 244 b 308 -14 31 75 103 -14 z m 233 1081 l 363 1081 l 533 1296 l 358 1296 z "},"Š":{"ha":613,"x_min":0,"x_max":0,"o":"m 308 -14 b 578 238 486 -14 578 79 l 578 313 b 376 581 578 469 471 531 b 221 733 294 622 221 657 l 221 761 b 304 860 221 821 243 860 b 389 765 365 860 389 829 l 389 668 l 565 668 l 565 776 b 304 1010 565 921 482 1010 b 40 763 128 1010 40 915 l 40 721 b 240 457 40 567 144 507 b 399 293 322 414 399 375 l 399 242 b 311 146 399 186 376 146 b 217 247 239 146 217 185 l 217 378 l 31 378 l 31 244 b 308 -14 31 75 103 -14 z m 242 1081 l 357 1081 l 490 1310 l 363 1310 l 300 1194 l 240 1310 l 108 1310 z "},"Ş":{"ha":613,"x_min":0,"x_max":0,"o":"m 311 -337 b 500 -192 429 -337 500 -286 b 363 -69 500 -112 450 -75 l 363 -11 b 578 238 504 7 578 96 l 578 313 b 376 581 578 469 471 531 b 221 733 294 622 221 657 l 221 761 b 304 860 221 821 243 860 b 389 765 365 860 389 829 l 389 668 l 565 668 l 565 776 b 304 1010 565 921 482 1010 b 40 763 128 1010 40 915 l 40 721 b 240 457 40 567 144 507 b 399 293 322 414 399 375 l 399 242 b 311 146 399 186 376 146 b 217 247 239 146 217 185 l 217 378 l 31 378 l 31 244 b 247 -11 31 93 89 6 l 247 -153 l 313 -153 b 374 -192 354 -153 374 -167 b 314 -235 374 -219 354 -235 b 247 -187 275 -235 253 -221 l 107 -187 b 311 -337 125 -289 185 -337 z "},"Ŝ":{"ha":613,"x_min":0,"x_max":0,"o":"m 308 -14 b 578 238 486 -14 578 79 l 578 313 b 376 581 578 469 471 531 b 221 733 294 622 221 657 l 221 761 b 304 860 221 821 243 860 b 389 765 365 860 389 829 l 389 668 l 565 668 l 565 776 b 304 1010 565 921 482 1010 b 40 763 128 1010 40 915 l 40 721 b 240 457 40 567 144 507 b 399 293 322 414 399 375 l 399 242 b 311 146 399 186 376 146 b 217 247 239 146 217 185 l 217 378 l 31 378 l 31 244 b 308 -14 31 75 103 -14 z m 111 1082 l 240 1082 l 301 1197 l 363 1082 l 496 1082 l 360 1311 l 244 1311 z "},"Ș":{"ha":613,"x_min":0,"x_max":0,"o":"m 308 -14 b 578 238 486 -14 578 79 l 578 313 b 376 581 578 469 471 531 b 221 733 294 622 221 657 l 221 761 b 304 860 221 821 243 860 b 389 765 365 860 389 829 l 389 668 l 565 668 l 565 776 b 304 1010 565 921 482 1010 b 40 763 128 1010 40 915 l 40 721 b 240 457 40 567 144 507 b 399 293 322 414 399 375 l 399 242 b 311 146 399 186 376 146 b 217 247 239 146 217 185 l 217 378 l 31 378 l 31 244 b 308 -14 31 75 103 -14 z m 232 -311 l 232 -392 b 392 -192 340 -385 392 -310 b 304 -72 392 -100 371 -72 b 217 -162 240 -72 217 -96 b 289 -246 217 -232 238 -246 l 300 -246 b 232 -311 294 -287 275 -308 z "},"Ŧ":{"ha":563,"x_min":0,"x_max":0,"o":"m 93 554 l 93 404 l 192 404 l 192 0 l 371 0 l 371 404 l 465 404 l 465 554 l 371 554 l 371 832 l 535 832 l 535 996 l 26 996 l 26 832 l 192 832 l 192 554 z "},"Ť":{"ha":563,"x_min":0,"x_max":0,"o":"m 192 0 l 371 0 l 371 832 l 533 832 l 533 996 l 26 996 l 26 832 l 192 832 z m 222 1065 l 338 1065 l 471 1294 l 343 1294 l 281 1179 l 221 1294 l 89 1294 z "},"Ţ":{"ha":563,"x_min":0,"x_max":0,"o":"m 192 0 l 225 0 l 225 -136 l 290 -136 b 351 -175 332 -136 351 -150 b 292 -218 351 -203 332 -218 b 225 -171 253 -218 231 -204 l 85 -171 b 289 -321 103 -272 163 -321 b 478 -175 407 -321 478 -269 b 340 -53 478 -96 428 -58 l 340 0 l 371 0 l 371 832 l 533 832 l 533 996 l 26 996 l 26 832 l 192 832 z "},"Ț":{"ha":563,"x_min":0,"x_max":0,"o":"m 192 0 l 371 0 l 371 832 l 533 832 l 533 996 l 26 996 l 26 832 l 192 832 z m 214 -294 l 214 -375 b 374 -175 322 -368 374 -293 b 286 -56 374 -83 353 -56 b 199 -146 222 -56 199 -79 b 271 -229 199 -215 219 -229 l 282 -229 b 214 -294 276 -271 257 -292 z "},"Ú":{"ha":660,"x_min":0,"x_max":0,"o":"m 331 -14 b 601 283 504 -14 601 76 l 601 996 l 421 996 l 421 294 b 331 158 421 196 396 158 b 239 294 265 158 239 197 l 239 996 l 58 996 l 58 283 b 331 -14 58 76 149 -14 z m 263 1063 l 392 1063 l 563 1278 l 388 1278 z "},"Ʉ":{"ha":672,"x_min":0,"x_max":0,"o":"m 338 -14 b 607 283 510 -14 607 76 l 607 485 l 682 485 l 682 633 l 607 633 l 607 996 l 426 996 l 426 633 l 246 633 l 246 996 l 65 996 l 65 633 l -10 633 l -10 485 l 65 485 l 65 283 b 338 -14 65 76 156 -14 z m 246 294 l 246 485 l 426 485 l 426 294 b 338 158 426 196 403 158 b 246 294 272 158 246 197 z "},"Ŭ":{"ha":660,"x_min":0,"x_max":0,"o":"m 331 -14 b 601 283 504 -14 601 76 l 601 996 l 421 996 l 421 294 b 331 158 421 196 396 158 b 239 294 265 158 239 197 l 239 996 l 58 996 l 58 283 b 331 -14 58 76 149 -14 z m 328 1061 b 522 1275 463 1061 522 1131 l 403 1275 b 328 1174 403 1200 382 1175 b 254 1275 272 1175 254 1201 l 135 1275 b 328 1061 135 1131 183 1061 z "},"Ǔ":{"ha":660,"x_min":0,"x_max":0,"o":"m 331 -14 b 601 283 504 -14 601 76 l 601 996 l 421 996 l 421 294 b 331 158 421 196 396 158 b 239 294 265 158 239 197 l 239 996 l 58 996 l 58 283 b 331 -14 58 76 149 -14 z m 271 1063 l 386 1063 l 519 1292 l 392 1292 l 329 1176 l 269 1292 l 138 1292 z "},"Û":{"ha":660,"x_min":0,"x_max":0,"o":"m 331 -14 b 601 283 504 -14 601 76 l 601 996 l 421 996 l 421 294 b 331 158 421 196 396 158 b 239 294 265 158 239 197 l 239 996 l 58 996 l 58 283 b 331 -14 58 76 149 -14 z m 140 1063 l 269 1063 l 331 1178 l 392 1063 l 525 1063 l 389 1292 l 274 1292 z "},"Ü":{"ha":660,"x_min":0,"x_max":0,"o":"m 331 -14 b 601 283 504 -14 601 76 l 601 996 l 421 996 l 421 294 b 331 158 421 196 396 158 b 239 294 265 158 239 197 l 239 996 l 58 996 l 58 283 b 331 -14 58 76 149 -14 z m 225 1060 b 307 1149 285 1060 307 1083 b 225 1239 307 1217 285 1239 b 144 1149 168 1239 144 1217 b 225 1060 144 1078 164 1060 z m 433 1060 b 515 1149 492 1060 515 1083 b 433 1239 515 1217 492 1239 b 353 1149 374 1239 353 1217 b 433 1060 353 1078 371 1060 z "},"Ǘ":{"ha":660,"x_min":0,"x_max":0,"o":"m 331 -14 b 601 283 504 -14 601 76 l 601 996 l 421 996 l 421 294 b 331 158 421 196 396 158 b 239 294 265 158 239 197 l 239 996 l 58 996 l 58 283 b 331 -14 58 76 149 -14 z m 267 1226 l 378 1226 l 467 1404 l 325 1404 z m 222 1042 b 303 1121 281 1042 303 1064 b 222 1204 303 1182 281 1204 b 140 1121 163 1204 140 1182 b 222 1042 140 1061 160 1042 z m 435 1042 b 517 1121 494 1042 517 1064 b 435 1204 517 1182 493 1204 b 354 1121 375 1204 354 1182 b 435 1042 354 1061 372 1042 z "},"Ǚ":{"ha":660,"x_min":0,"x_max":0,"o":"m 331 -14 b 601 283 504 -14 601 76 l 601 996 l 421 996 l 421 294 b 331 158 421 196 396 158 b 239 294 265 158 239 197 l 239 996 l 58 996 l 58 283 b 331 -14 58 76 149 -14 z m 118 1407 l 265 1226 l 386 1226 l 535 1407 l 394 1407 l 325 1321 l 253 1407 z m 225 1042 b 306 1121 283 1042 306 1064 b 225 1204 306 1182 283 1204 b 143 1121 165 1204 143 1182 b 225 1042 143 1061 163 1042 z m 438 1042 b 519 1121 497 1042 519 1064 b 438 1204 519 1182 496 1204 b 357 1121 378 1204 357 1182 b 438 1042 357 1061 375 1042 z "},"Ǜ":{"ha":660,"x_min":0,"x_max":0,"o":"m 331 -14 b 601 283 504 -14 601 76 l 601 996 l 421 996 l 421 294 b 331 158 421 196 396 158 b 239 294 265 158 239 197 l 239 996 l 58 996 l 58 283 b 331 -14 58 76 149 -14 z m 394 1226 l 336 1404 l 192 1404 l 281 1226 z m 225 1042 b 306 1119 285 1042 306 1064 b 225 1204 306 1182 283 1204 b 143 1119 165 1204 143 1182 b 225 1042 143 1063 164 1042 z m 438 1042 b 519 1119 496 1042 519 1063 b 438 1204 519 1182 496 1204 b 357 1119 378 1204 357 1182 b 438 1042 357 1063 376 1042 z "},"Ǖ":{"ha":660,"x_min":0,"x_max":0,"o":"m 331 -14 b 601 283 504 -14 601 76 l 601 996 l 421 996 l 421 294 b 331 158 421 196 396 158 b 239 294 265 158 239 197 l 239 996 l 58 996 l 58 283 b 331 -14 58 76 149 -14 z m 160 1233 l 493 1233 l 493 1346 l 160 1346 z m 225 1042 b 306 1121 285 1042 306 1063 b 225 1204 306 1182 283 1204 b 143 1121 165 1204 143 1182 b 225 1042 143 1063 164 1042 z m 438 1042 b 519 1121 499 1042 519 1063 b 438 1204 519 1182 496 1204 b 357 1121 378 1204 357 1182 b 438 1042 357 1063 376 1042 z "},"Ụ":{"ha":660,"x_min":0,"x_max":0,"o":"m 331 -14 b 601 283 504 -14 601 76 l 601 996 l 421 996 l 421 294 b 331 158 421 196 396 158 b 239 294 265 158 239 197 l 239 996 l 58 996 l 58 283 b 331 -14 58 76 149 -14 z m 328 -299 b 425 -196 397 -299 425 -276 b 328 -93 425 -115 394 -93 b 231 -196 258 -93 231 -115 b 328 -299 231 -279 253 -299 z "},"Ù":{"ha":660,"x_min":0,"x_max":0,"o":"m 331 -14 b 601 283 504 -14 601 76 l 601 996 l 421 996 l 421 294 b 331 158 421 196 396 158 b 239 294 265 158 239 197 l 239 996 l 58 996 l 58 283 b 331 -14 58 76 149 -14 z m 272 1063 l 393 1063 l 288 1278 l 114 1278 z "},"Ủ":{"ha":660,"x_min":0,"x_max":0,"o":"m 331 -14 b 601 283 504 -14 601 76 l 601 996 l 421 996 l 421 294 b 331 158 421 196 396 158 b 239 294 265 158 239 197 l 239 996 l 58 996 l 58 283 b 331 -14 58 76 149 -14 z m 418 1110 b 493 1211 474 1136 493 1164 b 331 1325 493 1285 435 1325 b 163 1182 218 1325 163 1279 l 281 1182 b 329 1226 281 1213 293 1226 b 368 1206 356 1226 368 1217 b 328 1171 368 1190 357 1185 b 268 1061 285 1150 268 1128 l 382 1061 b 418 1110 382 1088 389 1094 z "},"Ư":{"ha":660,"x_min":0,"x_max":0,"o":"m 331 -14 b 601 283 504 -14 601 76 l 601 933 b 704 1078 678 947 704 990 l 704 1151 l 550 1151 l 550 1074 b 475 996 550 1011 535 996 l 421 996 l 421 294 b 331 158 421 196 396 158 b 239 294 265 158 239 197 l 239 996 l 58 996 l 58 283 b 331 -14 58 76 149 -14 z "},"Ứ":{"ha":660,"x_min":0,"x_max":0,"o":"m 331 -14 b 601 283 504 -14 601 76 l 601 933 b 704 1078 678 947 704 990 l 704 1151 l 550 1151 l 550 1074 b 475 996 550 1011 535 996 l 421 996 l 421 294 b 331 158 421 196 396 158 b 239 294 265 158 239 197 l 239 996 l 58 996 l 58 283 b 331 -14 58 76 149 -14 z m 261 1060 l 390 1060 l 561 1275 l 386 1275 z "},"Ự":{"ha":660,"x_min":0,"x_max":0,"o":"m 331 -14 b 601 283 504 -14 601 76 l 601 933 b 704 1078 678 947 704 990 l 704 1151 l 550 1151 l 550 1074 b 475 996 550 1011 535 996 l 421 996 l 421 294 b 331 158 421 196 396 158 b 239 294 265 158 239 197 l 239 996 l 58 996 l 58 283 b 331 -14 58 76 149 -14 z m 328 -296 b 425 -193 397 -296 425 -274 b 328 -90 425 -112 394 -90 b 231 -193 258 -90 231 -112 b 328 -296 231 -276 253 -296 z "},"Ừ":{"ha":660,"x_min":0,"x_max":0,"o":"m 331 -14 b 601 283 504 -14 601 76 l 601 933 b 704 1078 678 947 704 990 l 704 1151 l 550 1151 l 550 1074 b 475 996 550 1011 535 996 l 421 996 l 421 294 b 331 158 421 196 396 158 b 239 294 265 158 239 197 l 239 996 l 58 996 l 58 283 b 331 -14 58 76 149 -14 z m 286 1060 l 407 1060 l 301 1275 l 128 1275 z "},"Ử":{"ha":660,"x_min":0,"x_max":0,"o":"m 421 1106 b 496 1208 476 1133 496 1163 b 333 1324 496 1282 438 1324 b 165 1181 221 1324 165 1278 l 283 1181 b 332 1225 283 1210 296 1225 b 371 1203 358 1225 371 1217 b 329 1169 371 1189 360 1182 b 271 1058 288 1150 271 1125 l 385 1058 b 421 1106 385 1086 392 1093 z m 331 -14 b 601 283 504 -14 601 76 l 601 933 b 704 1078 678 947 704 990 l 704 1151 l 550 1151 l 550 1074 b 475 996 550 1011 535 996 l 421 996 l 421 294 b 331 158 421 196 396 158 b 239 294 265 158 239 197 l 239 996 l 58 996 l 58 283 b 331 -14 58 76 149 -14 z "},"Ữ":{"ha":660,"x_min":0,"x_max":0,"o":"m 119 1067 l 235 1067 b 264 1115 235 1099 243 1115 b 406 1063 300 1115 329 1063 b 518 1247 482 1063 517 1113 l 403 1247 b 375 1196 403 1213 394 1196 b 236 1251 336 1196 310 1251 b 119 1067 160 1251 121 1197 z m 331 -14 b 601 283 504 -14 601 76 l 601 933 b 704 1078 678 947 704 990 l 704 1151 l 550 1151 l 550 1074 b 475 996 550 1011 535 996 l 421 996 l 421 294 b 331 158 421 196 396 158 b 239 294 265 158 239 197 l 239 996 l 58 996 l 58 283 b 331 -14 58 76 149 -14 z "},"Ű":{"ha":660,"x_min":0,"x_max":0,"o":"m 331 -14 b 601 283 504 -14 601 76 l 601 996 l 421 996 l 421 294 b 331 158 421 196 396 158 b 239 294 265 158 239 197 l 239 996 l 58 996 l 58 283 b 331 -14 58 76 149 -14 z m 272 1278 l 181 1063 l 285 1063 l 419 1278 z m 464 1278 l 365 1063 l 469 1063 l 617 1278 z "},"Ū":{"ha":660,"x_min":0,"x_max":0,"o":"m 331 -14 b 601 283 504 -14 601 76 l 601 996 l 421 996 l 421 294 b 331 158 421 196 396 158 b 239 294 265 158 239 197 l 239 996 l 58 996 l 58 283 b 331 -14 58 76 149 -14 z m 176 1072 l 483 1072 l 483 1199 l 176 1199 z "},"Ų":{"ha":660,"x_min":0,"x_max":0,"o":"m 347 -274 b 547 -114 457 -274 522 -224 l 404 -114 b 354 -164 400 -147 381 -164 b 313 -128 328 -164 313 -153 b 438 0 313 -99 329 -76 b 601 283 543 33 601 124 l 601 996 l 421 996 l 421 294 b 331 158 421 196 396 158 b 239 294 265 158 239 197 l 239 996 l 58 996 l 58 283 b 247 -6 58 111 121 19 b 179 -139 194 -53 179 -94 b 347 -274 179 -228 239 -274 z "},"Ů":{"ha":660,"x_min":0,"x_max":0,"o":"m 331 -14 b 601 283 504 -14 601 76 l 601 996 l 421 996 l 421 294 b 331 158 421 196 396 158 b 239 294 265 158 239 197 l 239 996 l 58 996 l 58 283 b 331 -14 58 76 149 -14 z m 326 1064 b 485 1211 424 1064 485 1118 b 326 1360 485 1306 422 1360 b 168 1210 235 1360 168 1306 b 326 1064 168 1114 231 1064 z m 326 1167 b 281 1211 296 1167 281 1185 b 326 1258 281 1239 297 1258 b 372 1211 357 1258 372 1239 b 326 1167 372 1183 353 1167 z "},"Ũ":{"ha":660,"x_min":0,"x_max":0,"o":"m 331 -14 b 601 283 504 -14 601 76 l 601 996 l 421 996 l 421 294 b 331 158 421 196 396 158 b 239 294 265 158 239 197 l 239 996 l 58 996 l 58 283 b 331 -14 58 76 149 -14 z m 115 1067 l 225 1067 b 256 1121 225 1104 235 1121 b 417 1061 301 1121 336 1061 b 540 1244 501 1061 539 1111 l 429 1244 b 399 1192 429 1206 421 1192 b 238 1251 357 1192 319 1251 b 115 1067 153 1251 117 1199 z "},"Ẃ":{"ha":936,"x_min":0,"x_max":0,"o":"m 176 0 l 340 0 l 453 554 l 464 703 l 474 554 l 579 0 l 743 0 l 917 996 l 747 996 l 661 442 l 649 247 l 632 431 l 525 996 l 407 996 l 293 431 l 274 258 l 268 442 l 192 996 l 19 996 z m 397 1065 l 526 1065 l 697 1281 l 522 1281 z "},"Ŵ":{"ha":936,"x_min":0,"x_max":0,"o":"m 176 0 l 340 0 l 453 554 l 464 703 l 474 554 l 579 0 l 743 0 l 917 996 l 747 996 l 661 442 l 649 247 l 632 431 l 525 996 l 407 996 l 293 431 l 274 258 l 268 442 l 192 996 l 19 996 z m 275 1065 l 404 1065 l 465 1181 l 526 1065 l 660 1065 l 524 1294 l 408 1294 z "},"Ẅ":{"ha":936,"x_min":0,"x_max":0,"o":"m 176 0 l 340 0 l 453 554 l 464 703 l 474 554 l 579 0 l 743 0 l 917 996 l 747 996 l 661 442 l 649 247 l 632 431 l 525 996 l 407 996 l 293 431 l 274 258 l 268 442 l 192 996 l 19 996 z m 361 1063 b 443 1151 421 1063 443 1086 b 361 1242 443 1219 421 1242 b 281 1151 304 1242 281 1219 b 361 1063 281 1081 300 1063 z m 569 1063 b 651 1151 628 1063 651 1086 b 569 1242 651 1219 628 1242 b 489 1151 510 1242 489 1219 b 569 1063 489 1081 507 1063 z "},"Ẁ":{"ha":936,"x_min":0,"x_max":0,"o":"m 176 0 l 340 0 l 453 554 l 464 703 l 474 554 l 579 0 l 743 0 l 917 996 l 747 996 l 661 442 l 649 247 l 632 431 l 525 996 l 407 996 l 293 431 l 274 258 l 268 442 l 192 996 l 19 996 z m 407 1065 l 528 1065 l 422 1281 l 249 1281 z "},"Ẋ":{"ha":642,"x_min":0,"x_max":0,"o":"m 4 0 l 201 0 l 315 318 l 321 364 l 329 319 l 446 0 l 636 0 l 419 524 l 617 996 l 431 996 l 328 713 l 321 668 l 315 713 l 214 996 l 25 996 l 219 524 z m 319 1058 b 417 1160 389 1058 417 1081 b 319 1263 417 1242 388 1263 b 222 1160 250 1263 222 1242 b 319 1058 222 1078 244 1058 z "},"Ý":{"ha":599,"x_min":0,"x_max":0,"o":"m 204 0 l 389 0 l 389 357 l 599 996 l 414 996 l 308 635 l 297 553 l 288 635 l 188 996 l 1 996 l 204 357 z m 235 1061 l 364 1061 l 535 1276 l 360 1276 z "},"Ŷ":{"ha":599,"x_min":0,"x_max":0,"o":"m 204 0 l 389 0 l 389 357 l 599 996 l 414 996 l 308 635 l 297 553 l 288 635 l 188 996 l 1 996 l 204 357 z m 113 1061 l 242 1061 l 303 1176 l 364 1061 l 497 1061 l 361 1290 l 246 1290 z "},"Ÿ":{"ha":599,"x_min":0,"x_max":0,"o":"m 204 0 l 389 0 l 389 357 l 599 996 l 414 996 l 308 635 l 297 553 l 288 635 l 188 996 l 1 996 l 204 357 z m 196 1058 b 278 1147 256 1058 278 1082 b 196 1238 278 1215 256 1238 b 115 1147 139 1238 115 1215 b 196 1058 115 1076 135 1058 z m 404 1058 b 486 1147 463 1058 486 1082 b 404 1238 486 1215 463 1238 b 324 1147 344 1238 324 1215 b 404 1058 324 1076 342 1058 z "},"Ỵ":{"ha":599,"x_min":0,"x_max":0,"o":"m 204 0 l 389 0 l 389 357 l 599 996 l 414 996 l 308 635 l 297 553 l 288 635 l 188 996 l 1 996 l 204 357 z m 300 -282 b 397 -179 369 -282 397 -260 b 300 -76 397 -99 367 -76 b 203 -179 231 -76 203 -99 b 300 -282 203 -262 225 -282 z "},"Ỳ":{"ha":599,"x_min":0,"x_max":0,"o":"m 204 0 l 389 0 l 389 357 l 599 996 l 414 996 l 308 635 l 297 553 l 288 635 l 188 996 l 1 996 l 204 357 z m 244 1061 l 365 1061 l 260 1276 l 86 1276 z "},"Ỷ":{"ha":599,"x_min":0,"x_max":0,"o":"m 204 0 l 389 0 l 389 357 l 599 996 l 414 996 l 308 635 l 297 553 l 288 635 l 188 996 l 1 996 l 204 357 z m 390 1107 b 465 1208 446 1133 465 1161 b 303 1322 465 1282 407 1322 b 135 1179 190 1322 135 1276 l 253 1179 b 301 1224 253 1210 265 1224 b 340 1203 328 1224 340 1214 b 300 1168 340 1188 329 1182 b 240 1058 257 1147 240 1125 l 354 1058 b 390 1107 354 1085 361 1092 z "},"Ȳ":{"ha":599,"x_min":0,"x_max":0,"o":"m 204 0 l 389 0 l 389 357 l 599 996 l 414 996 l 308 635 l 297 553 l 288 635 l 188 996 l 1 996 l 204 357 z m 149 1071 l 456 1071 l 456 1197 l 149 1197 z "},"Ỹ":{"ha":599,"x_min":0,"x_max":0,"o":"m 204 0 l 389 0 l 389 357 l 599 996 l 414 996 l 308 635 l 297 553 l 288 635 l 188 996 l 1 996 l 204 357 z m 86 1065 l 196 1065 b 226 1119 196 1103 206 1119 b 388 1060 272 1119 307 1060 b 511 1243 472 1060 510 1110 l 400 1243 b 369 1190 400 1204 392 1190 b 208 1250 328 1190 290 1250 b 86 1065 124 1250 88 1197 z "},"Ź":{"ha":590,"x_min":0,"x_max":0,"o":"m 42 0 l 550 0 l 550 174 l 244 174 l 546 840 l 546 996 l 60 996 l 60 825 l 350 825 l 42 150 z m 231 1065 l 360 1065 l 531 1281 l 356 1281 z "},"Ž":{"ha":590,"x_min":0,"x_max":0,"o":"m 42 0 l 550 0 l 550 174 l 244 174 l 546 840 l 546 996 l 60 996 l 60 825 l 350 825 l 42 150 z m 239 1065 l 354 1065 l 488 1294 l 360 1294 l 297 1179 l 238 1294 l 106 1294 z "},"Ż":{"ha":590,"x_min":0,"x_max":0,"o":"m 42 0 l 550 0 l 550 174 l 244 174 l 546 840 l 546 996 l 60 996 l 60 825 l 350 825 l 42 150 z m 297 1064 b 394 1165 367 1064 394 1086 b 297 1268 394 1247 365 1268 b 200 1165 228 1268 200 1247 b 297 1064 200 1083 222 1064 z "},"Ƶ":{"ha":590,"x_min":0,"x_max":0,"o":"m 42 0 l 550 0 l 550 174 l 244 174 l 361 431 l 521 431 l 521 579 l 428 579 l 546 840 l 546 996 l 60 996 l 60 825 l 350 825 l 240 586 l 79 586 l 79 438 l 172 438 l 42 150 z "},"Þ":{"ha":640,"x_min":0,"x_max":0,"o":"m 65 996 l 65 0 l 240 0 l 240 169 l 332 169 b 606 422 522 169 606 263 l 606 590 b 329 836 606 756 519 836 l 240 836 l 240 996 z m 322 682 b 426 588 390 682 426 658 l 426 425 b 322 326 426 356 390 326 l 240 326 l 240 682 z "},"ẞ":{"ha":672,"x_min":0,"x_max":0,"o":"m 64 996 l 64 -3 l 243 -3 l 243 843 l 422 843 l 315 557 l 315 447 l 349 447 b 457 338 424 447 457 425 l 457 243 b 364 135 457 167 425 135 b 304 143 343 135 325 139 l 304 1 b 413 -14 332 -7 367 -14 b 638 236 564 -14 638 78 l 638 346 b 486 567 638 478 588 549 l 601 849 l 601 996 z "},"Ə":{"ha":669,"x_min":0,"x_max":0,"o":"m 43 283 b 331 -14 43 88 136 -14 b 618 307 518 -14 618 96 l 618 696 b 336 1008 618 906 525 1008 b 46 717 138 1008 46 899 l 46 651 l 233 651 l 233 717 b 336 856 233 797 257 856 b 435 717 406 856 435 811 l 435 544 l 43 544 z m 226 286 l 226 400 l 435 400 l 435 300 b 331 146 435 194 404 146 b 226 286 253 146 226 193 z "},"Ɣ":{"ha":651,"x_min":0,"x_max":0,"o":"m 325 -308 b 519 -136 456 -308 519 -228 b 450 68 519 -76 497 -28 l 638 996 l 443 996 l 349 449 l 325 267 l 300 449 l 207 996 l 14 996 l 197 67 b 128 -136 154 -22 128 -69 b 325 -308 128 -228 189 -308 z m 294 -115 b 322 -18 294 -96 303 -71 b 354 -115 343 -68 354 -96 b 322 -150 354 -135 343 -150 b 294 -115 304 -150 294 -133 z "},"Ɛ":{"ha":643,"x_min":0,"x_max":0,"o":"m 599 364 l 415 364 l 415 247 b 321 146 415 181 389 146 b 228 246 253 146 228 181 l 228 340 b 324 432 228 407 254 432 l 419 432 l 419 592 l 321 592 b 231 689 256 592 231 621 l 231 749 b 321 850 231 815 254 850 b 413 747 386 850 413 814 l 413 656 l 594 656 l 594 747 b 324 1008 594 915 511 1008 b 49 754 131 1008 49 921 l 49 699 b 161 519 49 604 78 546 b 43 343 76 494 43 438 l 43 244 b 319 -14 43 75 122 -14 b 599 244 518 -14 599 75 z "},"a":{"ha":622,"x_min":0,"x_max":0,"o":"m 224 -12 b 403 104 310 -12 371 28 l 428 0 l 568 0 l 568 579 b 313 817 568 738 490 817 b 54 589 139 817 54 726 l 54 503 l 228 503 l 228 586 b 314 676 228 644 257 676 b 394 590 369 676 394 649 l 394 572 b 279 468 394 517 371 501 b 101 386 192 438 144 422 b 36 231 61 349 36 301 l 36 185 b 224 -12 36 57 93 -12 z m 297 126 b 221 203 249 126 221 156 l 221 238 b 246 326 221 283 228 308 b 329 378 261 347 285 361 b 394 414 364 390 383 400 l 394 260 b 297 126 394 179 358 126 z "},"b":{"ha":644,"x_min":0,"x_max":0,"o":"m 386 -11 b 594 299 524 -11 594 85 l 594 524 b 390 817 594 731 518 817 b 233 697 308 817 258 775 l 233 1042 l 60 1042 l 60 0 l 208 0 l 225 122 b 386 -11 244 42 292 -11 z m 325 143 b 233 283 265 143 233 189 l 233 522 b 328 665 233 606 264 665 b 418 526 389 665 418 622 l 418 292 b 325 143 418 183 388 143 z "},"c":{"ha":619,"x_min":0,"x_max":0,"o":"m 310 -14 b 576 256 486 -14 576 74 l 576 357 l 394 357 l 394 261 b 311 143 394 179 374 143 b 225 267 250 143 225 181 l 225 535 b 314 665 225 629 251 665 b 394 542 376 665 394 632 l 394 468 l 576 468 l 576 544 b 319 818 576 726 490 818 b 49 538 146 818 49 726 l 49 263 b 310 -14 49 76 131 -14 z "},"d":{"ha":644,"x_min":0,"x_max":0,"o":"m 253 -11 b 418 119 350 -11 397 42 l 438 0 l 585 0 l 585 1042 l 410 1042 l 410 708 b 258 817 386 778 339 817 b 49 524 132 817 49 731 l 49 297 b 253 -11 49 83 117 -11 z m 315 142 b 225 293 258 142 225 182 l 225 522 b 319 665 225 621 254 665 b 411 522 383 665 411 607 l 411 281 b 315 142 411 189 376 142 z "},"e":{"ha":622,"x_min":0,"x_max":0,"o":"m 317 -14 b 582 258 533 -12 582 107 l 582 279 l 406 279 l 406 254 b 319 140 406 183 386 140 b 222 265 249 140 222 176 l 222 353 l 582 353 l 582 542 b 317 818 582 706 504 818 b 50 536 153 818 50 715 l 50 265 b 317 -14 50 82 131 -15 z m 222 536 b 319 668 222 625 251 668 b 410 543 389 668 410 625 l 410 475 l 222 475 z "},"f":{"ha":414,"x_min":0,"x_max":0,"o":"m 15 807 l 15 647 l 107 647 l 107 0 l 279 0 l 279 647 l 396 647 l 396 807 l 279 807 l 279 850 b 347 931 279 913 292 931 l 396 931 l 396 1085 l 319 1085 b 107 865 171 1085 107 1025 l 107 807 z "},"g":{"ha":621,"x_min":0,"x_max":0,"o":"m 32 126 b 160 -1 32 54 72 11 b 26 -132 74 -22 26 -72 b 282 -271 26 -215 97 -271 l 299 -271 b 615 -51 526 -271 615 -171 l 615 -49 b 376 140 615 72 540 140 l 264 140 b 178 174 196 139 178 151 b 282 213 178 200 200 213 l 313 213 b 572 439 482 213 572 289 l 572 594 b 411 788 572 701 517 774 b 397 789 406 788 401 789 b 575 949 536 792 576 838 l 576 965 l 392 965 l 392 918 b 278 815 392 847 368 831 b 260 811 272 814 268 813 b 54 589 131 789 54 722 l 54 440 b 164 260 54 343 88 286 b 32 126 75 242 32 197 z m 313 342 b 231 429 261 342 231 369 l 231 599 b 292 688 231 649 253 679 b 315 690 300 690 307 690 b 394 600 372 690 396 654 l 394 431 b 313 342 394 374 365 342 z m 288 -132 b 189 -81 224 -132 190 -110 l 189 -76 b 292 -4 189 -39 236 -7 l 358 -4 b 446 -58 421 -4 446 -28 l 446 -62 b 319 -132 446 -100 404 -132 z "},"h":{"ha":638,"x_min":0,"x_max":0,"o":"m 60 0 l 235 0 l 235 532 b 325 660 235 614 263 660 b 401 546 385 660 401 619 l 401 0 l 581 0 l 581 575 b 396 817 581 735 518 817 b 235 690 307 817 257 769 l 235 1042 l 60 1042 z "},"i":{"ha":301,"x_min":0,"x_max":0,"o":"m 153 853 b 257 956 225 853 257 876 b 153 1058 257 1035 225 1058 b 49 956 78 1058 49 1035 b 153 853 49 875 74 853 z m 60 0 l 242 0 l 242 804 b 151 790 221 797 190 790 b 60 804 110 790 81 796 z "},"j":{"ha":303,"x_min":0,"x_max":0,"o":"m 153 853 b 257 956 226 853 257 876 b 153 1058 257 1035 228 1058 b 49 956 78 1058 49 1035 b 153 853 49 875 75 853 z m -50 -274 l 26 -274 b 243 -58 192 -274 243 -222 l 243 804 b 153 792 221 797 194 792 b 63 804 113 792 83 796 l 63 -31 b -3 -104 63 -92 51 -104 l -50 -104 z "},"k":{"ha":621,"x_min":0,"x_max":0,"o":"m 297 379 l 432 0 l 618 0 l 428 503 l 611 807 l 415 807 l 253 529 l 229 476 l 232 528 l 232 1042 l 60 1042 l 60 0 l 232 0 l 232 288 l 293 404 z "},"l":{"ha":297,"x_min":0,"x_max":0,"o":"m 60 1042 l 60 0 l 235 0 l 235 1042 z "},"m":{"ha":951,"x_min":0,"x_max":0,"o":"m 60 0 l 235 0 l 235 538 b 315 665 235 617 256 665 b 389 554 374 665 389 622 l 389 0 l 565 0 l 565 550 b 644 665 565 617 586 665 b 719 551 700 665 719 625 l 719 0 l 897 0 l 897 582 b 708 821 897 742 836 821 b 550 700 628 821 575 775 b 386 821 529 778 476 821 b 222 696 303 821 247 774 l 204 807 l 60 807 z "},"n":{"ha":639,"x_min":0,"x_max":0,"o":"m 60 0 l 238 0 l 238 532 b 328 658 238 614 264 658 b 406 546 388 658 406 619 l 406 0 l 585 0 l 585 575 b 393 817 585 735 522 817 b 225 690 306 817 250 769 l 206 807 l 60 807 z "},"o":{"ha":631,"x_min":0,"x_max":0,"o":"m 314 -14 b 582 263 488 -14 582 76 l 582 538 b 314 818 582 724 485 818 b 49 538 150 818 49 725 l 49 263 b 314 -14 49 75 136 -14 z m 315 143 b 225 267 256 143 225 183 l 225 536 b 315 665 225 625 254 665 b 404 536 378 665 404 624 l 404 267 b 315 143 404 183 374 143 z "},"p":{"ha":642,"x_min":0,"x_max":0,"o":"m 60 -257 l 233 -257 l 233 107 b 386 -11 253 31 299 -11 b 594 290 515 -10 593 74 l 594 510 b 388 817 594 729 522 817 b 225 688 300 817 247 769 l 204 807 l 60 807 z m 324 142 b 233 274 263 142 233 189 l 233 525 b 326 665 233 615 261 665 b 417 518 388 665 417 628 l 417 278 b 324 142 417 181 386 142 z "},"q":{"ha":644,"x_min":0,"x_max":0,"o":"m 410 -257 l 585 -257 l 585 807 l 438 807 l 419 697 b 260 817 399 771 350 817 b 49 511 118 817 49 722 l 49 272 b 251 -11 49 63 124 -11 b 410 110 338 -11 388 26 z m 317 139 b 225 278 258 139 225 182 l 225 521 b 319 664 225 626 258 664 b 411 518 382 664 411 613 l 411 275 b 317 139 411 190 376 139 z "},"r":{"ha":426,"x_min":0,"x_max":0,"o":"m 60 0 l 235 0 l 235 468 b 358 615 235 579 256 615 l 407 615 l 407 815 l 381 815 b 215 665 267 815 225 782 l 189 807 l 60 807 z "},"s":{"ha":579,"x_min":0,"x_max":0,"o":"m 289 -14 b 550 222 464 -14 550 79 l 550 243 b 349 482 550 394 443 444 b 211 589 276 511 211 533 l 211 599 b 290 676 211 644 235 676 b 369 596 346 676 369 647 l 369 542 l 539 542 l 539 603 b 289 818 539 733 461 818 b 38 596 119 818 38 724 l 38 582 b 231 356 38 436 139 390 b 376 233 307 326 376 304 l 376 222 b 292 138 376 168 350 138 b 208 222 232 138 208 164 l 208 293 l 28 293 l 28 211 b 289 -14 28 63 104 -14 z "},"t":{"ha":426,"x_min":0,"x_max":0,"o":"m 107 242 b 324 0 107 51 157 0 l 399 0 l 399 169 l 365 169 b 275 281 296 169 275 182 l 275 636 l 399 636 l 399 807 l 275 807 l 275 958 l 147 958 b 129 871 143 921 140 897 b 83 811 119 842 106 824 b 17 796 63 800 42 797 l 17 636 l 107 636 z "},"u":{"ha":631,"x_min":0,"x_max":0,"o":"m 247 -11 b 406 115 333 -11 383 33 l 426 0 l 571 0 l 571 807 l 393 807 l 393 275 b 311 146 393 193 369 146 b 236 260 253 146 236 188 l 236 807 l 57 807 l 57 229 b 247 -11 57 67 117 -11 z "},"v":{"ha":585,"x_min":0,"x_max":0,"o":"m 203 0 l 378 0 l 579 807 l 401 807 l 306 350 l 290 196 l 278 350 l 183 807 l 6 807 z "},"w":{"ha":861,"x_min":0,"x_max":0,"o":"m 146 0 l 314 0 l 411 421 l 424 553 l 435 422 l 524 0 l 692 0 l 857 807 l 688 807 l 604 344 l 594 188 l 579 347 l 482 807 l 371 807 l 268 347 l 244 194 l 244 347 l 174 807 l 4 807 z "},"x":{"ha":603,"x_min":0,"x_max":0,"o":"m 6 0 l 194 0 l 293 240 l 303 296 l 313 240 l 413 0 l 600 0 l 404 425 l 581 807 l 394 807 l 310 588 l 301 538 l 293 589 l 211 807 l 24 807 l 201 425 z "},"y":{"ha":600,"x_min":0,"x_max":0,"o":"m 42 -247 l 129 -247 b 374 -44 289 -247 332 -211 l 590 807 l 415 807 l 318 374 l 306 221 l 294 372 l 190 807 l 11 807 l 225 39 l 214 -8 b 110 -81 200 -69 181 -81 l 42 -81 z "},"z":{"ha":533,"x_min":0,"x_max":0,"o":"m 36 0 l 500 0 l 501 160 l 240 160 l 500 661 l 500 807 l 49 807 l 49 651 l 306 651 l 36 139 z "},"á":{"ha":622,"x_min":0,"x_max":0,"o":"m 224 -12 b 403 104 310 -12 371 28 l 428 0 l 568 0 l 568 579 b 313 817 568 738 490 817 b 54 589 139 817 54 726 l 54 503 l 228 503 l 228 586 b 314 676 228 644 257 676 b 394 590 369 676 394 649 l 394 572 b 279 468 394 517 371 501 b 101 386 192 438 144 422 b 36 231 61 349 36 301 l 36 185 b 224 -12 36 57 93 -12 z m 297 126 b 221 203 249 126 221 156 l 221 238 b 246 326 221 283 228 308 b 329 378 261 347 285 361 b 394 414 364 390 383 400 l 394 260 b 297 126 394 179 358 126 z m 244 886 l 374 886 l 544 1101 l 369 1101 z "},"ă":{"ha":622,"x_min":0,"x_max":0,"o":"m 224 -12 b 403 104 310 -12 371 28 l 428 0 l 568 0 l 568 579 b 313 817 568 738 490 817 b 54 589 139 817 54 726 l 54 503 l 228 503 l 228 586 b 314 676 228 644 257 676 b 394 590 369 676 394 649 l 394 572 b 279 468 394 517 371 501 b 101 386 192 438 144 422 b 36 231 61 349 36 301 l 36 185 b 224 -12 36 57 93 -12 z m 297 126 b 221 203 249 126 221 156 l 221 238 b 246 326 221 283 228 308 b 329 378 261 347 285 361 b 394 414 364 390 383 400 l 394 260 b 297 126 394 179 358 126 z m 315 885 b 510 1099 450 885 510 954 l 390 1099 b 315 997 390 1024 369 999 b 242 1099 260 999 242 1025 l 122 1099 b 315 885 122 954 171 885 z "},"ắ":{"ha":622,"x_min":0,"x_max":0,"o":"m 224 -12 b 403 104 310 -12 371 28 l 428 0 l 568 0 l 568 579 b 313 817 568 738 490 817 b 54 589 139 817 54 726 l 54 503 l 228 503 l 228 586 b 314 676 228 644 257 676 b 394 590 369 676 394 649 l 394 572 b 279 468 394 517 371 501 b 101 386 192 438 144 422 b 36 231 61 349 36 301 l 36 185 b 224 -12 36 57 93 -12 z m 297 126 b 221 203 249 126 221 156 l 221 238 b 246 326 221 283 228 308 b 329 378 261 347 285 361 b 394 414 364 390 383 400 l 394 260 b 297 126 394 179 358 126 z m 318 867 b 514 1061 450 867 514 933 l 396 1061 b 318 979 394 1007 375 979 b 239 1061 260 979 239 1006 l 121 1061 b 318 867 121 935 181 867 z m 254 1064 l 364 1064 l 458 1256 l 315 1256 z "},"ặ":{"ha":622,"x_min":0,"x_max":0,"o":"m 224 -12 b 403 104 310 -12 371 28 l 428 0 l 568 0 l 568 579 b 313 817 568 738 490 817 b 54 589 139 817 54 726 l 54 503 l 228 503 l 228 586 b 314 676 228 644 257 676 b 394 590 369 676 394 649 l 394 572 b 279 468 394 517 371 501 b 101 386 192 438 144 422 b 36 231 61 349 36 301 l 36 185 b 224 -12 36 57 93 -12 z m 297 126 b 221 203 249 126 221 156 l 221 238 b 246 326 221 283 228 308 b 329 378 261 347 285 361 b 394 414 364 390 383 400 l 394 260 b 297 126 394 179 358 126 z m 315 885 b 510 1099 450 885 510 954 l 390 1099 b 315 997 390 1024 369 999 b 242 1099 260 999 242 1025 l 122 1099 b 315 885 122 954 171 885 z m 317 -283 b 414 -181 386 -283 414 -261 b 317 -78 414 -100 383 -78 b 219 -181 247 -78 219 -100 b 317 -283 219 -264 242 -283 z "},"ằ":{"ha":622,"x_min":0,"x_max":0,"o":"m 224 -12 b 403 104 310 -12 371 28 l 428 0 l 568 0 l 568 579 b 313 817 568 738 490 817 b 54 589 139 817 54 726 l 54 503 l 228 503 l 228 586 b 314 676 228 644 257 676 b 394 590 369 676 394 649 l 394 572 b 279 468 394 517 371 501 b 101 386 192 438 144 422 b 36 231 61 349 36 301 l 36 185 b 224 -12 36 57 93 -12 z m 297 126 b 221 203 249 126 221 156 l 221 238 b 246 326 221 283 228 308 b 329 378 261 347 285 361 b 394 414 364 390 383 400 l 394 260 b 297 126 394 179 358 126 z m 321 867 b 517 1061 453 867 517 933 l 399 1061 b 321 979 397 1007 378 979 b 242 1061 263 979 242 1006 l 124 1061 b 321 867 124 935 183 867 z m 386 1064 l 328 1256 l 185 1256 l 278 1064 z "},"ẵ":{"ha":622,"x_min":0,"x_max":0,"o":"m 224 -12 b 403 104 310 -12 371 28 l 428 0 l 568 0 l 568 579 b 313 817 568 738 490 817 b 54 589 139 817 54 726 l 54 503 l 228 503 l 228 586 b 314 676 228 644 257 676 b 394 590 369 676 394 649 l 394 572 b 279 468 394 517 371 501 b 101 386 192 438 144 422 b 36 231 61 349 36 301 l 36 185 b 224 -12 36 57 93 -12 z m 297 126 b 221 203 249 126 221 156 l 221 238 b 246 326 221 283 228 308 b 329 378 261 347 285 361 b 394 414 364 390 383 400 l 394 260 b 297 126 394 179 358 126 z m 319 865 b 515 1060 451 865 515 932 l 397 1060 b 319 978 396 1006 376 978 b 240 1060 261 978 240 1004 l 122 1060 b 319 865 122 933 182 865 z m 121 1089 l 229 1089 b 261 1136 229 1119 239 1136 b 399 1085 299 1136 324 1085 b 514 1249 475 1085 513 1136 l 404 1249 b 374 1203 404 1217 394 1203 b 235 1253 338 1203 310 1253 b 121 1089 158 1253 122 1201 z "},"ẳ":{"ha":622,"x_min":0,"x_max":0,"o":"m 224 -12 b 403 104 310 -12 371 28 l 428 0 l 568 0 l 568 579 b 313 817 568 738 490 817 b 54 589 139 817 54 726 l 54 503 l 228 503 l 228 586 b 314 676 228 644 257 676 b 394 590 369 676 394 649 l 394 572 b 279 468 394 517 371 501 b 101 386 192 438 144 422 b 36 231 61 349 36 301 l 36 185 b 224 -12 36 57 93 -12 z m 297 126 b 221 203 249 126 221 156 l 221 238 b 246 326 221 283 228 308 b 329 378 261 347 285 361 b 394 414 364 390 383 400 l 394 260 b 297 126 394 179 358 126 z m 319 867 b 515 1061 451 867 515 933 l 397 1061 b 319 979 396 1007 376 979 b 240 1061 261 979 240 1006 l 122 1061 b 319 867 122 935 182 867 z m 404 1106 b 471 1201 456 1129 471 1157 b 322 1308 471 1267 417 1308 b 167 1174 217 1308 167 1265 l 276 1174 b 318 1217 276 1201 289 1217 b 356 1194 344 1217 356 1208 b 317 1161 356 1179 343 1175 b 264 1063 278 1142 264 1121 l 371 1063 b 404 1106 371 1085 376 1092 z "},"ǎ":{"ha":622,"x_min":0,"x_max":0,"o":"m 224 -12 b 403 104 310 -12 371 28 l 428 0 l 568 0 l 568 579 b 313 817 568 738 490 817 b 54 589 139 817 54 726 l 54 503 l 228 503 l 228 586 b 314 676 228 644 257 676 b 394 590 369 676 394 649 l 394 572 b 279 468 394 517 371 501 b 101 386 192 438 144 422 b 36 231 61 349 36 301 l 36 185 b 224 -12 36 57 93 -12 z m 297 126 b 221 203 249 126 221 156 l 221 238 b 246 326 221 283 228 308 b 329 378 261 347 285 361 b 394 414 364 390 383 400 l 394 260 b 297 126 394 179 358 126 z m 258 886 l 374 886 l 507 1115 l 379 1115 l 317 1000 l 257 1115 l 125 1115 z "},"â":{"ha":622,"x_min":0,"x_max":0,"o":"m 224 -12 b 403 104 310 -12 371 28 l 428 0 l 568 0 l 568 579 b 313 817 568 738 490 817 b 54 589 139 817 54 726 l 54 503 l 228 503 l 228 586 b 314 676 228 644 257 676 b 394 590 369 676 394 649 l 394 572 b 279 468 394 517 371 501 b 101 386 192 438 144 422 b 36 231 61 349 36 301 l 36 185 b 224 -12 36 57 93 -12 z m 297 126 b 221 203 249 126 221 156 l 221 238 b 246 326 221 283 228 308 b 329 378 261 347 285 361 b 394 414 364 390 383 400 l 394 260 b 297 126 394 179 358 126 z m 128 886 l 257 886 l 318 1001 l 379 886 l 513 886 l 376 1115 l 261 1115 z "},"ấ":{"ha":622,"x_min":0,"x_max":0,"o":"m 224 -12 b 403 104 310 -12 371 28 l 428 0 l 568 0 l 568 579 b 313 817 568 738 490 817 b 54 589 139 817 54 726 l 54 503 l 228 503 l 228 586 b 314 676 228 644 257 676 b 394 590 369 676 394 649 l 394 572 b 279 468 394 517 371 501 b 101 386 192 438 144 422 b 36 231 61 349 36 301 l 36 185 b 224 -12 36 57 93 -12 z m 297 126 b 221 203 249 126 221 156 l 221 238 b 246 326 221 283 228 308 b 329 378 261 347 285 361 b 394 414 364 390 383 400 l 394 260 b 297 126 394 179 358 126 z m 126 861 l 258 861 l 322 960 l 385 861 l 518 861 l 379 1063 l 263 1063 z m 447 1006 l 557 1006 l 651 1197 l 508 1197 z "},"ậ":{"ha":622,"x_min":0,"x_max":0,"o":"m 224 -12 b 403 104 310 -12 371 28 l 428 0 l 568 0 l 568 579 b 313 817 568 738 490 817 b 54 589 139 817 54 726 l 54 503 l 228 503 l 228 586 b 314 676 228 644 257 676 b 394 590 369 676 394 649 l 394 572 b 279 468 394 517 371 501 b 101 386 192 438 144 422 b 36 231 61 349 36 301 l 36 185 b 224 -12 36 57 93 -12 z m 297 126 b 221 203 249 126 221 156 l 221 238 b 246 326 221 283 228 308 b 329 378 261 347 285 361 b 394 414 364 390 383 400 l 394 260 b 297 126 394 179 358 126 z m 128 886 l 257 886 l 318 1001 l 379 886 l 513 886 l 376 1115 l 261 1115 z m 317 -283 b 414 -181 386 -283 414 -261 b 317 -78 414 -100 383 -78 b 219 -181 247 -78 219 -100 b 317 -283 219 -264 242 -283 z "},"ầ":{"ha":622,"x_min":0,"x_max":0,"o":"m 224 -12 b 403 104 310 -12 371 28 l 428 0 l 568 0 l 568 579 b 313 817 568 738 490 817 b 54 589 139 817 54 726 l 54 503 l 228 503 l 228 586 b 314 676 228 644 257 676 b 394 590 369 676 394 649 l 394 572 b 279 468 394 517 371 501 b 101 386 192 438 144 422 b 36 231 61 349 36 301 l 36 185 b 224 -12 36 57 93 -12 z m 297 126 b 221 203 249 126 221 156 l 221 238 b 246 326 221 283 228 308 b 329 378 261 347 285 361 b 394 414 364 390 383 400 l 394 260 b 297 126 394 179 358 126 z m 122 861 l 254 861 l 318 960 l 381 861 l 514 861 l 375 1063 l 258 1063 z m 568 1006 l 510 1197 l 367 1197 l 460 1006 z "},"ẩ":{"ha":622,"x_min":0,"x_max":0,"o":"m 224 -12 b 403 104 310 -12 371 28 l 428 0 l 568 0 l 568 579 b 313 817 568 738 490 817 b 54 589 139 817 54 726 l 54 503 l 228 503 l 228 586 b 314 676 228 644 257 676 b 394 590 369 676 394 649 l 394 572 b 279 468 394 517 371 501 b 101 386 192 438 144 422 b 36 231 61 349 36 301 l 36 185 b 224 -12 36 57 93 -12 z m 297 126 b 221 203 249 126 221 156 l 221 238 b 246 326 221 283 228 308 b 329 378 261 347 285 361 b 394 414 364 390 383 400 l 394 260 b 297 126 394 179 358 126 z m 124 861 l 256 861 l 319 960 l 382 861 l 515 861 l 376 1063 l 260 1063 z m 589 1050 b 656 1146 640 1074 656 1101 b 507 1253 656 1211 601 1253 b 351 1118 401 1253 351 1210 l 461 1118 b 503 1161 461 1146 474 1161 b 540 1139 529 1161 540 1153 b 501 1106 540 1124 528 1119 b 449 1007 463 1086 449 1065 l 556 1007 b 589 1050 556 1029 561 1036 z "},"ẫ":{"ha":622,"x_min":0,"x_max":0,"o":"m 224 -12 b 403 104 310 -12 371 28 l 428 0 l 568 0 l 568 579 b 313 817 568 738 490 817 b 54 589 139 817 54 726 l 54 503 l 228 503 l 228 586 b 314 676 228 644 257 676 b 394 590 369 676 394 649 l 394 572 b 279 468 394 517 371 501 b 101 386 192 438 144 422 b 36 231 61 349 36 301 l 36 185 b 224 -12 36 57 93 -12 z m 297 126 b 221 203 249 126 221 156 l 221 238 b 246 326 221 283 228 308 b 329 378 261 347 285 361 b 394 414 364 390 383 400 l 394 260 b 297 126 394 179 358 126 z m 124 861 l 256 861 l 319 960 l 382 861 l 515 861 l 376 1063 l 260 1063 z m 118 1094 l 226 1094 b 258 1142 226 1125 236 1142 b 396 1090 296 1142 321 1090 b 511 1254 472 1090 510 1142 l 401 1254 b 371 1208 401 1222 392 1208 b 232 1258 335 1208 307 1258 b 118 1094 156 1258 119 1207 z "},"ä":{"ha":622,"x_min":0,"x_max":0,"o":"m 224 -12 b 403 104 310 -12 371 28 l 428 0 l 568 0 l 568 579 b 313 817 568 738 490 817 b 54 589 139 817 54 726 l 54 503 l 228 503 l 228 586 b 314 676 228 644 257 676 b 394 590 369 676 394 649 l 394 572 b 279 468 394 517 371 501 b 101 386 192 438 144 422 b 36 231 61 349 36 301 l 36 185 b 224 -12 36 57 93 -12 z m 297 126 b 221 203 249 126 221 156 l 221 238 b 246 326 221 283 228 308 b 329 378 261 347 285 361 b 394 414 364 390 383 400 l 394 260 b 297 126 394 179 358 126 z m 211 883 b 293 972 271 883 293 907 b 211 1063 293 1040 271 1063 b 131 972 154 1063 131 1040 b 211 883 131 901 150 883 z m 419 883 b 501 972 478 883 501 907 b 419 1063 501 1040 478 1063 b 339 972 360 1063 339 1040 b 419 883 339 901 357 883 z "},"ạ":{"ha":622,"x_min":0,"x_max":0,"o":"m 224 -12 b 403 104 310 -12 371 28 l 428 0 l 568 0 l 568 579 b 313 817 568 738 490 817 b 54 589 139 817 54 726 l 54 503 l 228 503 l 228 586 b 314 676 228 644 257 676 b 394 590 369 676 394 649 l 394 572 b 279 468 394 517 371 501 b 101 386 192 438 144 422 b 36 231 61 349 36 301 l 36 185 b 224 -12 36 57 93 -12 z m 297 126 b 221 203 249 126 221 156 l 221 238 b 246 326 221 283 228 308 b 329 378 261 347 285 361 b 394 414 364 390 383 400 l 394 260 b 297 126 394 179 358 126 z m 317 -283 b 414 -181 386 -283 414 -261 b 317 -78 414 -100 383 -78 b 219 -181 247 -78 219 -100 b 317 -283 219 -264 242 -283 z "},"æ":{"ha":969,"x_min":0,"x_max":0,"o":"m 233 -12 b 433 114 336 -12 403 29 b 660 -14 467 29 536 -15 b 929 253 868 -12 929 101 l 929 279 l 750 279 l 750 254 b 660 140 750 182 728 140 b 565 268 592 140 565 181 l 565 350 l 929 350 l 929 542 b 668 817 929 711 854 817 b 493 754 592 817 535 794 b 311 818 458 794 401 817 b 53 590 142 818 53 725 l 53 503 l 228 503 l 228 586 b 315 678 228 646 257 678 b 396 592 368 678 396 650 l 396 569 b 279 469 396 519 371 501 b 100 386 192 438 143 421 b 36 235 58 349 36 303 l 36 181 b 233 -12 36 54 103 -12 z m 565 536 b 663 668 565 625 594 668 b 756 543 731 668 756 626 l 756 472 l 565 472 z m 296 125 b 224 206 250 125 224 153 l 224 238 b 247 329 224 283 228 307 b 331 378 263 347 288 361 b 396 414 365 390 385 400 l 396 260 b 296 125 396 179 360 125 z "},"ǽ":{"ha":969,"x_min":0,"x_max":0,"o":"m 233 -12 b 433 114 336 -12 403 29 b 660 -14 467 29 536 -15 b 929 253 868 -12 929 101 l 929 279 l 750 279 l 750 254 b 660 140 750 182 728 140 b 565 268 592 140 565 181 l 565 350 l 929 350 l 929 542 b 668 817 929 711 854 817 b 493 754 592 817 535 794 b 311 818 458 794 401 817 b 53 590 142 818 53 725 l 53 503 l 228 503 l 228 586 b 315 678 228 646 257 678 b 396 592 368 678 396 650 l 396 569 b 279 469 396 519 371 501 b 100 386 192 438 143 421 b 36 235 58 349 36 303 l 36 181 b 233 -12 36 54 103 -12 z m 565 536 b 663 668 565 625 594 668 b 756 543 731 668 756 626 l 756 472 l 565 472 z m 296 125 b 224 206 250 125 224 153 l 224 238 b 247 329 224 283 228 307 b 331 378 263 347 288 361 b 396 414 365 390 385 400 l 396 260 b 296 125 396 179 360 125 z m 425 878 l 554 878 l 725 1093 l 550 1093 z "},"à":{"ha":622,"x_min":0,"x_max":0,"o":"m 224 -12 b 403 104 310 -12 371 28 l 428 0 l 568 0 l 568 579 b 313 817 568 738 490 817 b 54 589 139 817 54 726 l 54 503 l 228 503 l 228 586 b 314 676 228 644 257 676 b 394 590 369 676 394 649 l 394 572 b 279 468 394 517 371 501 b 101 386 192 438 144 422 b 36 231 61 349 36 301 l 36 185 b 224 -12 36 57 93 -12 z m 297 126 b 221 203 249 126 221 156 l 221 238 b 246 326 221 283 228 308 b 329 378 261 347 285 361 b 394 414 364 390 383 400 l 394 260 b 297 126 394 179 358 126 z m 260 886 l 381 886 l 275 1101 l 101 1101 z "},"ả":{"ha":622,"x_min":0,"x_max":0,"o":"m 224 -12 b 403 104 310 -12 371 28 l 428 0 l 568 0 l 568 579 b 313 817 568 738 490 817 b 54 589 139 817 54 726 l 54 503 l 228 503 l 228 586 b 314 676 228 644 257 676 b 394 590 369 676 394 649 l 394 572 b 279 468 394 517 371 501 b 101 386 192 438 144 422 b 36 231 61 349 36 301 l 36 185 b 224 -12 36 57 93 -12 z m 297 126 b 221 203 249 126 221 156 l 221 238 b 246 326 221 283 228 308 b 329 378 261 347 285 361 b 394 414 364 390 383 400 l 394 260 b 297 126 394 179 358 126 z m 410 939 b 482 1040 463 967 482 993 b 321 1154 482 1111 424 1154 b 153 1011 208 1154 153 1108 l 271 1011 b 318 1057 271 1042 285 1057 b 356 1032 343 1057 356 1049 b 318 1000 356 1019 346 1014 b 260 888 275 979 260 954 l 375 888 b 410 939 375 917 382 924 z "},"ā":{"ha":622,"x_min":0,"x_max":0,"o":"m 224 -12 b 403 104 310 -12 371 28 l 428 0 l 568 0 l 568 579 b 313 817 568 738 490 817 b 54 589 139 817 54 726 l 54 503 l 228 503 l 228 586 b 314 676 228 644 257 676 b 394 590 369 676 394 649 l 394 572 b 279 468 394 517 371 501 b 101 386 192 438 144 422 b 36 231 61 349 36 301 l 36 185 b 224 -12 36 57 93 -12 z m 297 126 b 221 203 249 126 221 156 l 221 238 b 246 326 221 283 228 308 b 329 378 261 347 285 361 b 394 414 364 390 383 400 l 394 260 b 297 126 394 179 358 126 z m 164 896 l 471 896 l 471 1022 l 164 1022 z "},"ą":{"ha":622,"x_min":0,"x_max":0,"o":"m 224 -12 b 403 104 310 -12 371 28 l 422 25 b 304 -144 328 -36 304 -89 b 472 -279 304 -233 364 -279 b 672 -119 582 -279 647 -229 l 529 -119 b 479 -169 525 -153 506 -169 b 438 -133 453 -169 438 -158 b 569 0 438 -104 456 -81 l 568 0 l 568 579 b 313 817 568 738 490 817 b 54 589 139 817 54 726 l 54 503 l 228 503 l 228 586 b 314 676 228 644 257 676 b 394 590 369 676 394 649 l 394 572 b 279 468 394 517 371 501 b 101 386 192 438 144 422 b 36 231 61 349 36 301 l 36 185 b 224 -12 36 57 93 -12 z m 297 126 b 221 203 249 126 221 156 l 221 238 b 246 326 221 283 228 308 b 329 378 261 347 285 361 b 394 414 364 390 383 400 l 394 260 b 297 126 394 179 358 126 z "},"å":{"ha":622,"x_min":0,"x_max":0,"o":"m 224 -12 b 403 104 310 -12 371 28 l 428 0 l 568 0 l 568 579 b 313 817 568 738 490 817 b 54 589 139 817 54 726 l 54 503 l 228 503 l 228 586 b 314 676 228 644 257 676 b 394 590 369 676 394 649 l 394 572 b 279 468 394 517 371 501 b 101 386 192 438 144 422 b 36 231 61 349 36 301 l 36 185 b 224 -12 36 57 93 -12 z m 297 126 b 221 203 249 126 221 156 l 221 238 b 246 326 221 283 228 308 b 329 378 261 347 285 361 b 394 414 364 390 383 400 l 394 260 b 297 126 394 179 358 126 z m 314 888 b 472 1035 411 888 472 942 b 314 1183 472 1129 410 1183 b 156 1033 222 1183 156 1129 b 314 888 156 938 218 888 z m 314 990 b 268 1035 283 990 268 1008 b 314 1082 268 1063 285 1082 b 360 1035 344 1082 360 1063 b 314 990 360 1007 340 990 z "},"ǻ":{"ha":622,"x_min":0,"x_max":0,"o":"m 317 865 b 471 1001 411 865 471 917 b 385 1126 471 1061 439 1107 l 454 1268 l 311 1268 l 268 1132 b 163 1000 201 1117 163 1068 b 317 865 163 917 221 865 z m 317 963 b 271 1001 286 963 271 978 b 317 1042 271 1026 285 1042 b 363 1003 347 1042 363 1026 b 317 963 363 979 347 963 z m 224 -12 b 403 104 310 -12 371 28 l 428 0 l 568 0 l 568 579 b 313 817 568 738 490 817 b 54 589 139 817 54 726 l 54 503 l 228 503 l 228 586 b 314 676 228 644 257 676 b 394 590 369 676 394 649 l 394 572 b 279 468 394 517 371 501 b 101 386 192 438 144 422 b 36 231 61 349 36 301 l 36 185 b 224 -12 36 57 93 -12 z m 297 126 b 221 203 249 126 221 156 l 221 238 b 246 326 221 283 228 308 b 329 378 261 347 285 361 b 394 414 364 390 383 400 l 394 260 b 297 126 394 179 358 126 z "},"ã":{"ha":622,"x_min":0,"x_max":0,"o":"m 224 -12 b 403 104 310 -12 371 28 l 428 0 l 568 0 l 568 579 b 313 817 568 738 490 817 b 54 589 139 817 54 726 l 54 503 l 228 503 l 228 586 b 314 676 228 644 257 676 b 394 590 369 676 394 649 l 394 572 b 279 468 394 517 371 501 b 101 386 192 438 144 422 b 36 231 61 349 36 301 l 36 185 b 224 -12 36 57 93 -12 z m 297 126 b 221 203 249 126 221 156 l 221 238 b 246 326 221 283 228 308 b 329 378 261 347 285 361 b 394 414 364 390 383 400 l 394 260 b 297 126 394 179 358 126 z m 101 890 l 211 890 b 242 944 211 928 221 944 b 403 885 288 944 322 885 b 526 1068 488 885 525 935 l 415 1068 b 385 1015 415 1029 407 1015 b 224 1075 343 1015 306 1075 b 101 890 139 1075 103 1022 z "},"ć":{"ha":619,"x_min":0,"x_max":0,"o":"m 310 -14 b 576 256 486 -14 576 74 l 576 357 l 394 357 l 394 261 b 311 143 394 179 374 143 b 225 267 250 143 225 181 l 225 535 b 314 665 225 629 251 665 b 394 542 376 665 394 632 l 394 468 l 576 468 l 576 544 b 319 818 576 726 490 818 b 49 538 146 818 49 726 l 49 263 b 310 -14 49 76 131 -14 z m 251 888 l 381 888 l 551 1103 l 376 1103 z "},"č":{"ha":619,"x_min":0,"x_max":0,"o":"m 310 -14 b 576 256 486 -14 576 74 l 576 357 l 394 357 l 394 261 b 311 143 394 179 374 143 b 225 267 250 143 225 181 l 225 535 b 314 665 225 629 251 665 b 394 542 376 665 394 632 l 394 468 l 576 468 l 576 544 b 319 818 576 726 490 818 b 49 538 146 818 49 726 l 49 263 b 310 -14 49 76 131 -14 z m 260 888 l 375 888 l 508 1117 l 381 1117 l 318 1001 l 258 1117 l 126 1117 z "},"ç":{"ha":619,"x_min":0,"x_max":0,"o":"m 319 -336 b 508 -190 438 -336 508 -285 b 371 -68 508 -111 458 -74 l 371 -10 b 576 256 507 10 576 96 l 576 357 l 394 357 l 394 261 b 311 143 394 179 374 143 b 225 267 250 143 225 181 l 225 535 b 314 665 225 629 251 665 b 394 542 376 665 394 632 l 394 468 l 576 468 l 576 544 b 319 818 576 726 490 818 b 49 538 146 818 49 726 l 49 263 b 256 -11 49 96 114 7 l 256 -151 l 321 -151 b 382 -190 363 -151 382 -165 b 322 -233 382 -218 363 -233 b 256 -186 283 -233 261 -219 l 115 -186 b 319 -336 133 -287 193 -336 z "},"ĉ":{"ha":619,"x_min":0,"x_max":0,"o":"m 310 -14 b 576 256 486 -14 576 74 l 576 357 l 394 357 l 394 261 b 311 143 394 179 374 143 b 225 267 250 143 225 181 l 225 535 b 314 665 225 629 251 665 b 394 542 376 665 394 632 l 394 468 l 576 468 l 576 544 b 319 818 576 726 490 818 b 49 538 146 818 49 726 l 49 263 b 310 -14 49 76 131 -14 z m 129 888 l 258 888 l 319 1003 l 381 888 l 514 888 l 378 1117 l 263 1117 z "},"ċ":{"ha":618,"x_min":0,"x_max":0,"o":"m 310 -14 b 576 256 486 -14 576 74 l 576 357 l 394 357 l 394 261 b 311 143 394 179 374 143 b 225 267 250 143 225 181 l 225 535 b 314 665 225 629 251 665 b 394 542 376 665 394 632 l 394 468 l 576 468 l 576 544 b 319 818 576 726 490 818 b 49 538 146 818 49 726 l 49 263 b 310 -14 49 76 131 -14 z m 318 886 b 415 988 388 886 415 908 b 318 1090 415 1069 386 1090 b 221 988 249 1090 221 1069 b 318 886 221 906 243 886 z "},"ď":{"ha":715,"x_min":0,"x_max":0,"o":"m 253 -11 b 418 119 350 -11 397 42 l 438 0 l 585 0 l 585 1042 l 410 1042 l 410 708 b 258 817 386 778 339 817 b 49 524 132 817 49 731 l 49 297 b 253 -11 49 83 117 -11 z m 315 142 b 225 293 258 142 225 182 l 225 522 b 319 665 225 621 254 665 b 411 522 383 665 411 607 l 411 281 b 315 142 411 189 376 142 z m 644 765 l 731 765 l 760 1042 l 644 1042 z "},"đ":{"ha":647,"x_min":0,"x_max":0,"o":"m 254 -11 b 418 121 351 -11 399 42 l 438 0 l 585 0 l 585 860 l 643 860 l 643 965 l 585 965 l 585 1042 l 410 1042 l 410 965 l 338 965 l 338 860 l 410 860 l 410 707 b 257 817 386 778 338 817 b 49 524 131 817 49 731 l 49 297 b 254 -11 49 83 117 -11 z m 315 142 b 225 293 258 142 225 182 l 225 522 b 318 665 225 621 254 665 b 411 522 382 665 411 607 l 411 281 b 315 142 411 189 376 142 z "},"ð":{"ha":633,"x_min":0,"x_max":0,"o":"m 315 -14 b 582 268 482 -14 582 79 l 582 543 b 421 960 582 715 522 853 l 560 1058 l 406 1058 l 353 1021 b 303 1058 336 1033 319 1046 l 60 1058 b 233 938 129 1015 186 976 l 89 838 l 244 838 l 301 878 b 399 736 347 832 379 786 b 276 793 375 772 336 793 b 46 525 128 793 46 699 l 46 256 b 315 -14 46 75 139 -14 z m 315 143 b 224 260 256 143 224 182 l 224 524 b 318 640 224 603 257 640 b 408 524 381 640 408 604 l 408 261 b 315 143 408 181 375 143 z "},"é":{"ha":622,"x_min":0,"x_max":0,"o":"m 317 -14 b 582 258 533 -12 582 107 l 582 279 l 406 279 l 406 254 b 319 140 406 183 386 140 b 222 265 249 140 222 176 l 222 353 l 582 353 l 582 542 b 317 818 582 706 504 818 b 50 536 153 818 50 715 l 50 265 b 317 -14 50 82 131 -15 z m 222 536 b 319 668 222 625 251 668 b 410 543 389 668 410 625 l 410 475 l 222 475 z m 253 886 l 382 886 l 553 1101 l 378 1101 z "},"ĕ":{"ha":622,"x_min":0,"x_max":0,"o":"m 317 -14 b 582 258 533 -12 582 107 l 582 279 l 406 279 l 406 254 b 319 140 406 183 386 140 b 222 265 249 140 222 176 l 222 353 l 582 353 l 582 542 b 317 818 582 706 504 818 b 50 536 153 818 50 715 l 50 265 b 317 -14 50 82 131 -15 z m 222 536 b 319 668 222 625 251 668 b 410 543 389 668 410 625 l 410 475 l 222 475 z m 318 885 b 513 1099 453 885 513 954 l 393 1099 b 318 997 393 1024 372 999 b 244 1099 263 999 244 1025 l 125 1099 b 318 885 125 954 174 885 z "},"ě":{"ha":622,"x_min":0,"x_max":0,"o":"m 317 -14 b 582 258 533 -12 582 107 l 582 279 l 406 279 l 406 254 b 319 140 406 183 386 140 b 222 265 249 140 222 176 l 222 353 l 582 353 l 582 542 b 317 818 582 706 504 818 b 50 536 153 818 50 715 l 50 265 b 317 -14 50 82 131 -15 z m 222 536 b 319 668 222 625 251 668 b 410 543 389 668 410 625 l 410 475 l 222 475 z m 261 886 l 376 886 l 510 1115 l 382 1115 l 319 1000 l 260 1115 l 128 1115 z "},"ê":{"ha":622,"x_min":0,"x_max":0,"o":"m 317 -14 b 582 258 533 -12 582 107 l 582 279 l 406 279 l 406 254 b 319 140 406 183 386 140 b 222 265 249 140 222 176 l 222 353 l 582 353 l 582 542 b 317 818 582 706 504 818 b 50 536 153 818 50 715 l 50 265 b 317 -14 50 82 131 -15 z m 222 536 b 319 668 222 625 251 668 b 410 543 389 668 410 625 l 410 475 l 222 475 z m 131 886 l 260 886 l 321 1001 l 382 886 l 515 886 l 379 1115 l 264 1115 z "},"ế":{"ha":622,"x_min":0,"x_max":0,"o":"m 317 -14 b 582 258 533 -12 582 107 l 582 279 l 406 279 l 406 254 b 319 140 406 183 386 140 b 222 265 249 140 222 176 l 222 353 l 582 353 l 582 542 b 317 818 582 706 504 818 b 50 536 153 818 50 715 l 50 265 b 317 -14 50 82 131 -15 z m 222 536 b 319 668 222 625 251 668 b 410 543 389 668 410 625 l 410 475 l 222 475 z m 129 861 l 261 861 l 325 960 l 388 861 l 521 861 l 382 1063 l 265 1063 z m 450 1006 l 560 1006 l 654 1197 l 511 1197 z "},"ệ":{"ha":622,"x_min":0,"x_max":0,"o":"m 317 -14 b 582 258 533 -12 582 107 l 582 279 l 406 279 l 406 254 b 319 140 406 183 386 140 b 222 265 249 140 222 176 l 222 353 l 582 353 l 582 542 b 317 818 582 706 504 818 b 50 536 153 818 50 715 l 50 265 b 317 -14 50 82 131 -15 z m 222 536 b 319 668 222 625 251 668 b 410 543 389 668 410 625 l 410 475 l 222 475 z m 131 886 l 260 886 l 321 1001 l 382 886 l 515 886 l 379 1115 l 264 1115 z m 317 -297 b 414 -194 386 -297 414 -275 b 317 -92 414 -114 383 -92 b 219 -194 247 -92 219 -114 b 317 -297 219 -278 242 -297 z "},"ề":{"ha":622,"x_min":0,"x_max":0,"o":"m 317 -14 b 582 258 533 -12 582 107 l 582 279 l 406 279 l 406 254 b 319 140 406 183 386 140 b 222 265 249 140 222 176 l 222 353 l 582 353 l 582 542 b 317 818 582 706 504 818 b 50 536 153 818 50 715 l 50 265 b 317 -14 50 82 131 -15 z m 222 536 b 319 668 222 625 251 668 b 410 543 389 668 410 625 l 410 475 l 222 475 z m 126 861 l 258 861 l 322 960 l 385 861 l 518 861 l 379 1063 l 263 1063 z m 572 1006 l 514 1197 l 371 1197 l 464 1006 z "},"ể":{"ha":622,"x_min":0,"x_max":0,"o":"m 317 -14 b 582 258 533 -12 582 107 l 582 279 l 406 279 l 406 254 b 319 140 406 183 386 140 b 222 265 249 140 222 176 l 222 353 l 582 353 l 582 542 b 317 818 582 706 504 818 b 50 536 153 818 50 715 l 50 265 b 317 -14 50 82 131 -15 z m 222 536 b 319 668 222 625 251 668 b 410 543 389 668 410 625 l 410 475 l 222 475 z m 129 861 l 261 861 l 325 960 l 388 861 l 521 861 l 382 1063 l 265 1063 z m 594 1050 b 661 1146 646 1074 661 1101 b 513 1253 661 1211 607 1253 b 357 1118 407 1253 357 1210 l 467 1118 b 508 1161 467 1146 479 1161 b 546 1139 535 1161 546 1153 b 507 1106 546 1124 533 1119 b 454 1007 468 1086 454 1065 l 561 1007 b 594 1050 561 1029 567 1036 z "},"ễ":{"ha":622,"x_min":0,"x_max":0,"o":"m 317 -14 b 582 258 533 -12 582 107 l 582 279 l 406 279 l 406 254 b 319 140 406 183 386 140 b 222 265 249 140 222 176 l 222 353 l 582 353 l 582 542 b 317 818 582 706 504 818 b 50 536 153 818 50 715 l 50 265 b 317 -14 50 82 131 -15 z m 222 536 b 319 668 222 625 251 668 b 410 543 389 668 410 625 l 410 475 l 222 475 z m 129 861 l 261 861 l 325 960 l 388 861 l 521 861 l 382 1063 l 265 1063 z m 124 1094 l 232 1094 b 264 1142 232 1125 242 1142 b 401 1090 301 1142 326 1090 b 517 1254 478 1090 515 1142 l 407 1254 b 376 1208 407 1222 397 1208 b 238 1258 340 1208 313 1258 b 124 1094 161 1258 125 1207 z "},"ë":{"ha":622,"x_min":0,"x_max":0,"o":"m 317 -14 b 582 258 533 -12 582 107 l 582 279 l 406 279 l 406 254 b 319 140 406 183 386 140 b 222 265 249 140 222 176 l 222 353 l 582 353 l 582 542 b 317 818 582 706 504 818 b 50 536 153 818 50 715 l 50 265 b 317 -14 50 82 131 -15 z m 222 536 b 319 668 222 625 251 668 b 410 543 389 668 410 625 l 410 475 l 222 475 z m 215 883 b 297 972 275 883 297 907 b 215 1063 297 1040 275 1063 b 135 972 158 1063 135 1040 b 215 883 135 901 154 883 z m 424 883 b 506 972 482 883 506 907 b 424 1063 506 1040 482 1063 b 343 972 364 1063 343 1040 b 424 883 343 901 361 883 z "},"ė":{"ha":622,"x_min":0,"x_max":0,"o":"m 317 -14 b 582 258 533 -12 582 107 l 582 279 l 406 279 l 406 254 b 319 140 406 183 386 140 b 222 265 249 140 222 176 l 222 353 l 582 353 l 582 542 b 317 818 582 706 504 818 b 50 536 153 818 50 715 l 50 265 b 317 -14 50 82 131 -15 z m 222 536 b 319 668 222 625 251 668 b 410 543 389 668 410 625 l 410 475 l 222 475 z m 319 885 b 417 986 389 885 417 907 b 319 1089 417 1068 388 1089 b 222 986 250 1089 222 1068 b 319 885 222 904 244 885 z "},"ẹ":{"ha":622,"x_min":0,"x_max":0,"o":"m 317 -14 b 582 258 533 -12 582 107 l 582 279 l 406 279 l 406 254 b 319 140 406 183 386 140 b 222 265 249 140 222 176 l 222 353 l 582 353 l 582 542 b 317 818 582 706 504 818 b 50 536 153 818 50 715 l 50 265 b 317 -14 50 82 131 -15 z m 222 536 b 319 668 222 625 251 668 b 410 543 389 668 410 625 l 410 475 l 222 475 z m 317 -297 b 414 -194 386 -297 414 -275 b 317 -92 414 -114 383 -92 b 219 -194 247 -92 219 -114 b 317 -297 219 -278 242 -297 z "},"è":{"ha":622,"x_min":0,"x_max":0,"o":"m 317 -14 b 582 258 533 -12 582 107 l 582 279 l 406 279 l 406 254 b 319 140 406 183 386 140 b 222 265 249 140 222 176 l 222 353 l 582 353 l 582 542 b 317 818 582 706 504 818 b 50 536 153 818 50 715 l 50 265 b 317 -14 50 82 131 -15 z m 222 536 b 319 668 222 625 251 668 b 410 543 389 668 410 625 l 410 475 l 222 475 z m 263 886 l 383 886 l 278 1101 l 104 1101 z "},"ẻ":{"ha":622,"x_min":0,"x_max":0,"o":"m 317 -14 b 582 258 533 -12 582 107 l 582 279 l 406 279 l 406 254 b 319 140 406 183 386 140 b 222 265 249 140 222 176 l 222 353 l 582 353 l 582 542 b 317 818 582 706 504 818 b 50 536 153 818 50 715 l 50 265 b 317 -14 50 82 131 -15 z m 222 536 b 319 668 222 625 251 668 b 410 543 389 668 410 625 l 410 475 l 222 475 z m 413 938 b 485 1039 465 965 485 992 b 324 1153 485 1110 426 1153 b 156 1010 211 1153 156 1107 l 274 1010 b 321 1056 274 1040 288 1056 b 358 1031 346 1056 358 1047 b 321 999 358 1018 349 1013 b 263 886 278 978 263 953 l 378 886 b 413 938 378 915 385 922 z "},"ē":{"ha":622,"x_min":0,"x_max":0,"o":"m 317 -14 b 582 258 533 -12 582 107 l 582 279 l 406 279 l 406 254 b 319 140 406 183 386 140 b 222 265 249 140 222 176 l 222 353 l 582 353 l 582 542 b 317 818 582 706 504 818 b 50 536 153 818 50 715 l 50 265 b 317 -14 50 82 131 -15 z m 222 536 b 319 668 222 625 251 668 b 410 543 389 668 410 625 l 410 475 l 222 475 z m 167 896 l 474 896 l 474 1022 l 167 1022 z "},"ę":{"ha":622,"x_min":0,"x_max":0,"o":"m 374 -261 b 574 -101 483 -261 549 -211 l 431 -101 b 381 -151 426 -135 407 -151 b 339 -115 354 -151 339 -140 b 468 17 339 -86 357 -62 b 582 258 558 61 582 151 l 582 279 l 406 279 l 406 254 b 319 140 406 183 386 140 b 222 265 249 140 222 176 l 222 353 l 582 353 l 582 542 b 317 818 582 706 504 818 b 50 536 153 818 50 715 l 50 265 b 256 -10 50 103 113 8 b 206 -126 217 -50 206 -87 b 374 -261 206 -215 265 -261 z m 222 536 b 319 668 222 625 251 668 b 410 543 389 668 410 625 l 410 475 l 222 475 z "},"ẽ":{"ha":622,"x_min":0,"x_max":0,"o":"m 317 -14 b 582 258 533 -12 582 107 l 582 279 l 406 279 l 406 254 b 319 140 406 183 386 140 b 222 265 249 140 222 176 l 222 353 l 582 353 l 582 542 b 317 818 582 706 504 818 b 50 536 153 818 50 715 l 50 265 b 317 -14 50 82 131 -15 z m 222 536 b 319 668 222 625 251 668 b 410 543 389 668 410 625 l 410 475 l 222 475 z m 104 890 l 214 890 b 244 944 214 928 224 944 b 406 885 290 944 325 885 b 529 1068 490 885 528 935 l 418 1068 b 388 1015 418 1029 410 1015 b 226 1075 346 1015 308 1075 b 104 890 142 1075 106 1022 z "},"ğ":{"ha":621,"x_min":0,"x_max":0,"o":"m 32 126 b 160 -1 32 54 72 11 b 26 -132 74 -22 26 -72 b 282 -271 26 -215 97 -271 l 299 -271 b 615 -51 526 -271 615 -171 l 615 -49 b 376 140 615 72 540 140 l 264 140 b 178 174 196 139 178 151 b 282 213 178 200 200 213 l 313 213 b 572 439 482 213 572 289 l 572 594 b 411 788 572 701 517 774 b 399 789 407 788 403 789 b 576 914 542 790 576 831 l 576 931 l 392 931 l 392 907 b 278 815 392 847 371 831 b 260 811 272 814 268 813 b 54 589 131 789 54 722 l 54 440 b 164 260 54 343 88 286 b 32 126 75 242 32 197 z m 313 342 b 231 429 261 342 231 369 l 231 599 b 292 688 231 649 253 679 b 315 690 300 690 307 690 b 394 600 372 690 396 654 l 394 431 b 313 342 394 374 365 342 z m 288 -132 b 189 -81 224 -132 190 -110 l 189 -76 b 292 -4 189 -39 236 -7 l 358 -4 b 446 -58 421 -4 446 -28 l 446 -62 b 319 -132 446 -100 404 -132 z m 290 951 b 485 1165 425 951 485 1021 l 365 1165 b 290 1064 365 1090 344 1065 b 217 1165 235 1065 217 1092 l 97 1165 b 290 951 97 1021 146 951 z "},"ǧ":{"ha":621,"x_min":0,"x_max":0,"o":"m 32 126 b 160 -1 32 54 72 11 b 26 -132 74 -22 26 -72 b 282 -271 26 -215 97 -271 l 299 -271 b 615 -51 526 -271 615 -171 l 615 -49 b 376 140 615 72 540 140 l 264 140 b 178 174 196 139 178 151 b 282 213 178 200 200 213 l 313 213 b 572 439 482 213 572 289 l 572 594 b 411 788 572 701 517 774 b 399 789 407 788 403 789 b 576 914 542 790 576 831 l 576 931 l 392 931 l 392 907 b 278 815 392 847 371 831 b 260 811 272 814 268 813 b 54 589 131 789 54 722 l 54 440 b 164 260 54 343 88 286 b 32 126 75 242 32 197 z m 313 342 b 231 429 261 342 231 369 l 231 599 b 292 688 231 649 253 679 b 315 690 300 690 307 690 b 394 600 372 690 396 654 l 394 431 b 313 342 394 374 365 342 z m 288 -132 b 189 -81 224 -132 190 -110 l 189 -76 b 292 -4 189 -39 236 -7 l 358 -4 b 446 -58 421 -4 446 -28 l 446 -62 b 319 -132 446 -100 404 -132 z m 233 953 l 349 953 l 482 1182 l 354 1182 l 292 1067 l 232 1182 l 100 1182 z "},"ĝ":{"ha":621,"x_min":0,"x_max":0,"o":"m 32 126 b 160 -1 32 54 72 11 b 26 -132 74 -22 26 -72 b 282 -271 26 -215 97 -271 l 299 -271 b 615 -51 526 -271 615 -171 l 615 -49 b 376 140 615 72 540 140 l 264 140 b 178 174 196 139 178 151 b 282 213 178 200 200 213 l 313 213 b 572 439 482 213 572 289 l 572 594 b 411 788 572 701 517 774 b 399 789 407 788 403 789 b 576 914 542 790 576 831 l 576 931 l 392 931 l 392 907 b 278 815 392 847 371 831 b 260 811 272 814 268 813 b 54 589 131 789 54 722 l 54 440 b 164 260 54 343 88 286 b 32 126 75 242 32 197 z m 313 342 b 231 429 261 342 231 369 l 231 599 b 292 688 231 649 253 679 b 315 690 300 690 307 690 b 394 600 372 690 396 654 l 394 431 b 313 342 394 374 365 342 z m 288 -132 b 189 -81 224 -132 190 -110 l 189 -76 b 292 -4 189 -39 236 -7 l 358 -4 b 446 -58 421 -4 446 -28 l 446 -62 b 319 -132 446 -100 404 -132 z m 103 953 l 232 953 l 293 1068 l 354 953 l 488 953 l 351 1182 l 236 1182 z "},"ģ":{"ha":621,"x_min":0,"x_max":0,"o":"m 32 126 b 160 -1 32 54 72 11 b 26 -132 74 -22 26 -72 b 282 -271 26 -215 97 -271 l 299 -271 b 615 -51 526 -271 615 -171 l 615 -49 b 376 140 615 72 540 140 l 264 140 b 178 174 196 139 178 151 b 282 213 178 200 200 213 l 313 213 b 572 439 482 213 572 289 l 572 594 b 411 788 572 701 517 774 b 399 789 407 788 403 789 b 576 914 542 790 576 831 l 576 931 l 392 931 l 392 907 b 278 815 392 847 371 831 b 260 811 272 814 268 813 b 54 589 131 789 54 722 l 54 440 b 164 260 54 343 88 286 b 32 126 75 242 32 197 z m 313 342 b 231 429 261 342 231 369 l 231 599 b 292 688 231 649 253 679 b 315 690 300 690 307 690 b 394 600 372 690 396 654 l 394 431 b 313 342 394 374 365 342 z m 288 -132 b 189 -81 224 -132 190 -110 l 189 -76 b 292 -4 189 -39 236 -7 l 358 -4 b 446 -58 421 -4 446 -28 l 446 -62 b 319 -132 446 -100 404 -132 z m 200 1074 b 289 953 200 982 222 953 b 376 1043 351 953 376 978 b 303 1126 376 1114 354 1126 b 290 1125 299 1126 294 1126 b 360 1192 297 1168 317 1188 l 360 1272 b 200 1074 249 1265 200 1190 z "},"ġ":{"ha":621,"x_min":0,"x_max":0,"o":"m 32 126 b 160 -1 32 54 72 11 b 26 -132 74 -22 26 -72 b 282 -271 26 -215 97 -271 l 299 -271 b 615 -51 526 -271 615 -171 l 615 -49 b 376 140 615 72 540 140 l 264 140 b 178 174 196 139 178 151 b 282 213 178 200 200 213 l 313 213 b 572 439 482 213 572 289 l 572 594 b 411 788 572 701 517 774 b 399 789 407 788 403 789 b 576 914 542 790 576 831 l 576 931 l 392 931 l 392 907 b 278 815 392 847 371 831 b 260 811 272 814 268 813 b 54 589 131 789 54 722 l 54 440 b 164 260 54 343 88 286 b 32 126 75 242 32 197 z m 313 342 b 231 429 261 342 231 369 l 231 599 b 292 688 231 649 253 679 b 315 690 300 690 307 690 b 394 600 372 690 396 654 l 394 431 b 313 342 394 374 365 342 z m 288 -132 b 189 -81 224 -132 190 -110 l 189 -76 b 292 -4 189 -39 236 -7 l 358 -4 b 446 -58 421 -4 446 -28 l 446 -62 b 319 -132 446 -100 404 -132 z m 292 951 b 389 1053 361 951 389 974 b 292 1156 389 1135 360 1156 b 194 1053 222 1156 194 1135 b 292 951 194 971 217 951 z "},"ß":{"ha":651,"x_min":0,"x_max":0,"o":"m 311 0 l 374 0 b 606 233 567 0 606 74 l 606 386 b 497 554 606 483 569 532 b 585 718 563 581 585 635 l 585 826 b 326 1057 585 972 504 1057 b 60 818 151 1057 60 965 l 60 0 l 236 0 l 236 810 b 326 901 236 867 261 901 b 414 815 386 901 414 871 l 414 719 b 328 622 414 653 386 622 l 313 622 l 313 472 l 331 472 b 424 376 393 472 424 443 l 424 258 b 335 158 424 189 400 158 b 311 160 328 158 319 160 z "},"ħ":{"ha":638,"x_min":0,"x_max":0,"o":"m 0 965 l 0 861 l 60 861 l 60 0 l 235 0 l 235 532 b 324 660 235 614 263 660 b 401 546 383 660 401 619 l 401 0 l 581 0 l 581 575 b 396 817 581 735 518 817 b 235 690 307 817 257 769 l 235 861 l 310 861 l 310 965 l 235 965 l 235 1042 l 60 1042 l 60 965 z "},"ĥ":{"ha":638,"x_min":0,"x_max":0,"o":"m 60 0 l 235 0 l 235 532 b 325 660 235 614 263 660 b 401 546 385 660 401 619 l 401 0 l 581 0 l 581 575 b 396 817 581 735 518 817 b 235 690 307 817 257 769 l 235 1042 l 60 1042 z m -42 1110 l 88 1110 l 149 1225 l 210 1110 l 343 1110 l 207 1339 l 92 1339 z "},"í":{"ha":301,"x_min":0,"x_max":0,"o":"m 60 0 l 240 0 l 240 807 l 60 807 z m 89 883 l 218 883 l 389 1099 l 214 1099 z "},"ĭ":{"ha":301,"x_min":0,"x_max":0,"o":"m 60 0 l 240 0 l 240 807 l 60 807 z m 150 876 b 344 1090 285 876 344 946 l 225 1090 b 150 989 225 1015 204 990 b 76 1090 94 990 76 1017 l -43 1090 b 150 876 -43 946 6 876 z "},"ǐ":{"ha":301,"x_min":0,"x_max":0,"o":"m 60 0 l 240 0 l 240 807 l 60 807 z m 92 878 l 207 878 l 340 1107 l 213 1107 l 150 992 l 90 1107 l -42 1107 z "},"î":{"ha":301,"x_min":0,"x_max":0,"o":"m 60 0 l 240 0 l 240 807 l 60 807 z m -39 878 l 90 878 l 151 993 l 213 878 l 346 878 l 210 1107 l 94 1107 z "},"ï":{"ha":301,"x_min":0,"x_max":0,"o":"m 60 0 l 240 0 l 240 807 l 60 807 z m 46 875 b 128 964 106 875 128 899 b 46 1054 128 1032 106 1054 b -35 964 -11 1054 -35 1032 b 46 875 -35 893 -15 875 z m 254 875 b 336 964 313 875 336 899 b 254 1054 336 1032 313 1054 b 174 964 194 1054 174 1032 b 254 875 174 893 192 875 z "},"ị":{"ha":301,"x_min":0,"x_max":0,"o":"m 153 853 b 257 956 225 853 257 876 b 153 1058 257 1035 225 1058 b 49 956 78 1058 49 1035 b 153 853 49 875 74 853 z m 60 0 l 242 0 l 242 804 b 151 790 221 797 190 790 b 60 804 110 790 81 796 z m 151 -282 b 249 -179 221 -282 249 -260 b 151 -76 249 -99 218 -76 b 54 -179 82 -76 54 -99 b 151 -282 54 -262 76 -282 z "},"ì":{"ha":301,"x_min":0,"x_max":0,"o":"m 60 0 l 240 0 l 240 807 l 60 807 z m 93 878 l 214 878 l 108 1093 l -65 1093 z "},"ỉ":{"ha":301,"x_min":0,"x_max":0,"o":"m 60 0 l 240 0 l 240 807 l 60 807 z m 243 929 b 315 1031 296 957 315 983 b 154 1144 315 1101 257 1144 b -14 1001 42 1144 -14 1099 l 104 1001 b 151 1047 104 1032 118 1047 b 189 1022 176 1047 189 1039 b 151 990 189 1010 179 1004 b 93 878 108 969 93 944 l 208 878 b 243 929 208 907 215 914 z "},"ĳ":{"ha":606,"x_min":0,"x_max":0,"o":"m 153 853 b 257 956 225 853 257 876 b 153 1058 257 1035 225 1058 b 49 956 78 1058 49 1035 b 153 853 49 875 74 853 z m 60 0 l 242 0 l 242 804 b 151 790 221 797 190 790 b 60 804 110 790 81 796 z m 454 853 b 558 956 528 853 558 876 b 454 1058 558 1035 529 1058 b 350 956 379 1058 350 1035 b 454 853 350 875 376 853 z m 251 -274 l 328 -274 b 544 -58 493 -274 544 -222 l 544 804 b 454 792 522 797 496 792 b 364 804 414 792 385 796 l 364 -31 b 299 -104 364 -92 353 -104 l 251 -104 z "},"ī":{"ha":301,"x_min":0,"x_max":0,"o":"m 60 0 l 240 0 l 240 807 l 60 807 z m -3 888 l 304 888 l 304 1014 l -3 1014 z "},"į":{"ha":301,"x_min":0,"x_max":0,"o":"m 153 853 b 257 956 225 853 257 876 b 153 1058 257 1035 225 1058 b 49 956 78 1058 49 1035 b 153 853 49 875 74 853 z m 144 -279 b 344 -119 254 -279 319 -229 l 201 -119 b 151 -169 197 -153 178 -169 b 110 -133 125 -169 110 -158 b 242 0 110 -104 128 -81 l 242 804 b 151 790 221 797 190 790 b 60 804 110 790 81 796 l 60 1 b -24 -144 -6 -50 -24 -96 b 144 -279 -24 -233 36 -279 z "},"ɨ":{"ha":308,"x_min":0,"x_max":0,"o":"m 156 853 b 260 956 228 853 260 876 b 156 1058 260 1035 229 1058 b 51 956 81 1058 51 1035 b 156 853 51 875 76 853 z m 63 0 l 244 0 l 244 432 l 317 472 l 244 494 l 244 804 b 154 790 224 797 194 790 b 63 804 114 790 83 796 l 63 474 l -8 435 l 63 411 z "},"ĩ":{"ha":301,"x_min":0,"x_max":0,"o":"m 60 0 l 240 0 l 240 807 l 60 807 z m -64 882 l 46 882 b 76 936 46 919 56 936 b 238 876 122 936 157 876 b 361 1060 322 876 360 926 l 250 1060 b 219 1007 250 1021 242 1007 b 58 1067 178 1007 140 1067 b -64 882 -26 1067 -62 1014 z "},"ı":{"ha":301,"x_min":0,"x_max":0,"o":"m 60 0 l 240 0 l 240 807 l 60 807 z "},"ȷ":{"ha":304,"x_min":0,"x_max":0,"o":"m -50 -274 l 29 -274 b 244 -58 193 -274 244 -222 l 244 807 l 64 807 l 64 -31 b -1 -104 64 -92 51 -104 l -50 -104 z "},"ĵ":{"ha":303,"x_min":0,"x_max":0,"o":"m -50 -274 l 29 -274 b 244 -58 193 -274 244 -222 l 244 807 l 64 807 l 64 -31 b -1 -104 64 -92 51 -104 l -50 -104 z m -36 878 l 93 878 l 154 993 l 215 878 l 349 878 l 213 1107 l 97 1107 z "},"ǩ":{"ha":621,"x_min":0,"x_max":0,"o":"m 297 379 l 432 0 l 618 0 l 428 503 l 611 807 l 415 807 l 253 529 l 229 476 l 232 528 l 232 1042 l 60 1042 l 60 0 l 232 0 l 232 288 l 293 404 z m 86 1110 l 201 1110 l 335 1339 l 207 1339 l 144 1224 l 85 1339 l -47 1339 z "},"ķ":{"ha":621,"x_min":0,"x_max":0,"o":"m 297 379 l 432 0 l 618 0 l 428 503 l 611 807 l 415 807 l 253 529 l 229 476 l 232 528 l 232 1042 l 60 1042 l 60 0 l 232 0 l 232 288 l 293 404 z m 258 -290 l 258 -371 b 418 -171 367 -364 418 -289 b 331 -51 418 -79 397 -51 b 243 -142 267 -51 243 -75 b 315 -225 243 -211 264 -225 l 326 -225 b 258 -290 321 -267 301 -287 z "},"ĸ":{"ha":621,"x_min":0,"x_max":0,"o":"m 297 379 l 431 0 l 618 0 l 428 503 l 610 807 l 417 807 l 251 529 l 229 478 l 232 528 l 232 807 l 60 807 l 60 0 l 232 0 l 232 289 l 293 406 z "},"ĺ":{"ha":297,"x_min":0,"x_max":0,"o":"m 60 1042 l 60 0 l 235 0 l 235 1042 z m 81 1111 l 210 1111 l 381 1326 l 206 1326 z "},"ľ":{"ha":368,"x_min":0,"x_max":0,"o":"m 60 1042 l 60 0 l 235 0 l 235 1042 z m 297 765 l 383 765 l 413 1042 l 297 1042 z "},"ļ":{"ha":297,"x_min":0,"x_max":0,"o":"m 60 1042 l 60 0 l 235 0 l 235 1042 z m 79 -294 l 79 -375 b 239 -175 188 -368 239 -293 b 151 -56 239 -83 218 -56 b 64 -146 88 -56 64 -79 b 136 -229 64 -215 85 -229 l 147 -229 b 79 -294 142 -271 122 -292 z "},"ŀ":{"ha":476,"x_min":0,"x_max":0,"o":"m 289 424 b 386 322 289 342 311 322 b 483 424 456 322 483 344 b 386 526 483 506 456 526 b 289 424 317 526 289 506 z m 58 1042 l 58 0 l 236 0 l 236 1042 z "},"ł":{"ha":324,"x_min":0,"x_max":0,"o":"m 8 525 l 8 382 l 74 410 l 74 0 l 249 0 l 249 460 l 315 489 l 315 631 l 249 601 l 249 1042 l 74 1042 l 74 553 z "},"ꝉ":{"ha":307,"x_min":0,"x_max":0,"o":"m 65 1042 l 65 521 l -7 482 l 65 458 l 65 0 l 240 0 l 240 475 l 318 519 l 240 543 l 240 1042 z "},"ń":{"ha":639,"x_min":0,"x_max":0,"o":"m 60 0 l 238 0 l 238 532 b 328 658 238 614 264 658 b 406 546 388 658 406 619 l 406 0 l 585 0 l 585 575 b 393 817 585 735 522 817 b 225 690 306 817 250 769 l 206 807 l 60 807 z m 260 879 l 389 879 l 560 1094 l 385 1094 z "},"ň":{"ha":639,"x_min":0,"x_max":0,"o":"m 60 0 l 238 0 l 238 532 b 328 658 238 614 264 658 b 406 546 388 658 406 619 l 406 0 l 585 0 l 585 575 b 393 817 585 735 522 817 b 225 690 306 817 250 769 l 206 807 l 60 807 z m 268 879 l 383 879 l 517 1108 l 389 1108 l 326 993 l 267 1108 l 135 1108 z "},"ɲ":{"ha":639,"x_min":0,"x_max":0,"o":"m 60 -31 b -6 -104 60 -92 47 -104 l -32 -104 l -32 -267 l 22 -267 b 238 -58 186 -267 238 -225 l 238 532 b 328 658 238 614 264 658 b 406 546 388 658 406 619 l 406 0 l 585 0 l 585 575 b 393 817 585 735 522 817 b 225 690 306 817 250 769 l 206 807 l 60 807 z "},"ǹ":{"ha":639,"x_min":0,"x_max":0,"o":"m 60 0 l 238 0 l 238 532 b 328 658 238 614 264 658 b 406 546 388 658 406 619 l 406 0 l 585 0 l 585 575 b 393 817 585 735 522 817 b 225 690 306 817 250 769 l 206 807 l 60 807 z m 268 879 l 389 879 l 283 1094 l 110 1094 z "},"ņ":{"ha":639,"x_min":0,"x_max":0,"o":"m 60 0 l 238 0 l 238 532 b 328 658 238 614 264 658 b 406 546 388 658 406 619 l 406 0 l 585 0 l 585 575 b 393 817 585 735 522 817 b 225 690 306 817 250 769 l 206 807 l 60 807 z m 249 -292 l 249 -372 b 408 -172 357 -365 408 -290 b 321 -53 408 -81 388 -53 b 233 -143 257 -53 233 -76 b 306 -226 233 -212 254 -226 l 317 -226 b 249 -292 311 -268 292 -289 z "},"ñ":{"ha":639,"x_min":0,"x_max":0,"o":"m 60 0 l 238 0 l 238 532 b 328 658 238 614 264 658 b 406 546 388 658 406 619 l 406 0 l 585 0 l 585 575 b 393 817 585 735 522 817 b 225 690 306 817 250 769 l 206 807 l 60 807 z m 114 883 l 224 883 b 254 938 224 921 233 938 b 415 878 300 938 335 878 b 539 1061 500 878 538 928 l 428 1061 b 397 1008 428 1022 419 1008 b 236 1068 356 1008 318 1068 b 114 883 151 1068 115 1015 z "},"ŋ":{"ha":640,"x_min":0,"x_max":0,"o":"m 290 -267 l 369 -267 b 583 -58 533 -267 583 -225 l 583 574 b 393 817 583 735 522 817 b 225 689 306 817 249 769 l 206 807 l 58 807 l 58 0 l 238 0 l 238 532 b 326 661 238 615 265 661 b 404 546 386 661 404 619 l 404 -31 b 339 -104 404 -92 392 -104 l 290 -104 z "},"ó":{"ha":631,"x_min":0,"x_max":0,"o":"m 314 -14 b 582 263 488 -14 582 76 l 582 538 b 314 818 582 724 485 818 b 49 538 150 818 49 725 l 49 263 b 314 -14 49 75 136 -14 z m 315 143 b 225 267 256 143 225 183 l 225 536 b 315 665 225 625 254 665 b 404 536 378 665 404 624 l 404 267 b 315 143 404 183 374 143 z m 249 886 l 378 886 l 549 1101 l 374 1101 z "},"ŏ":{"ha":631,"x_min":0,"x_max":0,"o":"m 314 -14 b 582 263 488 -14 582 76 l 582 538 b 314 818 582 724 485 818 b 49 538 150 818 49 725 l 49 263 b 314 -14 49 75 136 -14 z m 315 143 b 225 267 256 143 225 183 l 225 536 b 315 665 225 625 254 665 b 404 536 378 665 404 624 l 404 267 b 315 143 404 183 374 143 z m 317 885 b 511 1099 451 885 511 954 l 392 1099 b 317 997 392 1024 371 999 b 243 1099 261 999 243 1025 l 124 1099 b 317 885 124 954 172 885 z "},"ǒ":{"ha":631,"x_min":0,"x_max":0,"o":"m 314 -14 b 582 263 488 -14 582 76 l 582 538 b 314 818 582 724 485 818 b 49 538 150 818 49 725 l 49 263 b 314 -14 49 75 136 -14 z m 315 143 b 225 267 256 143 225 183 l 225 536 b 315 665 225 625 254 665 b 404 536 378 665 404 624 l 404 267 b 315 143 404 183 374 143 z m 257 886 l 372 886 l 506 1115 l 378 1115 l 315 1000 l 256 1115 l 124 1115 z "},"ô":{"ha":631,"x_min":0,"x_max":0,"o":"m 314 -14 b 582 263 488 -14 582 76 l 582 538 b 314 818 582 724 485 818 b 49 538 150 818 49 725 l 49 263 b 314 -14 49 75 136 -14 z m 315 143 b 225 267 256 143 225 183 l 225 536 b 315 665 225 625 254 665 b 404 536 378 665 404 624 l 404 267 b 315 143 404 183 374 143 z m 126 886 l 256 886 l 317 1001 l 378 886 l 511 886 l 375 1115 l 260 1115 z "},"ố":{"ha":631,"x_min":0,"x_max":0,"o":"m 314 -14 b 582 263 488 -14 582 76 l 582 538 b 314 818 582 724 485 818 b 49 538 150 818 49 725 l 49 263 b 314 -14 49 75 136 -14 z m 315 143 b 225 267 256 143 225 183 l 225 536 b 315 665 225 625 254 665 b 404 536 378 665 404 624 l 404 267 b 315 143 404 183 374 143 z m 125 861 l 257 861 l 321 960 l 383 861 l 517 861 l 378 1063 l 261 1063 z m 446 1006 l 556 1006 l 650 1197 l 507 1197 z "},"ộ":{"ha":631,"x_min":0,"x_max":0,"o":"m 314 -14 b 582 263 488 -14 582 76 l 582 538 b 314 818 582 724 485 818 b 49 538 150 818 49 725 l 49 263 b 314 -14 49 75 136 -14 z m 315 143 b 225 267 256 143 225 183 l 225 536 b 315 665 225 625 254 665 b 404 536 378 665 404 624 l 404 267 b 315 143 404 183 374 143 z m 125 886 l 254 886 l 315 1001 l 376 886 l 510 886 l 374 1115 l 258 1115 z m 314 -296 b 411 -193 383 -296 411 -274 b 314 -90 411 -112 381 -90 b 217 -193 244 -90 217 -112 b 314 -296 217 -276 239 -296 z "},"ồ":{"ha":631,"x_min":0,"x_max":0,"o":"m 314 -14 b 582 263 488 -14 582 76 l 582 538 b 314 818 582 724 485 818 b 49 538 150 818 49 725 l 49 263 b 314 -14 49 75 136 -14 z m 315 143 b 225 267 256 143 225 183 l 225 536 b 315 665 225 625 254 665 b 404 536 378 665 404 624 l 404 267 b 315 143 404 183 374 143 z m 125 861 l 257 861 l 321 960 l 383 861 l 517 861 l 378 1063 l 261 1063 z m 571 1006 l 513 1197 l 369 1197 l 463 1006 z "},"ổ":{"ha":631,"x_min":0,"x_max":0,"o":"m 314 -14 b 582 263 488 -14 582 76 l 582 538 b 314 818 582 724 485 818 b 49 538 150 818 49 725 l 49 263 b 314 -14 49 75 136 -14 z m 315 143 b 225 267 256 143 225 183 l 225 536 b 315 665 225 625 254 665 b 404 536 378 665 404 624 l 404 267 b 315 143 404 183 374 143 z m 124 861 l 256 861 l 319 960 l 382 861 l 515 861 l 376 1063 l 260 1063 z m 589 1050 b 656 1146 640 1074 656 1101 b 507 1253 656 1211 601 1253 b 351 1118 401 1253 351 1210 l 461 1118 b 503 1161 461 1146 474 1161 b 540 1139 529 1161 540 1153 b 501 1106 540 1124 528 1119 b 449 1007 463 1086 449 1065 l 556 1007 b 589 1050 556 1029 561 1036 z "},"ỗ":{"ha":631,"x_min":0,"x_max":0,"o":"m 314 -14 b 582 263 488 -14 582 76 l 582 538 b 314 818 582 724 485 818 b 49 538 150 818 49 725 l 49 263 b 314 -14 49 75 136 -14 z m 315 143 b 225 267 256 143 225 183 l 225 536 b 315 665 225 625 254 665 b 404 536 378 665 404 624 l 404 267 b 315 143 404 183 374 143 z m 125 861 l 257 861 l 321 960 l 383 861 l 517 861 l 378 1063 l 261 1063 z m 119 1094 l 228 1094 b 260 1142 228 1125 238 1142 b 397 1090 297 1142 322 1090 b 513 1254 474 1090 511 1142 l 403 1254 b 372 1208 403 1222 393 1208 b 233 1258 336 1208 308 1258 b 119 1094 157 1258 121 1207 z "},"ö":{"ha":631,"x_min":0,"x_max":0,"o":"m 314 -14 b 582 263 488 -14 582 76 l 582 538 b 314 818 582 724 485 818 b 49 538 150 818 49 725 l 49 263 b 314 -14 49 75 136 -14 z m 315 143 b 225 267 256 143 225 183 l 225 536 b 315 665 225 625 254 665 b 404 536 378 665 404 624 l 404 267 b 315 143 404 183 374 143 z m 213 883 b 294 972 272 883 294 907 b 213 1063 294 1040 272 1063 b 132 972 156 1063 132 1040 b 213 883 132 901 151 883 z m 421 883 b 503 972 479 883 503 907 b 421 1063 503 1040 479 1063 b 340 972 361 1063 340 1040 b 421 883 340 901 358 883 z "},"ȯ":{"ha":631,"x_min":0,"x_max":0,"o":"m 314 -14 b 582 263 488 -14 582 76 l 582 538 b 314 818 582 724 485 818 b 49 538 150 818 49 725 l 49 263 b 314 -14 49 75 136 -14 z m 315 143 b 225 267 256 143 225 183 l 225 536 b 315 665 225 625 254 665 b 404 536 378 665 404 624 l 404 267 b 315 143 404 183 374 143 z m 315 885 b 413 986 385 885 413 907 b 315 1089 413 1068 383 1089 b 218 986 246 1089 218 1068 b 315 885 218 904 240 885 z "},"ọ":{"ha":631,"x_min":0,"x_max":0,"o":"m 314 -14 b 582 263 488 -14 582 76 l 582 538 b 314 818 582 724 485 818 b 49 538 150 818 49 725 l 49 263 b 314 -14 49 75 136 -14 z m 315 143 b 225 267 256 143 225 183 l 225 536 b 315 665 225 625 254 665 b 404 536 378 665 404 624 l 404 267 b 315 143 404 183 374 143 z m 314 -296 b 411 -193 383 -296 411 -274 b 314 -90 411 -112 381 -90 b 217 -193 244 -90 217 -112 b 314 -296 217 -276 239 -296 z "},"œ":{"ha":992,"x_min":0,"x_max":0,"o":"m 304 -14 b 492 64 397 -14 456 14 b 686 -14 526 15 586 -14 b 950 229 861 -14 950 86 l 950 283 l 768 283 l 768 233 b 675 138 768 175 742 138 b 578 267 608 138 578 181 l 578 351 l 950 351 l 950 544 b 689 818 950 701 869 818 b 496 735 593 818 532 788 b 308 818 461 789 401 818 b 47 538 150 818 47 722 l 47 263 b 304 -14 47 75 138 -14 z m 578 543 b 681 674 578 632 611 674 b 776 551 749 674 776 633 l 776 476 l 578 476 z m 317 143 b 224 267 257 143 224 183 l 224 535 b 317 663 224 625 256 663 b 408 535 378 663 408 624 l 408 267 b 317 143 408 183 375 143 z "},"ò":{"ha":631,"x_min":0,"x_max":0,"o":"m 314 -14 b 582 263 488 -14 582 76 l 582 538 b 314 818 582 724 485 818 b 49 538 150 818 49 725 l 49 263 b 314 -14 49 75 136 -14 z m 315 143 b 225 267 256 143 225 183 l 225 536 b 315 665 225 625 254 665 b 404 536 378 665 404 624 l 404 267 b 315 143 404 183 374 143 z m 258 886 l 379 886 l 274 1101 l 100 1101 z "},"ỏ":{"ha":631,"x_min":0,"x_max":0,"o":"m 314 -14 b 582 263 488 -14 582 76 l 582 538 b 314 818 582 724 485 818 b 49 538 150 818 49 725 l 49 263 b 314 -14 49 75 136 -14 z m 315 143 b 225 267 256 143 225 183 l 225 536 b 315 665 225 625 254 665 b 404 536 378 665 404 624 l 404 267 b 315 143 404 183 374 143 z m 408 939 b 481 1040 461 967 481 993 b 319 1154 481 1111 422 1154 b 151 1011 207 1154 151 1108 l 269 1011 b 317 1057 269 1042 283 1057 b 354 1032 342 1057 354 1049 b 317 1000 354 1019 344 1014 b 258 888 274 979 258 954 l 374 888 b 408 939 374 917 381 924 z "},"ơ":{"ha":631,"x_min":0,"x_max":0,"o":"m 314 -14 b 582 263 488 -14 582 76 l 582 538 b 507 751 582 633 556 706 b 626 900 594 764 626 807 l 626 957 l 475 957 l 475 906 b 403 817 475 835 458 817 b 325 818 383 817 363 818 l 325 817 b 314 818 321 817 318 818 b 49 538 150 818 49 725 l 49 263 b 314 -14 49 75 136 -14 z m 315 143 b 225 267 256 143 225 183 l 225 536 b 315 665 225 625 254 665 b 404 536 378 665 404 624 l 404 267 b 315 143 404 183 374 143 z "},"ớ":{"ha":631,"x_min":0,"x_max":0,"o":"m 314 -14 b 582 263 488 -14 582 76 l 582 538 b 507 751 582 633 556 706 b 626 900 594 764 626 807 l 626 957 l 475 957 l 475 906 b 403 817 475 835 458 817 b 325 818 383 817 363 818 l 325 817 b 314 818 321 817 318 818 b 49 538 150 818 49 725 l 49 263 b 314 -14 49 75 136 -14 z m 315 143 b 225 267 256 143 225 183 l 225 536 b 315 665 225 625 254 665 b 404 536 378 665 404 624 l 404 267 b 315 143 404 183 374 143 z m 222 876 l 351 876 l 522 1092 l 347 1092 z "},"ợ":{"ha":631,"x_min":0,"x_max":0,"o":"m 314 -14 b 582 263 488 -14 582 76 l 582 538 b 507 751 582 633 556 706 b 626 900 594 764 626 807 l 626 957 l 475 957 l 475 906 b 403 817 475 835 458 817 b 325 818 383 817 363 818 l 325 817 b 314 818 321 817 318 818 b 49 538 150 818 49 725 l 49 263 b 314 -14 49 75 136 -14 z m 315 143 b 225 267 256 143 225 183 l 225 536 b 315 665 225 625 254 665 b 404 536 378 665 404 624 l 404 267 b 315 143 404 183 374 143 z m 314 -296 b 411 -193 383 -296 411 -274 b 314 -90 411 -112 381 -90 b 217 -193 244 -90 217 -112 b 314 -296 217 -276 239 -296 z "},"ờ":{"ha":631,"x_min":0,"x_max":0,"o":"m 314 -14 b 582 263 488 -14 582 76 l 582 538 b 507 751 582 633 556 706 b 626 900 594 764 626 807 l 626 957 l 475 957 l 475 906 b 403 817 475 835 458 817 b 325 818 383 817 363 818 l 325 817 b 314 818 321 817 318 818 b 49 538 150 818 49 725 l 49 263 b 314 -14 49 75 136 -14 z m 315 143 b 225 267 256 143 225 183 l 225 536 b 315 665 225 625 254 665 b 404 536 378 665 404 624 l 404 267 b 315 143 404 183 374 143 z m 265 876 l 386 876 l 281 1092 l 107 1092 z "},"ở":{"ha":631,"x_min":0,"x_max":0,"o":"m 393 926 b 465 1029 446 954 465 982 b 301 1146 465 1103 406 1146 b 136 1000 192 1146 136 1099 l 251 1000 b 300 1046 251 1028 267 1046 b 339 1022 326 1046 339 1038 b 300 986 339 1008 328 1003 b 243 875 258 967 243 943 l 358 875 b 393 926 358 904 365 911 z m 314 -14 b 582 263 488 -14 582 76 l 582 538 b 507 751 582 633 556 706 b 626 900 594 764 626 807 l 626 957 l 475 957 l 475 906 b 403 817 475 835 458 817 b 325 818 383 817 363 818 l 325 817 b 314 818 321 817 318 818 b 49 538 150 818 49 725 l 49 263 b 314 -14 49 75 136 -14 z m 315 143 b 225 267 256 143 225 183 l 225 536 b 315 665 225 625 254 665 b 404 536 378 665 404 624 l 404 267 b 315 143 404 183 374 143 z "},"ỡ":{"ha":631,"x_min":0,"x_max":0,"o":"m 89 878 l 199 878 b 226 925 199 913 208 925 b 353 875 258 925 285 875 b 463 1049 426 875 461 931 l 353 1049 b 324 1003 353 1014 342 1003 b 200 1053 293 1003 267 1053 b 89 878 125 1053 90 1001 z m 314 -14 b 582 263 488 -14 582 76 l 582 538 b 507 751 582 633 556 706 b 626 900 594 764 626 807 l 626 957 l 475 957 l 475 906 b 403 817 475 835 458 817 b 325 818 383 817 363 818 l 325 817 b 314 818 321 817 318 818 b 49 538 150 818 49 725 l 49 263 b 314 -14 49 75 136 -14 z m 315 143 b 225 267 256 143 225 183 l 225 536 b 315 665 225 625 254 665 b 404 536 378 665 404 624 l 404 267 b 315 143 404 183 374 143 z "},"ő":{"ha":631,"x_min":0,"x_max":0,"o":"m 314 -14 b 582 263 488 -14 582 76 l 582 538 b 314 818 582 724 485 818 b 49 538 150 818 49 725 l 49 263 b 314 -14 49 75 136 -14 z m 315 143 b 225 267 256 143 225 183 l 225 536 b 315 665 225 625 254 665 b 404 536 378 665 404 624 l 404 267 b 315 143 404 183 374 143 z m 260 1101 l 168 886 l 272 886 l 407 1101 z m 451 1101 l 353 886 l 457 886 l 604 1101 z "},"ō":{"ha":631,"x_min":0,"x_max":0,"o":"m 314 -14 b 582 263 488 -14 582 76 l 582 538 b 314 818 582 724 485 818 b 49 538 150 818 49 725 l 49 263 b 314 -14 49 75 136 -14 z m 315 143 b 225 267 256 143 225 183 l 225 536 b 315 665 225 625 254 665 b 404 536 378 665 404 624 l 404 267 b 315 143 404 183 374 143 z m 161 896 l 468 896 l 468 1022 l 161 1022 z "},"ǫ":{"ha":631,"x_min":0,"x_max":0,"o":"m 335 -269 b 535 -110 444 -269 510 -219 l 392 -110 b 342 -160 388 -143 368 -160 b 300 -124 315 -160 300 -149 b 418 0 300 -96 317 -72 b 582 263 525 31 582 118 l 582 538 b 314 818 582 724 485 818 b 49 538 150 818 49 725 l 49 263 b 231 -6 49 107 108 19 b 167 -135 181 -50 167 -92 b 335 -269 167 -224 226 -269 z m 315 143 b 225 267 256 143 225 183 l 225 536 b 315 665 225 625 254 665 b 404 536 378 665 404 624 l 404 267 b 315 143 404 183 374 143 z "},"ø":{"ha":631,"x_min":0,"x_max":0,"o":"m 97 -125 l 256 -125 l 285 -12 b 314 -14 294 -14 304 -14 b 581 263 488 -14 581 76 l 581 538 b 481 772 581 649 546 728 l 521 917 l 367 917 l 339 817 b 314 818 331 817 322 818 b 49 538 150 818 49 725 l 49 263 b 142 31 49 151 79 75 z m 315 143 b 225 267 256 143 225 183 l 225 536 b 315 665 225 625 254 665 b 404 536 378 665 404 624 l 404 267 b 315 143 404 183 374 143 z "},"ǿ":{"ha":631,"x_min":0,"x_max":0,"o":"m 167 878 l 296 878 l 467 1092 l 293 1092 z m 97 -125 l 256 -125 l 285 -12 b 314 -14 294 -14 304 -14 b 581 263 488 -14 581 76 l 581 538 b 481 772 581 649 546 728 l 521 917 l 367 917 l 339 817 b 314 818 331 817 322 818 b 49 538 150 818 49 725 l 49 263 b 142 31 49 151 79 75 z m 315 143 b 225 267 256 143 225 183 l 225 536 b 315 665 225 625 254 665 b 404 536 378 665 404 624 l 404 267 b 315 143 404 183 374 143 z "},"õ":{"ha":631,"x_min":0,"x_max":0,"o":"m 314 -14 b 582 263 488 -14 582 76 l 582 538 b 314 818 582 724 485 818 b 49 538 150 818 49 725 l 49 263 b 314 -14 49 75 136 -14 z m 315 143 b 225 267 256 143 225 183 l 225 536 b 315 665 225 625 254 665 b 404 536 378 665 404 624 l 404 267 b 315 143 404 183 374 143 z m 103 890 l 213 890 b 243 944 213 928 222 944 b 404 885 289 944 324 885 b 528 1068 489 885 526 935 l 417 1068 b 386 1015 417 1029 408 1015 b 225 1075 344 1015 307 1075 b 103 890 140 1075 104 1022 z "},"ŕ":{"ha":426,"x_min":0,"x_max":0,"o":"m 60 0 l 235 0 l 235 468 b 358 615 235 579 256 615 l 407 615 l 407 815 l 381 815 b 215 665 267 815 225 782 l 189 807 l 60 807 z m 169 872 l 299 872 l 469 1088 l 294 1088 z "},"ř":{"ha":426,"x_min":0,"x_max":0,"o":"m 60 0 l 235 0 l 235 468 b 358 615 235 579 256 615 l 407 615 l 407 815 l 381 815 b 215 665 267 815 225 782 l 189 807 l 60 807 z m 178 872 l 293 872 l 426 1101 l 299 1101 l 236 986 l 176 1101 l 44 1101 z "},"ŗ":{"ha":426,"x_min":0,"x_max":0,"o":"m 60 0 l 235 0 l 235 468 b 358 615 235 579 256 615 l 407 615 l 407 815 l 381 815 b 215 665 267 815 225 782 l 189 807 l 60 807 z m 75 -294 l 75 -375 b 235 -175 183 -368 235 -293 b 147 -56 235 -83 214 -56 b 60 -146 83 -56 60 -79 b 132 -229 60 -215 81 -229 l 143 -229 b 75 -294 138 -271 118 -292 z "},"ś":{"ha":579,"x_min":0,"x_max":0,"o":"m 289 -14 b 550 222 464 -14 550 79 l 550 243 b 349 482 550 394 443 444 b 211 589 276 511 211 533 l 211 599 b 290 676 211 644 235 676 b 369 596 346 676 369 647 l 369 542 l 539 542 l 539 603 b 289 818 539 733 461 818 b 38 596 119 818 38 724 l 38 582 b 231 356 38 436 139 390 b 376 233 307 326 376 304 l 376 222 b 292 138 376 168 350 138 b 208 222 232 138 208 164 l 208 293 l 28 293 l 28 211 b 289 -14 28 63 104 -14 z m 221 888 l 350 888 l 521 1103 l 346 1103 z "},"š":{"ha":579,"x_min":0,"x_max":0,"o":"m 289 -14 b 550 222 464 -14 550 79 l 550 243 b 349 482 550 394 443 444 b 211 589 276 511 211 533 l 211 599 b 290 676 211 644 235 676 b 369 596 346 676 369 647 l 369 542 l 539 542 l 539 603 b 289 818 539 733 461 818 b 38 596 119 818 38 724 l 38 582 b 231 356 38 436 139 390 b 376 233 307 326 376 304 l 376 222 b 292 138 376 168 350 138 b 208 222 232 138 208 164 l 208 293 l 28 293 l 28 211 b 289 -14 28 63 104 -14 z m 229 888 l 344 888 l 478 1117 l 350 1117 l 288 1001 l 228 1117 l 96 1117 z "},"ş":{"ha":579,"x_min":0,"x_max":0,"o":"m 307 -336 b 496 -190 425 -336 496 -285 b 358 -68 496 -111 446 -74 l 358 -8 b 550 222 486 14 550 100 l 550 243 b 349 482 550 394 443 444 b 211 589 276 511 211 533 l 211 599 b 290 676 211 644 235 676 b 369 596 346 676 369 647 l 369 542 l 539 542 l 539 603 b 289 818 539 733 461 818 b 38 596 119 818 38 724 l 38 582 b 231 356 38 436 139 390 b 376 233 307 326 376 304 l 376 222 b 292 138 376 168 350 138 b 208 222 232 138 208 164 l 208 293 l 28 293 l 28 211 b 243 -12 28 75 92 0 l 243 -151 l 308 -151 b 369 -190 350 -151 369 -165 b 310 -233 369 -218 350 -233 b 243 -186 271 -233 249 -219 l 103 -186 b 307 -336 121 -287 181 -336 z "},"ŝ":{"ha":579,"x_min":0,"x_max":0,"o":"m 289 -14 b 550 222 464 -14 550 79 l 550 243 b 349 482 550 394 443 444 b 211 589 276 511 211 533 l 211 599 b 290 676 211 644 235 676 b 369 596 346 676 369 647 l 369 542 l 539 542 l 539 603 b 289 818 539 733 461 818 b 38 596 119 818 38 724 l 38 582 b 231 356 38 436 139 390 b 376 233 307 326 376 304 l 376 222 b 292 138 376 168 350 138 b 208 222 232 138 208 164 l 208 293 l 28 293 l 28 211 b 289 -14 28 63 104 -14 z m 99 888 l 228 888 l 289 1003 l 350 888 l 483 888 l 347 1117 l 232 1117 z "},"ș":{"ha":579,"x_min":0,"x_max":0,"o":"m 289 -14 b 550 222 464 -14 550 79 l 550 243 b 349 482 550 394 443 444 b 211 589 276 511 211 533 l 211 599 b 290 676 211 644 235 676 b 369 596 346 676 369 647 l 369 542 l 539 542 l 539 603 b 289 818 539 733 461 818 b 38 596 119 818 38 724 l 38 582 b 231 356 38 436 139 390 b 376 233 307 326 376 304 l 376 222 b 292 138 376 168 350 138 b 208 222 232 138 208 164 l 208 293 l 28 293 l 28 211 b 289 -14 28 63 104 -14 z m 228 -310 l 228 -390 b 388 -190 336 -383 388 -308 b 300 -71 388 -99 367 -71 b 213 -161 236 -71 213 -94 b 285 -244 213 -231 233 -244 l 296 -244 b 228 -310 290 -286 271 -307 z "},"ŧ":{"ha":425,"x_min":0,"x_max":0,"o":"m 322 0 l 399 0 l 399 169 l 365 169 b 274 281 294 169 274 182 l 274 354 l 358 354 l 358 468 l 274 468 l 274 636 l 399 636 l 399 807 l 274 807 l 274 958 l 147 958 b 129 871 143 921 139 897 b 83 811 119 842 106 824 b 17 796 63 800 42 797 l 17 636 l 106 636 l 106 468 l 32 468 l 32 354 l 106 354 l 106 242 b 322 0 106 51 157 0 z "},"ť":{"ha":426,"x_min":0,"x_max":0,"o":"m 107 242 b 324 0 107 51 157 0 l 399 0 l 399 169 l 365 169 b 275 281 296 169 275 182 l 275 636 l 399 636 l 399 807 l 275 807 l 275 958 l 147 958 b 129 871 143 921 140 897 b 83 811 119 842 106 824 b 17 796 63 800 42 797 l 17 636 l 107 636 z m 332 865 l 418 865 l 447 1142 l 332 1142 z "},"ţ":{"ha":426,"x_min":0,"x_max":0,"o":"m 107 242 b 219 11 107 99 135 35 l 219 -136 l 285 -136 b 346 -175 326 -136 346 -150 b 286 -218 346 -203 326 -218 b 219 -171 247 -218 225 -204 l 79 -171 b 283 -321 97 -272 157 -321 b 472 -175 401 -321 472 -269 b 335 -53 472 -96 422 -58 l 335 0 l 399 0 l 399 169 l 365 169 b 275 281 296 169 275 182 l 275 636 l 399 636 l 399 807 l 275 807 l 275 958 l 147 958 b 129 871 143 921 140 897 b 83 811 119 842 106 824 b 17 796 63 800 42 797 l 17 636 l 107 636 z "},"ț":{"ha":426,"x_min":0,"x_max":0,"o":"m 107 242 b 324 0 107 51 157 0 l 399 0 l 399 169 l 365 169 b 275 281 296 169 275 182 l 275 636 l 399 636 l 399 807 l 275 807 l 275 958 l 147 958 b 129 871 143 921 140 897 b 83 811 119 842 106 824 b 17 796 63 800 42 797 l 17 636 l 107 636 z m 204 -294 l 204 -375 b 364 -175 313 -368 364 -293 b 276 -56 364 -83 343 -56 b 189 -146 213 -56 189 -79 b 261 -229 189 -215 210 -229 l 272 -229 b 204 -294 267 -271 247 -292 z "},"ú":{"ha":631,"x_min":0,"x_max":0,"o":"m 247 -11 b 406 115 333 -11 383 33 l 426 0 l 571 0 l 571 807 l 393 807 l 393 275 b 311 146 393 193 369 146 b 236 260 253 146 236 188 l 236 807 l 57 807 l 57 229 b 247 -11 57 67 117 -11 z m 243 874 l 372 874 l 543 1089 l 368 1089 z "},"ʉ":{"ha":638,"x_min":0,"x_max":0,"o":"m 250 -11 b 408 115 336 -11 386 33 l 429 0 l 574 0 l 574 382 l 649 382 l 649 525 l 574 525 l 574 807 l 396 807 l 396 525 l 239 525 l 239 807 l 60 807 l 60 525 l -8 525 l -8 382 l 60 382 l 60 229 b 250 -11 60 67 119 -11 z m 239 260 l 239 382 l 396 382 l 396 275 b 314 146 396 193 372 146 b 239 260 256 146 239 188 z "},"ŭ":{"ha":631,"x_min":0,"x_max":0,"o":"m 247 -11 b 406 115 333 -11 383 33 l 426 0 l 571 0 l 571 807 l 393 807 l 393 275 b 311 146 393 193 369 146 b 236 260 253 146 236 188 l 236 807 l 57 807 l 57 229 b 247 -11 57 67 117 -11 z m 311 872 b 506 1086 446 872 506 942 l 386 1086 b 311 985 386 1011 365 986 b 238 1086 256 986 238 1013 l 118 1086 b 311 872 118 942 167 872 z "},"ǔ":{"ha":631,"x_min":0,"x_max":0,"o":"m 247 -11 b 406 115 333 -11 383 33 l 426 0 l 571 0 l 571 807 l 393 807 l 393 275 b 311 146 393 193 369 146 b 236 260 253 146 236 188 l 236 807 l 57 807 l 57 229 b 247 -11 57 67 117 -11 z m 250 874 l 365 874 l 499 1103 l 371 1103 l 308 988 l 249 1103 l 117 1103 z "},"û":{"ha":631,"x_min":0,"x_max":0,"o":"m 247 -11 b 406 115 333 -11 383 33 l 426 0 l 571 0 l 571 807 l 393 807 l 393 275 b 311 146 393 193 369 146 b 236 260 253 146 236 188 l 236 807 l 57 807 l 57 229 b 247 -11 57 67 117 -11 z m 124 874 l 253 874 l 314 989 l 375 874 l 508 874 l 372 1103 l 257 1103 z "},"ü":{"ha":631,"x_min":0,"x_max":0,"o":"m 247 -11 b 406 115 333 -11 383 33 l 426 0 l 571 0 l 571 807 l 393 807 l 393 275 b 311 146 393 193 369 146 b 236 260 253 146 236 188 l 236 807 l 57 807 l 57 229 b 247 -11 57 67 117 -11 z m 207 871 b 289 960 267 871 289 894 b 207 1050 289 1028 267 1050 b 126 960 150 1050 126 1028 b 207 871 126 889 146 871 z m 415 871 b 497 960 474 871 497 894 b 415 1050 497 1028 474 1050 b 335 960 356 1050 335 1028 b 415 871 335 889 353 871 z "},"ǘ":{"ha":631,"x_min":0,"x_max":0,"o":"m 247 -11 b 406 115 333 -11 383 33 l 426 0 l 571 0 l 571 807 l 393 807 l 393 275 b 311 146 393 193 369 146 b 236 260 253 146 236 188 l 236 807 l 57 807 l 57 229 b 247 -11 57 67 117 -11 z m 207 851 b 288 932 265 851 288 875 b 207 1014 288 992 265 1014 b 126 932 149 1014 126 992 b 207 851 126 871 146 851 z m 411 851 b 492 932 469 851 492 875 b 411 1014 492 992 468 1014 b 331 932 351 1014 331 992 b 411 851 331 871 349 851 z m 246 1042 l 356 1042 l 450 1233 l 307 1233 z "},"ǚ":{"ha":631,"x_min":0,"x_max":0,"o":"m 247 -11 b 406 115 333 -11 383 33 l 426 0 l 571 0 l 571 807 l 393 807 l 393 275 b 311 146 393 193 369 146 b 236 260 253 146 236 188 l 236 807 l 57 807 l 57 229 b 247 -11 57 67 117 -11 z m 207 851 b 288 932 265 851 288 875 b 207 1014 288 992 265 1014 b 126 932 149 1014 126 992 b 207 851 126 871 146 851 z m 411 851 b 492 932 469 851 492 875 b 411 1014 492 992 468 1014 b 331 932 351 1014 331 992 b 411 851 331 871 349 851 z m 115 1240 l 253 1040 l 368 1040 l 507 1240 l 374 1240 l 310 1142 l 246 1240 z "},"ǜ":{"ha":631,"x_min":0,"x_max":0,"o":"m 247 -11 b 406 115 333 -11 383 33 l 426 0 l 571 0 l 571 807 l 393 807 l 393 275 b 311 146 393 193 369 146 b 236 260 253 146 236 188 l 236 807 l 57 807 l 57 229 b 247 -11 57 67 117 -11 z m 207 850 b 288 931 265 850 288 874 b 207 1013 288 990 265 1013 b 126 931 149 1013 126 990 b 207 850 126 869 146 850 z m 411 850 b 492 931 469 850 492 874 b 411 1013 492 990 468 1013 b 331 931 351 1013 331 990 b 411 850 331 869 349 850 z m 368 1039 l 310 1231 l 167 1231 l 260 1039 z "},"ǖ":{"ha":631,"x_min":0,"x_max":0,"o":"m 247 -11 b 406 115 333 -11 383 33 l 426 0 l 571 0 l 571 807 l 393 807 l 393 275 b 311 146 393 193 369 146 b 236 260 253 146 236 188 l 236 807 l 57 807 l 57 229 b 247 -11 57 67 117 -11 z m 207 851 b 288 932 265 851 288 875 b 207 1014 288 992 265 1014 b 126 932 149 1014 126 992 b 207 851 126 871 146 851 z m 411 851 b 492 932 469 851 492 875 b 411 1014 492 992 468 1014 b 331 932 351 1014 331 992 b 411 851 331 871 349 851 z m 146 1042 l 464 1042 l 464 1160 l 144 1160 z "},"ụ":{"ha":631,"x_min":0,"x_max":0,"o":"m 247 -11 b 406 115 333 -11 383 33 l 426 0 l 571 0 l 571 807 l 393 807 l 393 275 b 311 146 393 193 369 146 b 236 260 253 146 236 188 l 236 807 l 57 807 l 57 229 b 247 -11 57 67 117 -11 z m 311 -286 b 408 -183 381 -286 408 -264 b 311 -81 408 -103 378 -81 b 214 -183 242 -81 214 -103 b 311 -286 214 -267 236 -286 z "},"ù":{"ha":631,"x_min":0,"x_max":0,"o":"m 247 -11 b 406 115 333 -11 383 33 l 426 0 l 571 0 l 571 807 l 393 807 l 393 275 b 311 146 393 193 369 146 b 236 260 253 146 236 188 l 236 807 l 57 807 l 57 229 b 247 -11 57 67 117 -11 z m 253 872 l 374 872 l 268 1088 l 94 1088 z "},"ủ":{"ha":631,"x_min":0,"x_max":0,"o":"m 247 -11 b 406 115 333 -11 383 33 l 426 0 l 571 0 l 571 807 l 393 807 l 393 275 b 311 146 393 193 369 146 b 236 260 253 146 236 188 l 236 807 l 57 807 l 57 229 b 247 -11 57 67 117 -11 z m 401 925 b 474 1026 454 953 474 979 b 313 1140 474 1097 415 1140 b 144 997 200 1140 144 1094 l 263 997 b 310 1043 263 1028 276 1043 b 347 1018 335 1043 347 1035 b 310 986 347 1006 338 1000 b 251 874 267 965 251 940 l 367 874 b 401 925 367 903 374 910 z "},"ư":{"ha":631,"x_min":0,"x_max":0,"o":"m 247 -11 b 406 115 333 -11 383 33 l 426 0 l 571 0 l 571 753 b 671 890 644 765 671 807 l 671 956 l 522 956 l 522 882 b 450 807 522 822 507 808 l 393 807 l 393 275 b 311 146 393 193 369 146 b 236 260 253 146 236 188 l 236 807 l 57 807 l 57 229 b 247 -11 57 67 117 -11 z "},"ứ":{"ha":631,"x_min":0,"x_max":0,"o":"m 247 -11 b 406 115 333 -11 383 33 l 426 0 l 571 0 l 571 753 b 671 890 644 765 671 807 l 671 956 l 522 956 l 522 882 b 450 807 522 822 507 808 l 393 807 l 393 275 b 311 146 393 193 369 146 b 236 260 253 146 236 188 l 236 807 l 57 807 l 57 229 b 247 -11 57 67 117 -11 z m 243 868 l 372 868 l 543 1083 l 368 1083 z "},"ự":{"ha":631,"x_min":0,"x_max":0,"o":"m 247 -11 b 406 115 333 -11 383 33 l 426 0 l 571 0 l 571 753 b 671 890 644 765 671 807 l 671 956 l 522 956 l 522 882 b 450 807 522 822 507 808 l 393 807 l 393 275 b 311 146 393 193 369 146 b 236 260 253 146 236 188 l 236 807 l 57 807 l 57 229 b 247 -11 57 67 117 -11 z m 311 -286 b 408 -183 381 -286 408 -264 b 311 -81 408 -103 378 -81 b 214 -183 242 -81 214 -103 b 311 -286 214 -267 236 -286 z "},"ừ":{"ha":631,"x_min":0,"x_max":0,"o":"m 247 -11 b 406 115 333 -11 383 33 l 426 0 l 571 0 l 571 753 b 671 890 644 765 671 807 l 671 956 l 522 956 l 522 882 b 450 807 522 822 507 808 l 393 807 l 393 275 b 311 146 393 193 369 146 b 236 260 253 146 236 188 l 236 807 l 57 807 l 57 229 b 247 -11 57 67 117 -11 z m 267 868 l 388 868 l 282 1083 l 108 1083 z "},"ử":{"ha":631,"x_min":0,"x_max":0,"o":"m 404 919 b 475 1021 454 947 475 974 b 314 1135 475 1092 417 1135 b 147 992 201 1135 147 1089 l 265 992 b 311 1038 265 1022 276 1038 b 350 1014 338 1038 350 1029 b 313 981 350 1000 339 994 b 253 868 269 960 253 935 l 368 868 b 404 919 368 897 375 904 z m 247 -11 b 406 115 333 -11 383 33 l 426 0 l 571 0 l 571 753 b 671 890 644 765 671 807 l 671 956 l 522 956 l 522 882 b 450 807 522 822 507 808 l 393 807 l 393 275 b 311 146 393 193 369 146 b 236 260 253 146 236 188 l 236 807 l 57 807 l 57 229 b 247 -11 57 67 117 -11 z "},"ữ":{"ha":631,"x_min":0,"x_max":0,"o":"m 115 872 l 225 872 b 251 919 225 907 235 919 b 383 868 286 919 313 868 b 494 1043 458 868 493 925 l 385 1043 b 357 997 385 1008 375 997 b 225 1047 324 997 296 1047 b 115 872 150 1047 117 996 z m 247 -11 b 406 115 333 -11 383 33 l 426 0 l 571 0 l 571 753 b 671 890 644 765 671 807 l 671 956 l 522 956 l 522 882 b 450 807 522 822 507 808 l 393 807 l 393 275 b 311 146 393 193 369 146 b 236 260 253 146 236 188 l 236 807 l 57 807 l 57 229 b 247 -11 57 67 117 -11 z "},"ű":{"ha":631,"x_min":0,"x_max":0,"o":"m 247 -11 b 406 115 333 -11 383 33 l 426 0 l 571 0 l 571 807 l 393 807 l 393 275 b 311 146 393 193 369 146 b 236 260 253 146 236 188 l 236 807 l 57 807 l 57 229 b 247 -11 57 67 117 -11 z m 254 1089 l 163 874 l 267 874 l 401 1089 z m 446 1089 l 347 874 l 451 874 l 599 1089 z "},"ū":{"ha":631,"x_min":0,"x_max":0,"o":"m 247 -11 b 406 115 333 -11 383 33 l 426 0 l 571 0 l 571 807 l 393 807 l 393 275 b 311 146 393 193 369 146 b 236 260 253 146 236 188 l 236 807 l 57 807 l 57 229 b 247 -11 57 67 117 -11 z m 156 883 l 463 883 l 463 1010 l 156 1010 z "},"ų":{"ha":631,"x_min":0,"x_max":0,"o":"m 247 -11 b 406 115 333 -11 383 33 l 422 25 b 306 -144 329 -36 306 -89 b 474 -279 306 -233 365 -279 b 674 -119 583 -279 649 -229 l 531 -119 b 481 -169 526 -153 507 -169 b 439 -133 454 -169 439 -158 b 571 0 439 -104 457 -81 l 571 807 l 393 807 l 393 275 b 311 146 393 193 369 146 b 236 260 253 146 236 188 l 236 807 l 57 807 l 57 229 b 247 -11 57 67 117 -11 z "},"ů":{"ha":631,"x_min":0,"x_max":0,"o":"m 247 -11 b 406 115 333 -11 383 33 l 426 0 l 571 0 l 571 807 l 393 807 l 393 275 b 311 146 393 193 369 146 b 236 260 253 146 236 188 l 236 807 l 57 807 l 57 229 b 247 -11 57 67 117 -11 z m 310 874 b 468 1021 407 874 468 928 b 310 1169 468 1115 406 1169 b 151 1019 218 1169 151 1115 b 310 874 151 924 214 874 z m 310 976 b 264 1021 279 976 264 994 b 310 1068 264 1049 281 1068 b 356 1021 340 1068 356 1049 b 310 976 356 993 336 976 z "},"ũ":{"ha":631,"x_min":0,"x_max":0,"o":"m 247 -11 b 406 115 333 -11 383 33 l 426 0 l 571 0 l 571 807 l 393 807 l 393 275 b 311 146 393 193 369 146 b 236 260 253 146 236 188 l 236 807 l 57 807 l 57 229 b 247 -11 57 67 117 -11 z m 100 878 l 210 878 b 240 932 210 915 219 932 b 401 872 286 932 321 872 b 525 1056 486 872 524 922 l 414 1056 b 383 1003 414 1017 406 1003 b 222 1063 342 1003 304 1063 b 100 878 138 1063 101 1010 z "},"ẃ":{"ha":861,"x_min":0,"x_max":0,"o":"m 146 0 l 314 0 l 411 421 l 424 553 l 435 422 l 524 0 l 692 0 l 857 807 l 688 807 l 604 344 l 594 188 l 579 347 l 482 807 l 371 807 l 268 347 l 244 194 l 244 347 l 174 807 l 4 807 z m 353 878 l 482 878 l 653 1093 l 478 1093 z "},"ŵ":{"ha":861,"x_min":0,"x_max":0,"o":"m 146 0 l 314 0 l 411 421 l 424 553 l 435 422 l 524 0 l 692 0 l 857 807 l 688 807 l 604 344 l 594 188 l 579 347 l 482 807 l 371 807 l 268 347 l 244 194 l 244 347 l 174 807 l 4 807 z m 232 878 l 361 878 l 422 993 l 483 878 l 617 878 l 481 1107 l 365 1107 z "},"ẅ":{"ha":861,"x_min":0,"x_max":0,"o":"m 146 0 l 314 0 l 411 421 l 424 553 l 435 422 l 524 0 l 692 0 l 857 807 l 688 807 l 604 344 l 594 188 l 579 347 l 482 807 l 371 807 l 268 347 l 244 194 l 244 347 l 174 807 l 4 807 z m 318 875 b 400 964 378 875 400 899 b 318 1054 400 1032 378 1054 b 238 964 261 1054 238 1032 b 318 875 238 893 257 875 z m 526 875 b 608 964 585 875 608 899 b 526 1054 608 1032 585 1054 b 446 964 467 1054 446 1032 b 526 875 446 893 464 875 z "},"ẁ":{"ha":861,"x_min":0,"x_max":0,"o":"m 146 0 l 314 0 l 411 421 l 424 553 l 435 422 l 524 0 l 692 0 l 857 807 l 688 807 l 604 344 l 594 188 l 579 347 l 482 807 l 371 807 l 268 347 l 244 194 l 244 347 l 174 807 l 4 807 z m 363 878 l 483 878 l 378 1093 l 204 1093 z "},"ẋ":{"ha":603,"x_min":0,"x_max":0,"o":"m 6 0 l 194 0 l 293 240 l 303 296 l 313 240 l 413 0 l 600 0 l 404 425 l 581 807 l 394 807 l 310 588 l 301 538 l 293 589 l 211 807 l 24 807 l 201 425 z m 303 872 b 400 974 372 872 400 894 b 303 1076 400 1056 371 1076 b 206 974 233 1076 206 1056 b 303 872 206 892 228 872 z "},"ý":{"ha":600,"x_min":0,"x_max":0,"o":"m 42 -247 l 129 -247 b 374 -44 289 -247 332 -211 l 590 807 l 415 807 l 318 374 l 306 221 l 294 372 l 190 807 l 11 807 l 225 39 l 214 -8 b 110 -81 200 -69 181 -81 l 42 -81 z m 229 872 l 358 872 l 529 1088 l 354 1088 z "},"ŷ":{"ha":600,"x_min":0,"x_max":0,"o":"m 42 -247 l 129 -247 b 374 -44 289 -247 332 -211 l 590 807 l 415 807 l 318 374 l 306 221 l 294 372 l 190 807 l 11 807 l 225 39 l 214 -8 b 110 -81 200 -69 181 -81 l 42 -81 z m 111 874 l 240 874 l 301 989 l 363 874 l 496 874 l 360 1103 l 244 1103 z "},"ÿ":{"ha":600,"x_min":0,"x_max":0,"o":"m 42 -247 l 129 -247 b 374 -44 289 -247 332 -211 l 590 807 l 415 807 l 318 374 l 306 221 l 294 372 l 190 807 l 11 807 l 225 39 l 214 -8 b 110 -81 200 -69 181 -81 l 42 -81 z m 194 871 b 276 960 254 871 276 894 b 194 1050 276 1028 254 1050 b 114 960 138 1050 114 1028 b 194 871 114 889 133 871 z m 403 871 b 485 960 461 871 485 894 b 403 1050 485 1028 461 1050 b 322 960 343 1050 322 1028 b 403 871 322 889 340 871 z "},"ỵ":{"ha":600,"x_min":0,"x_max":0,"o":"m 42 -247 l 129 -247 b 374 -44 289 -247 332 -211 l 590 807 l 415 807 l 318 374 l 306 221 l 294 372 l 190 807 l 11 807 l 225 39 l 214 -8 b 110 -81 200 -69 181 -81 l 42 -81 z m 472 -246 b 557 -143 529 -246 557 -224 b 472 -40 557 -62 528 -40 b 388 -143 415 -40 388 -62 b 472 -246 388 -226 410 -246 z "},"ỳ":{"ha":600,"x_min":0,"x_max":0,"o":"m 42 -247 l 129 -247 b 374 -44 289 -247 332 -211 l 590 807 l 415 807 l 318 374 l 306 221 l 294 372 l 190 807 l 11 807 l 225 39 l 214 -8 b 110 -81 200 -69 181 -81 l 42 -81 z m 239 872 l 360 872 l 254 1088 l 81 1088 z "},"ỷ":{"ha":600,"x_min":0,"x_max":0,"o":"m 42 -247 l 129 -247 b 374 -44 289 -247 332 -211 l 590 807 l 415 807 l 318 374 l 306 221 l 294 372 l 190 807 l 11 807 l 225 39 l 214 -8 b 110 -81 200 -69 181 -81 l 42 -81 z m 389 925 b 461 1026 442 953 461 979 b 300 1140 461 1097 403 1140 b 132 997 188 1140 132 1094 l 250 997 b 297 1043 250 1028 264 1043 b 335 1018 322 1043 335 1035 b 297 986 335 1006 325 1000 b 239 874 254 965 239 940 l 354 874 b 389 925 354 903 361 910 z "},"ȳ":{"ha":600,"x_min":0,"x_max":0,"o":"m 42 -247 l 129 -247 b 374 -44 289 -247 332 -211 l 590 807 l 415 807 l 318 374 l 306 221 l 294 372 l 190 807 l 11 807 l 225 39 l 214 -8 b 110 -81 200 -69 181 -81 l 42 -81 z m 143 883 l 450 883 l 450 1010 l 143 1010 z "},"ỹ":{"ha":600,"x_min":0,"x_max":0,"o":"m 42 -247 l 129 -247 b 374 -44 289 -247 332 -211 l 590 807 l 415 807 l 318 374 l 306 221 l 294 372 l 190 807 l 11 807 l 225 39 l 214 -8 b 110 -81 200 -69 181 -81 l 42 -81 z m 81 878 l 190 878 b 221 932 190 915 200 932 b 382 872 267 932 301 872 b 506 1056 467 872 504 922 l 394 1056 b 364 1003 394 1017 386 1003 b 203 1063 322 1003 285 1063 b 81 878 118 1063 82 1010 z "},"ź":{"ha":533,"x_min":0,"x_max":0,"o":"m 36 0 l 500 0 l 501 160 l 240 160 l 500 661 l 500 807 l 49 807 l 49 651 l 306 651 l 36 139 z m 206 878 l 335 878 l 506 1093 l 331 1093 z "},"ž":{"ha":533,"x_min":0,"x_max":0,"o":"m 36 0 l 500 0 l 501 160 l 240 160 l 500 661 l 500 807 l 49 807 l 49 651 l 306 651 l 36 139 z m 219 878 l 335 878 l 468 1107 l 340 1107 l 278 992 l 218 1107 l 86 1107 z "},"ż":{"ha":533,"x_min":0,"x_max":0,"o":"m 36 0 l 500 0 l 501 160 l 240 160 l 500 661 l 500 807 l 49 807 l 49 651 l 306 651 l 36 139 z m 276 876 b 374 978 346 876 374 899 b 276 1081 374 1060 344 1081 b 179 978 207 1081 179 1060 b 276 876 179 896 201 876 z "},"ƶ":{"ha":533,"x_min":0,"x_max":0,"o":"m 36 0 l 500 0 l 501 160 l 240 160 l 340 354 l 481 354 l 481 465 l 399 465 l 500 661 l 500 807 l 49 807 l 49 651 l 306 651 l 210 468 l 68 468 l 68 358 l 151 358 l 36 139 z "},"þ":{"ha":643,"x_min":0,"x_max":0,"o":"m 58 -257 l 233 -257 l 233 86 b 383 -14 258 24 306 -14 b 596 296 519 -12 596 78 l 596 519 b 388 818 596 733 517 818 b 233 710 307 818 258 779 l 233 1042 l 58 1042 z m 324 146 b 232 282 263 146 232 193 l 232 529 b 326 667 232 617 264 667 b 418 524 388 667 418 628 l 418 286 b 324 146 418 183 386 146 z "},"ə":{"ha":618,"x_min":0,"x_max":0,"o":"m 308 818 b 43 546 92 817 43 696 l 43 525 l 219 525 l 219 550 b 306 664 219 621 239 664 b 403 539 376 664 403 628 l 403 451 l 43 451 l 43 263 b 308 -14 43 99 121 -14 b 575 268 472 -14 575 89 l 575 539 b 308 818 575 722 494 819 z m 215 261 l 215 329 l 403 329 l 403 268 b 306 136 403 179 374 136 b 215 261 236 136 215 178 z "},"ɣ":{"ha":582,"x_min":0,"x_max":0,"o":"m 289 -328 b 457 -178 401 -328 457 -253 b 385 46 457 -112 428 -54 l 574 807 l 396 807 l 290 271 l 186 807 l 8 807 l 192 50 b 119 -179 147 -51 119 -110 b 289 -328 119 -251 172 -328 z m 260 -165 b 288 -78 260 -147 267 -125 b 317 -167 310 -124 317 -146 b 289 -200 317 -187 306 -200 b 260 -165 269 -200 260 -185 z "},"ɛ":{"ha":604,"x_min":0,"x_max":0,"o":"m 561 586 b 303 819 561 731 479 819 b 54 599 131 819 54 742 l 54 582 b 167 413 54 501 83 439 b 43 232 78 389 43 329 l 43 215 b 310 -14 43 74 129 -14 b 568 217 489 -14 568 72 l 568 294 l 396 294 l 396 239 b 308 138 396 171 369 138 b 215 233 244 138 215 171 l 217 253 b 300 343 217 318 242 343 l 393 343 l 393 482 l 304 482 b 225 568 249 482 225 510 l 225 589 b 307 676 225 647 247 676 b 389 576 364 676 389 643 l 389 528 l 561 528 z "},"ﬁ":{"ha":715,"x_min":0,"x_max":0,"o":"m 15 807 l 15 647 l 107 647 l 107 0 l 279 0 l 279 647 l 396 647 l 396 807 l 279 807 l 279 850 b 347 931 279 913 292 931 l 396 931 l 396 1085 l 319 1085 b 107 865 171 1085 107 1025 l 107 807 z m 568 853 b 672 956 640 853 672 876 b 568 1058 672 1035 640 1058 b 464 956 493 1058 464 1035 b 568 853 464 875 489 853 z m 475 0 l 657 0 l 657 804 b 567 790 636 797 606 790 b 475 804 525 790 496 796 z "},"ﬂ":{"ha":713,"x_min":0,"x_max":0,"o":"m 15 807 l 15 647 l 107 647 l 107 0 l 279 0 l 279 647 l 396 647 l 396 807 l 279 807 l 279 850 b 347 931 279 913 292 931 l 396 931 l 396 1085 l 319 1085 b 107 865 171 1085 107 1025 l 107 807 z m 476 1042 l 476 0 l 651 0 l 651 1042 z "},"ª":{"ha":467,"x_min":0,"x_max":0,"o":"m 163 438 b 299 508 225 438 271 463 l 313 446 l 432 446 l 432 838 b 242 1007 432 950 367 1007 b 39 840 113 1007 42 946 l 39 790 l 186 790 l 186 835 b 242 894 186 878 206 894 b 292 843 279 894 292 879 l 292 825 b 208 761 292 793 272 779 b 82 710 151 744 114 732 b 28 600 49 688 28 650 l 28 571 b 163 438 28 486 72 438 z m 225 542 b 185 585 197 542 185 560 l 185 618 b 199 661 185 636 189 650 b 239 686 207 672 222 679 b 292 711 265 696 281 701 l 292 622 b 225 542 292 574 267 542 z "},"º":{"ha":472,"x_min":0,"x_max":0,"o":"m 235 439 b 432 631 356 439 432 503 l 432 815 b 236 1008 432 943 351 1008 b 39 815 122 1008 39 944 l 39 631 b 235 439 39 501 108 439 z m 236 567 b 182 635 199 567 182 588 l 182 813 b 236 886 182 865 200 886 b 290 813 272 886 290 865 l 290 633 b 236 567 290 586 272 567 z "},"&":{"ha":813,"x_min":0,"x_max":0,"o":"m 321 -14 b 525 40 397 -14 467 4 b 676 -12 574 6 625 -12 b 790 21 735 -12 767 0 l 790 171 b 700 136 768 149 742 136 b 644 150 682 136 664 140 b 758 414 699 221 739 313 b 775 615 772 483 776 547 l 622 615 b 617 503 622 576 621 546 b 533 253 606 400 576 315 b 458 378 508 286 483 328 b 406 497 439 418 421 458 b 617 808 542 585 617 672 l 617 815 b 404 1011 617 942 536 1011 b 189 776 271 1011 189 926 l 189 767 b 225 553 189 701 201 629 b 33 256 118 485 33 408 l 33 231 b 321 -14 33 68 140 -14 z m 340 772 l 340 782 b 407 879 340 847 364 879 b 468 808 449 879 468 856 l 468 804 b 360 633 468 725 429 681 b 340 772 347 683 340 729 z m 208 253 l 208 267 b 275 415 208 336 231 378 b 318 315 289 381 304 346 b 417 153 350 253 382 199 b 332 136 390 142 361 136 b 208 253 250 136 208 183 z "},"´":{"ha":543,"x_min":0,"x_max":0,"o":"m 151 883 l 281 883 l 451 1099 l 276 1099 z "},"˘":{"ha":543,"x_min":0,"x_max":0,"o":"m 269 882 b 464 1096 404 882 464 951 l 344 1096 b 269 994 344 1021 324 996 b 196 1096 214 996 196 1022 l 76 1096 b 269 882 76 951 125 882 z "},"ˇ":{"ha":543,"x_min":0,"x_max":0,"o":"m 213 883 l 328 883 l 461 1113 l 333 1113 l 271 997 l 211 1113 l 79 1113 z "},"¸":{"ha":543,"x_min":0,"x_max":0,"o":"m 272 -321 b 461 -175 390 -321 461 -269 b 324 -53 461 -96 411 -58 l 324 15 l 208 15 l 208 -136 l 274 -136 b 335 -175 315 -136 335 -150 b 275 -218 335 -203 315 -218 b 208 -171 236 -218 214 -204 l 68 -171 b 272 -321 86 -272 146 -321 z "},"ˆ":{"ha":543,"x_min":0,"x_max":0,"o":"m 79 883 l 208 883 l 269 999 l 331 883 l 464 883 l 328 1113 l 213 1113 z "},"":{"ha":544,"x_min":0,"x_max":0,"o":"m 192 -294 l 192 -375 b 351 -175 300 -368 351 -293 b 264 -56 351 -83 331 -56 b 176 -146 200 -56 176 -79 b 249 -229 176 -215 197 -229 l 260 -229 b 192 -294 254 -271 235 -292 z "},"¨":{"ha":546,"x_min":0,"x_max":0,"o":"m 168 881 b 250 969 228 881 250 904 b 168 1060 250 1038 228 1060 b 88 969 111 1060 88 1038 b 168 881 88 899 107 881 z m 376 881 b 458 969 435 881 458 904 b 376 1060 458 1038 435 1060 b 296 969 317 1060 296 1038 b 376 881 296 899 314 881 z "},"˙":{"ha":544,"x_min":0,"x_max":0,"o":"m 267 882 b 364 983 336 882 364 904 b 267 1086 364 1065 335 1086 b 169 983 197 1086 169 1065 b 267 882 169 901 192 882 z "},"̣":{"ha":544,"x_min":0,"x_max":0,"o":"m 267 -282 b 364 -179 336 -282 364 -260 b 267 -76 364 -99 333 -76 b 169 -179 197 -76 169 -99 b 267 -282 169 -262 192 -282 z "},"̏":{"ha":543,"x_min":0,"x_max":0,"o":"m 183 883 l 289 883 l 186 1099 l 33 1099 z m 363 883 l 468 883 l 381 1099 l 232 1099 z "},"`":{"ha":543,"x_min":0,"x_max":0,"o":"m 263 883 l 383 883 l 278 1099 l 104 1099 z "},"˝":{"ha":543,"x_min":0,"x_max":0,"o":"m 160 1099 l 68 883 l 172 883 l 307 1099 z m 351 1099 l 253 883 l 357 883 l 504 1099 z "},"̑":{"ha":543,"x_min":0,"x_max":0,"o":"m 271 1097 b 76 883 140 1097 76 1022 l 197 883 b 271 988 197 957 221 986 b 344 883 322 986 344 957 l 468 883 b 271 1097 468 1022 403 1097 z "},"¯":{"ha":543,"x_min":0,"x_max":0,"o":"m 118 893 l 425 893 l 425 1019 l 118 1019 z "},"˛":{"ha":543,"x_min":0,"x_max":0,"o":"m 263 -279 b 463 -119 372 -279 438 -229 l 319 -119 b 269 -169 315 -153 296 -169 b 228 -133 243 -169 228 -158 b 360 0 228 -104 246 -81 l 254 51 b 94 -144 125 -22 94 -81 b 263 -279 94 -233 154 -279 z "},"˚":{"ha":543,"x_min":0,"x_max":0,"o":"m 271 885 b 429 1032 368 885 429 939 b 271 1181 429 1126 367 1181 b 113 1031 179 1181 113 1126 b 271 885 113 935 175 885 z m 271 988 b 225 1032 240 988 225 1006 b 271 1079 225 1060 242 1079 b 317 1032 301 1079 317 1060 b 271 988 317 1004 297 988 z "},"˜":{"ha":543,"x_min":0,"x_max":0,"o":"m 61 888 l 171 888 b 201 942 171 925 181 942 b 363 882 247 942 282 882 b 486 1065 447 882 485 932 l 375 1065 b 344 1013 375 1026 367 1013 b 183 1072 303 1013 265 1072 b 61 888 99 1072 63 1019 z "},"΄":{"ha":447,"x_min":0,"x_max":0,"o":"m 140 885 l 261 885 l 351 1099 l 199 1099 z "},"΅":{"ha":540,"x_min":0,"x_max":0,"o":"m 168 861 b 249 942 226 861 249 885 b 168 1024 249 1001 226 1024 b 88 942 110 1024 88 1001 b 168 861 88 881 107 861 z m 372 861 b 453 942 431 861 453 885 b 372 1024 453 1001 429 1024 b 292 942 313 1024 292 1001 b 372 861 292 881 310 861 z m 207 1051 l 317 1051 l 411 1243 l 268 1243 z "},"῭":{"ha":540,"x_min":0,"x_max":0,"o":"m 168 861 b 249 942 226 861 249 885 b 168 1024 249 1001 226 1024 b 88 942 110 1024 88 1001 b 168 861 88 881 107 861 z m 372 861 b 453 942 431 861 453 885 b 372 1024 453 1001 429 1024 b 292 942 313 1024 292 1001 b 372 861 292 881 310 861 z m 329 1050 l 271 1242 l 128 1242 l 221 1050 z "},"΅":{"ha":626,"x_min":0,"x_max":0,"o":"m 231 883 l 340 883 l 417 1097 l 275 1097 z m 143 882 b 214 971 193 882 214 906 b 143 1058 214 1036 192 1058 b 72 971 93 1058 72 1036 b 143 882 72 904 92 882 z m 482 882 b 554 971 533 882 554 906 b 482 1058 554 1036 533 1058 b 413 971 433 1058 413 1036 b 482 882 413 904 432 882 z "},".":{"ha":346,"x_min":0,"x_max":0,"o":"m 172 -11 b 279 108 250 -11 279 14 b 172 228 279 206 250 228 b 65 108 93 228 65 206 b 172 -11 65 11 89 -11 z "},",":{"ha":346,"x_min":0,"x_max":0,"o":"m 81 -89 l 82 -179 b 281 71 218 -168 281 -79 b 174 217 281 190 254 217 b 67 103 94 217 67 196 b 153 -7 67 10 93 -7 b 172 -6 160 -7 167 -7 b 81 -89 165 -57 136 -82 z "},":":{"ha":347,"x_min":0,"x_max":0,"o":"m 174 536 b 281 654 253 536 281 558 b 174 772 281 751 253 772 b 67 654 93 772 67 751 b 174 536 67 557 90 536 z m 174 -8 b 281 110 254 -8 281 14 b 174 228 281 207 254 228 b 68 110 94 228 68 207 b 174 -8 68 13 92 -8 z "},";":{"ha":349,"x_min":0,"x_max":0,"o":"m 174 772 b 67 654 93 772 67 751 b 174 536 67 557 90 536 b 281 654 253 536 281 558 b 174 772 281 751 253 772 z m 175 217 b 68 103 96 217 68 196 b 154 -7 68 10 94 -7 b 174 -6 161 -7 168 -7 b 83 -89 167 -57 138 -82 l 83 -179 b 282 71 219 -168 282 -79 b 175 217 282 190 257 217 z "},"…":{"ha":883,"x_min":0,"x_max":0,"o":"m 167 -11 b 265 107 242 -11 265 11 b 167 225 265 204 242 225 b 67 107 92 225 67 204 b 167 -11 67 8 90 -11 z m 443 -11 b 542 107 518 -11 542 11 b 443 225 542 204 518 225 b 343 107 368 225 343 204 b 443 -11 343 8 367 -11 z m 717 -11 b 815 107 792 -11 815 11 b 717 225 815 204 792 225 b 618 107 643 225 618 204 b 717 -11 618 8 640 -11 z "},"!":{"ha":351,"x_min":0,"x_max":0,"o":"m 81 731 b 111 264 81 531 101 288 b 175 271 124 268 147 271 b 240 264 203 271 225 268 b 271 731 249 288 271 532 l 271 996 l 81 996 z m 67 104 b 174 -11 67 13 92 -11 b 282 104 253 -11 282 14 b 174 219 282 197 253 219 b 67 104 96 219 67 197 z "},"¡":{"ha":351,"x_min":0,"x_max":0,"o":"m 68 708 b 176 593 68 614 97 593 b 283 708 254 593 283 614 b 176 824 283 800 258 824 b 68 708 97 824 68 799 z m 79 82 l 79 -185 l 269 -185 l 269 82 b 239 547 269 281 249 525 b 175 542 226 544 203 542 b 110 547 147 542 125 544 b 79 82 101 525 79 281 z "},"?":{"ha":629,"x_min":0,"x_max":0,"o":"m 211 299 b 213 251 211 279 213 263 b 299 267 226 260 253 267 b 382 251 344 267 368 260 l 385 325 b 476 450 386 382 419 408 b 588 660 531 490 588 540 l 588 786 b 318 1008 588 915 504 1008 b 42 775 133 1008 42 922 l 42 606 l 226 606 l 226 761 b 317 853 226 819 249 853 b 404 772 378 853 404 821 l 404 653 b 319 539 404 597 364 569 b 210 346 253 492 210 440 b 211 299 210 329 210 314 z m 190 101 b 299 -11 190 11 215 -11 b 407 101 378 -11 407 14 b 299 213 407 190 378 213 b 190 101 219 213 190 190 z "},"¿":{"ha":629,"x_min":0,"x_max":0,"o":"m 332 597 b 440 710 411 597 440 619 b 332 822 440 799 415 822 b 224 710 253 822 224 797 b 332 597 224 619 253 597 z m 313 -199 b 589 35 497 -199 589 -111 l 589 206 l 404 206 l 404 50 b 314 -43 404 -10 382 -43 b 226 38 253 -43 226 -11 l 226 158 b 311 272 226 214 267 240 b 421 465 378 318 421 368 l 421 478 b 418 560 421 506 419 538 b 332 544 404 551 378 544 b 249 560 286 544 263 551 l 246 486 b 154 361 244 429 211 403 b 43 151 100 319 43 268 l 43 25 b 313 -199 43 -106 126 -199 z "},"‽":{"ha":672,"x_min":0,"x_max":0,"o":"m 271 335 b 278 256 272 292 275 269 b 339 265 292 263 310 265 b 399 257 367 265 385 263 l 401 315 b 507 458 406 385 456 418 b 625 663 565 501 625 551 l 625 782 b 335 1010 625 911 539 1010 b 42 758 132 1010 42 911 l 42 604 l 204 604 l 204 751 b 265 865 204 808 222 847 l 265 713 b 271 335 265 561 268 414 z m 401 713 l 401 867 b 464 774 446 853 464 821 l 464 663 b 413 557 464 600 439 586 b 397 538 407 551 401 544 b 401 713 400 599 401 661 z m 232 101 b 339 -11 232 11 256 -11 b 447 101 419 -11 447 14 b 339 213 447 190 419 213 b 232 101 260 213 232 190 z "},"‘":{"ha":318,"x_min":0,"x_max":0,"o":"m 64 785 b 161 646 64 671 88 646 b 254 751 232 646 254 667 b 176 853 254 839 232 853 b 163 851 172 853 167 853 b 242 931 167 903 190 926 l 242 1008 b 64 785 119 1007 64 928 z "},"’":{"ha":318,"x_min":0,"x_max":0,"o":"m 76 722 l 76 642 b 254 868 197 646 254 725 b 157 1007 254 982 231 1007 b 63 900 86 1007 63 983 b 140 800 63 814 86 800 l 156 800 b 76 722 150 749 128 725 z "},"“":{"ha":575,"x_min":0,"x_max":0,"o":"m 64 785 b 161 646 64 671 88 646 b 254 751 232 646 254 665 b 176 853 254 838 232 853 b 163 851 172 853 167 851 b 242 929 167 903 190 926 l 242 1010 b 64 785 119 1007 64 928 z m 321 785 b 418 646 321 671 344 646 b 513 751 489 646 513 665 b 433 853 513 838 489 853 b 419 851 429 853 424 851 b 499 929 425 903 447 926 l 499 1010 b 321 785 376 1007 321 928 z "},"”":{"ha":575,"x_min":0,"x_max":0,"o":"m 75 721 l 75 642 b 253 868 197 646 253 725 b 156 1007 253 982 229 1007 b 63 900 85 1007 63 983 b 140 800 63 814 85 800 l 154 800 b 75 721 150 749 126 725 z m 333 721 l 333 642 b 510 868 454 646 510 725 b 413 1007 510 982 486 1007 b 319 900 343 1007 319 983 b 397 800 319 814 343 800 l 413 800 b 333 721 407 749 383 725 z "},"‚":{"ha":325,"x_min":0,"x_max":0,"o":"m 78 -81 l 78 -162 b 256 64 200 -158 256 -79 b 158 203 256 176 232 203 b 65 97 88 203 65 182 b 143 -4 65 10 88 -4 l 157 -4 b 78 -81 153 -56 129 -79 z "},"„":{"ha":575,"x_min":0,"x_max":0,"o":"m 75 -81 l 75 -162 b 253 64 197 -158 253 -79 b 156 203 253 176 229 203 b 63 97 85 203 63 182 b 140 -4 63 10 85 -4 l 154 -4 b 75 -81 150 -56 126 -79 z m 333 -81 l 333 -162 b 510 64 454 -158 510 -79 b 413 203 510 176 486 203 b 319 97 343 203 319 182 b 397 -4 319 10 343 -4 l 413 -4 b 333 -81 407 -56 383 -79 z "},"‛":{"ha":318,"x_min":0,"x_max":0,"o":"m 63 865 b 242 640 63 721 119 646 l 242 722 b 163 800 190 725 167 749 l 176 800 b 254 900 232 800 254 814 b 161 1007 254 985 232 1007 b 63 865 88 1007 63 979 z "},"‟":{"ha":575,"x_min":0,"x_max":0,"o":"m 63 865 b 240 640 63 722 119 646 l 240 722 b 161 800 189 725 167 749 l 176 800 b 254 900 231 800 254 814 b 160 1007 254 985 231 1007 b 63 865 86 1007 63 979 z m 319 865 b 497 640 319 722 376 646 l 497 722 b 418 800 447 725 424 749 b 433 799 424 800 428 800 b 511 900 488 800 511 814 b 418 1007 511 985 488 1007 b 319 865 344 1007 319 979 z "},"‹":{"ha":432,"x_min":0,"x_max":0,"o":"m 224 154 l 396 154 l 215 421 l 382 686 l 219 686 l 58 422 l 58 408 z "},"›":{"ha":432,"x_min":0,"x_max":0,"o":"m 374 408 l 374 422 l 213 686 l 49 686 l 217 421 l 36 154 l 207 154 z "},"«":{"ha":678,"x_min":0,"x_max":0,"o":"m 225 154 l 386 154 l 208 418 l 378 686 l 224 686 l 58 421 l 58 408 z m 481 154 l 642 154 l 457 425 l 624 686 l 471 686 l 308 428 l 308 411 z "},"»":{"ha":678,"x_min":0,"x_max":0,"o":"m 38 154 l 197 154 l 369 411 l 369 428 l 207 686 l 54 686 l 221 425 z m 292 154 l 453 154 l 619 408 l 619 421 l 454 686 l 300 686 l 469 418 z "},"/":{"ha":440,"x_min":0,"x_max":0,"o":"m 236 996 l 14 0 l 204 0 l 426 996 z "},"\\":{"ha":440,"x_min":0,"x_max":0,"o":"m 19 996 l 233 0 l 421 0 l 206 996 z "},"|":{"ha":314,"x_min":0,"x_max":0,"o":"m 68 1069 l 68 -78 l 246 -78 l 246 1069 z "},"‖":{"ha":581,"x_min":0,"x_max":0,"o":"m 68 1069 l 68 -69 l 239 -69 l 239 1069 z m 340 1069 l 340 -69 l 511 -69 l 511 1069 z "},"¦":{"ha":314,"x_min":0,"x_max":0,"o":"m 68 1069 l 68 551 l 246 551 l 246 1069 z m 68 464 l 68 -78 l 246 -78 l 246 464 z "},"•":{"ha":424,"x_min":0,"x_max":0,"o":"m 211 274 b 343 408 301 274 343 308 b 211 542 343 510 301 542 b 81 408 121 542 81 507 b 211 274 81 307 115 274 z "},"​":{"ha":0,"x_min":0,"x_max":0,"o":""},"·":{"ha":346,"x_min":0,"x_max":0,"o":"m 172 297 b 279 415 250 297 279 321 b 172 535 279 513 250 535 b 65 415 93 535 65 513 b 172 297 65 319 89 297 z "},"-":{"ha":472,"x_min":0,"x_max":0,"o":"m 422 503 l 51 503 l 51 331 l 422 331 z "},"­":{"ha":472,"x_min":0,"x_max":0,"o":"m 422 503 l 51 503 l 51 331 l 422 331 z "},"–":{"ha":621,"x_min":0,"x_max":0,"o":"m 569 503 l 51 503 l 51 331 l 569 331 z "},"—":{"ha":922,"x_min":0,"x_max":0,"o":"m 872 503 l 51 503 l 51 331 l 872 331 z "},"‒":{"ha":693,"x_min":0,"x_max":0,"o":"m 642 503 l 50 503 l 50 331 l 642 331 z "},"―":{"ha":582,"x_min":0,"x_max":0,"o":"m 532 503 l 51 503 l 51 331 l 532 331 z "},"(":{"ha":429,"x_min":0,"x_max":0,"o":"m 400 -219 l 400 -46 b 244 183 293 -43 244 19 l 244 614 b 400 850 244 781 292 844 l 400 1018 b 57 618 185 1014 57 899 l 57 175 b 400 -219 57 -107 176 -215 z "},")":{"ha":429,"x_min":0,"x_max":0,"o":"m 28 -219 b 371 175 251 -215 371 -107 l 371 618 b 28 1018 371 899 243 1014 l 28 849 b 183 614 136 844 183 781 l 183 183 b 28 -46 183 19 135 -43 z "},"[":{"ha":421,"x_min":0,"x_max":0,"o":"m 68 -218 l 389 -218 l 389 -67 l 247 -67 l 247 864 l 389 864 l 389 1015 l 68 1015 z "},"]":{"ha":421,"x_min":0,"x_max":0,"o":"m 31 -218 l 351 -218 l 351 1015 l 31 1015 l 31 864 l 174 864 l 174 -67 l 31 -67 z "},"{":{"ha":451,"x_min":0,"x_max":0,"o":"m 97 -53 b 278 -218 97 -150 144 -218 l 421 -218 l 421 -75 l 369 -75 b 283 -4 310 -75 283 -54 b 353 263 283 68 353 171 b 218 396 353 346 313 396 l 218 413 b 351 542 314 414 351 457 b 282 801 351 635 282 732 b 369 874 282 853 308 874 l 421 874 l 421 1017 l 278 1017 b 99 849 144 1017 99 947 b 171 567 99 740 171 638 b 90 488 171 510 147 488 l 36 488 l 36 319 l 96 319 b 178 238 151 319 178 297 b 97 -53 178 167 97 54 z "},"}":{"ha":451,"x_min":0,"x_max":0,"o":"m 353 -53 b 272 238 353 56 272 167 b 354 319 272 297 299 319 l 414 319 l 414 488 l 360 488 b 279 567 303 488 279 510 b 351 850 279 639 351 742 b 172 1017 351 947 306 1017 l 29 1017 l 29 874 l 81 874 b 169 800 142 874 169 853 b 99 542 169 732 99 635 b 233 413 99 458 136 414 l 233 396 b 97 263 138 396 97 344 b 167 -4 97 171 167 68 b 81 -75 167 -56 140 -75 l 29 -75 l 29 -218 l 172 -218 b 353 -53 306 -218 353 -150 z "},"〈":{"ha":413,"x_min":0,"x_max":0,"o":"m 219 -218 l 407 -218 l 215 408 l 400 1015 l 218 1015 l 35 404 z "},"〉":{"ha":413,"x_min":0,"x_max":0,"o":"m 4 -218 l 192 -218 l 376 406 l 194 1015 l 11 1015 l 196 408 z "},"*":{"ha":531,"x_min":0,"x_max":0,"o":"m 193 618 l 338 618 l 290 796 l 418 667 l 490 792 l 311 838 l 490 886 l 417 1010 l 290 881 l 338 1056 l 193 1056 l 242 879 l 113 1008 l 40 883 l 218 838 l 40 790 l 113 667 l 242 796 z "},"⁑":{"ha":529,"x_min":0,"x_max":0,"o":"m 193 564 l 339 564 l 290 740 l 419 611 l 490 736 l 314 782 l 490 831 l 418 954 l 290 825 l 339 1000 l 193 1000 l 242 824 l 113 953 l 42 828 l 219 782 l 42 733 l 114 611 l 242 739 z m 114 47 l 242 176 l 193 0 l 339 0 l 290 174 l 419 47 l 489 172 l 311 218 l 489 267 l 418 390 l 290 263 l 339 436 l 193 436 l 242 260 l 113 389 l 42 264 l 218 218 l 42 169 z "},"⁂":{"ha":1013,"x_min":0,"x_max":0,"o":"m 354 611 l 482 739 l 433 564 l 579 564 l 531 738 l 660 611 l 731 736 l 554 782 l 731 831 l 658 954 l 531 826 l 579 1000 l 433 1000 l 482 824 l 353 953 l 282 828 l 458 782 l 282 733 z m 92 47 l 222 178 l 174 0 l 318 0 l 269 176 l 399 47 l 471 172 l 290 218 l 471 267 l 397 390 l 269 261 l 318 436 l 174 436 l 222 257 l 93 389 l 19 264 l 199 218 l 19 169 z m 615 47 l 743 175 l 696 0 l 840 0 l 792 176 l 921 47 l 993 172 l 815 218 l 993 267 l 919 390 l 792 261 l 840 435 l 696 435 l 744 260 l 615 389 l 543 264 l 721 218 l 543 171 z "},"†":{"ha":599,"x_min":0,"x_max":0,"o":"m 46 799 l 46 619 l 211 619 l 211 -104 l 388 -104 l 388 619 l 551 619 l 551 799 l 388 799 l 388 1100 l 211 1100 l 211 799 z "},"‡":{"ha":599,"x_min":0,"x_max":0,"o":"m 46 388 l 46 211 l 211 211 l 211 -104 l 388 -104 l 388 211 l 551 211 l 551 388 l 388 388 l 388 632 l 551 632 l 551 807 l 388 807 l 388 1100 l 211 1100 l 211 807 l 46 807 l 46 632 l 211 632 l 211 388 z "},"§":{"ha":676,"x_min":0,"x_max":0,"o":"m 339 -49 b 599 164 513 -49 599 28 l 599 186 b 528 339 599 256 572 303 b 660 469 603 342 660 394 l 660 482 b 453 685 660 588 568 636 b 261 814 336 733 261 754 l 261 824 b 336 888 261 865 285 888 b 418 817 392 888 415 865 l 418 769 l 592 769 l 592 821 b 338 1026 585 953 507 1026 b 89 821 176 1026 89 950 l 89 804 b 158 653 89 736 115 690 l 153 653 b 17 521 75 650 17 597 l 17 507 b 228 304 17 401 110 353 b 425 174 344 257 425 231 l 425 164 b 346 96 425 114 399 96 b 256 176 286 96 261 117 l 256 225 l 75 225 l 75 169 b 339 -49 82 21 165 -49 z m 381 419 b 186 553 257 474 186 503 l 186 560 b 217 613 188 583 197 601 b 300 572 242 597 271 585 b 493 440 422 519 493 490 l 493 433 b 465 381 492 407 482 390 b 381 419 439 394 411 407 z "},"¶":{"ha":829,"x_min":0,"x_max":0,"o":"m 603 0 l 764 0 l 764 996 l 338 996 b 36 694 136 996 36 885 b 339 390 36 501 138 389 l 364 390 l 364 0 l 525 0 l 525 846 l 603 846 z m 343 546 b 215 694 263 546 215 593 b 340 846 215 799 258 846 l 364 846 l 364 546 z "},"^":{"ha":610,"x_min":0,"x_max":0,"o":"m 68 614 l 218 614 l 303 838 l 390 614 l 542 614 l 368 993 l 238 993 z "},"~":{"ha":588,"x_min":0,"x_max":0,"o":"m 72 740 l 183 740 b 215 806 185 786 193 806 b 383 735 260 806 300 735 b 513 935 478 735 513 794 l 401 935 b 365 871 401 883 390 871 b 201 940 326 871 282 940 b 72 740 106 940 72 881 z "},"_":{"ha":640,"x_min":0,"x_max":0,"o":"m 36 156 l 36 0 l 606 0 l 606 156 z "},"＿":{"ha":675,"x_min":0,"x_max":0,"o":"m 53 156 l 53 0 l 622 0 l 622 156 z "},"'":{"ha":258,"x_min":0,"x_max":0,"o":"m 72 663 l 182 663 b 208 971 193 715 208 846 l 208 996 l 50 996 l 50 971 b 72 663 50 846 61 714 z "},"\"":{"ha":482,"x_min":0,"x_max":0,"o":"m 72 663 l 182 663 b 208 971 193 715 208 846 l 208 996 l 50 996 l 50 971 b 72 663 50 846 61 713 z m 297 663 l 407 663 b 432 971 418 715 432 846 l 432 996 l 274 996 l 274 971 b 297 663 274 846 286 713 z "},"‴":{"ha":707,"x_min":0,"x_max":0,"o":"m 74 663 l 183 663 b 208 971 194 715 208 846 l 208 996 l 50 996 l 50 971 b 74 663 50 846 63 713 z m 299 663 l 407 663 b 433 971 418 715 433 846 l 433 996 l 275 996 l 275 971 b 299 663 275 846 286 713 z m 522 663 l 631 663 b 657 971 642 715 657 846 l 657 996 l 499 996 l 499 971 b 522 663 499 846 510 713 z "},"@":{"ha":839,"x_min":0,"x_max":0,"o":"m 419 -153 b 733 13 568 -153 671 -96 l 589 32 b 422 -37 553 -14 510 -37 b 165 243 256 -37 165 58 l 165 588 b 424 871 165 775 260 871 b 676 610 607 871 676 772 l 676 313 b 632 172 676 201 663 172 b 596 253 604 172 596 192 l 596 760 l 511 760 l 489 696 b 383 768 474 736 438 768 b 238 576 299 768 238 714 l 238 251 b 381 63 238 121 288 63 b 494 135 443 63 478 94 b 625 65 515 90 558 65 b 794 306 742 65 794 140 l 794 614 b 425 985 794 839 667 985 b 46 597 203 985 46 847 l 46 232 b 419 -153 46 -31 193 -153 z m 418 172 b 365 264 378 172 365 196 l 365 564 b 418 660 365 631 379 660 b 469 563 457 660 469 631 l 469 264 b 418 172 469 199 457 172 z "},"©":{"ha":857,"x_min":0,"x_max":0,"o":"m 432 -15 b 808 361 651 -15 808 126 l 808 633 b 426 1007 808 867 647 1007 b 47 622 208 1007 47 861 l 47 357 b 432 -15 47 108 204 -15 z m 432 107 b 172 365 268 107 172 196 l 172 615 b 426 886 172 786 271 886 b 683 626 589 886 683 792 l 683 368 b 432 107 683 197 589 107 z m 431 165 b 622 356 544 165 619 231 l 622 446 l 490 446 l 490 361 b 432 286 489 306 471 286 b 372 374 389 286 372 311 l 372 621 b 433 713 372 686 392 713 b 490 640 472 713 489 694 l 490 564 l 622 564 l 622 644 b 432 831 618 767 553 831 b 240 621 314 831 240 758 l 240 365 b 431 165 240 233 308 165 z "},"®":{"ha":560,"x_min":0,"x_max":0,"o":"m 282 522 b 510 750 411 522 510 604 l 510 778 b 279 1008 510 924 411 1008 b 49 774 146 1008 49 922 l 49 749 b 282 522 49 594 146 522 z m 282 599 b 128 756 183 599 128 646 l 128 769 b 279 936 128 878 185 936 b 433 771 374 936 433 881 l 433 756 b 282 599 433 644 378 599 z m 186 642 l 257 642 l 257 718 l 276 718 b 308 682 303 718 308 713 l 308 657 b 314 642 308 651 310 644 l 385 642 b 381 656 382 644 381 650 l 381 686 b 349 749 381 719 371 739 b 389 810 375 760 389 779 b 289 893 389 864 360 893 l 186 893 z m 276 832 b 318 807 306 832 318 828 b 276 778 318 785 306 778 l 257 778 l 257 832 z "},"℗":{"ha":857,"x_min":0,"x_max":0,"o":"m 432 -14 b 807 361 651 -14 807 126 l 807 633 b 426 1007 807 867 647 1007 b 49 622 208 1007 49 861 l 49 357 b 432 -14 49 108 204 -14 z m 432 107 b 174 365 268 107 174 196 l 174 615 b 426 886 174 786 271 886 b 682 626 589 886 682 792 l 682 368 b 432 107 682 197 589 107 z m 447 364 b 610 518 560 363 610 417 l 610 668 b 440 813 610 757 558 813 l 278 813 l 278 176 l 396 176 l 396 364 z m 432 708 b 490 656 474 708 490 693 l 490 525 b 433 469 490 488 474 469 l 396 469 l 396 708 z "},"™":{"ha":676,"x_min":0,"x_max":0,"o":"m 303 996 l 303 574 l 393 574 l 393 772 l 390 803 l 456 672 l 468 672 l 531 800 l 528 772 l 528 574 l 619 574 l 619 996 l 533 996 l 461 825 l 388 996 z m 28 996 l 28 901 l 96 901 l 96 574 l 194 574 l 194 901 l 264 901 l 264 996 z "},"℠":{"ha":697,"x_min":0,"x_max":0,"o":"m 160 567 b 285 678 242 567 285 610 l 285 710 b 192 828 285 781 238 807 b 129 878 156 846 129 854 l 129 899 b 158 931 129 919 140 931 b 188 899 179 931 188 919 l 188 858 l 282 858 l 282 901 b 158 1004 282 965 243 1004 b 33 899 76 1004 33 963 l 33 875 b 128 761 33 804 82 782 b 190 707 163 746 190 735 l 190 679 b 161 649 190 660 182 649 b 126 685 135 649 126 660 l 126 731 l 29 731 l 29 679 b 160 567 29 607 65 567 z m 329 574 l 419 574 l 419 775 l 418 800 l 482 657 l 494 657 l 557 799 l 556 775 l 556 574 l 647 574 l 647 996 l 563 996 l 489 814 l 414 996 l 329 996 z "},"¤":{"ha":731,"x_min":0,"x_max":0,"o":"m 158 151 l 260 267 b 368 246 292 253 328 246 b 478 269 408 247 446 254 l 579 158 l 682 260 l 579 369 b 604 479 596 401 604 439 l 604 538 b 576 654 604 582 594 621 l 679 768 l 574 863 l 471 750 b 368 771 440 763 406 771 b 261 749 328 771 293 763 l 157 861 l 57 761 l 158 653 b 131 536 140 619 131 579 l 131 478 b 154 365 131 435 139 397 l 49 250 z m 368 381 b 272 482 308 381 272 425 l 272 535 b 368 635 272 594 308 635 b 461 535 426 635 461 592 l 461 482 b 368 381 461 422 425 381 z "},"€":{"ha":700,"x_min":0,"x_max":0,"o":"m 26 368 l 104 368 l 104 288 b 390 -14 104 78 201 -14 b 674 272 572 -14 672 72 l 674 318 l 483 318 l 483 285 b 390 153 482 190 463 153 b 289 301 314 153 289 199 l 289 368 l 485 368 l 517 471 l 289 471 l 289 539 l 539 539 l 572 642 l 289 642 l 289 699 b 389 849 289 800 313 849 b 483 726 461 849 483 810 l 483 701 l 671 701 l 671 739 b 390 1010 671 913 578 1010 b 104 708 211 1010 104 914 l 104 642 l 26 642 l 26 539 l 104 539 l 104 471 l 26 471 z "},"$":{"ha":615,"x_min":0,"x_max":0,"o":"m 232 1149 l 232 1004 b 46 774 110 978 46 888 l 46 693 b 249 444 46 542 147 492 b 399 308 333 406 399 383 l 399 229 b 314 140 399 176 375 140 b 221 243 243 140 221 181 l 221 374 l 38 374 l 38 242 b 225 -8 38 99 92 15 l 225 -146 l 396 -146 l 396 -7 b 578 232 511 19 578 103 l 578 324 b 375 569 578 476 475 524 b 225 707 286 613 225 639 l 225 775 b 306 865 225 826 247 865 b 389 772 365 865 389 835 l 389 660 l 567 660 l 567 783 b 401 1000 567 894 511 972 l 401 1149 z "},"¢":{"ha":631,"x_min":0,"x_max":0,"o":"m 235 -149 l 406 -149 l 406 -3 b 576 256 518 25 576 110 l 576 357 l 393 357 l 393 261 b 311 143 393 179 374 143 b 225 267 250 143 225 181 l 225 535 b 314 665 225 629 250 665 b 393 542 376 665 393 632 l 393 468 l 576 468 l 576 544 b 407 807 576 692 519 779 l 407 946 l 236 946 l 236 810 b 49 538 115 783 49 693 l 49 263 b 235 -7 49 104 107 15 z "},"£":{"ha":693,"x_min":0,"x_max":0,"o":"m 158 -18 b 300 51 215 -18 264 8 b 482 -18 350 15 410 -18 b 664 215 614 -18 664 38 l 664 288 l 493 288 l 493 233 b 435 128 493 154 479 128 b 351 156 407 128 379 140 b 363 247 358 185 363 215 b 349 393 363 299 357 346 l 486 393 l 486 517 l 321 517 b 281 761 300 600 281 675 b 351 854 281 825 304 854 b 425 761 404 854 424 825 l 425 701 l 603 703 l 603 767 b 356 1011 599 921 522 1011 b 106 772 186 1011 106 913 b 168 517 106 667 138 590 l 65 517 l 65 393 l 211 393 b 253 232 235 342 253 289 l 253 215 b 154 242 222 231 190 242 b 11 110 67 242 11 190 b 158 -18 11 26 58 -18 z m 126 114 b 156 142 126 131 136 142 b 221 111 175 142 196 129 b 161 86 206 94 185 86 b 126 114 139 86 126 94 z "},"ƒ":{"ha":443,"x_min":0,"x_max":0,"o":"m 13 -72 l 13 -229 l 93 -229 b 306 -15 254 -229 306 -176 l 306 386 l 422 386 l 422 547 l 306 547 l 306 825 b 372 910 306 894 318 910 l 422 910 l 422 1063 l 346 1063 b 132 843 193 1063 132 1004 l 132 547 l 19 547 l 19 386 l 132 386 l 132 4 b 67 -72 132 -58 119 -72 z "},"¥":{"ha":597,"x_min":0,"x_max":0,"o":"m 69 315 l 69 188 l 204 188 l 204 0 l 388 0 l 388 188 l 529 188 l 529 315 l 388 315 l 388 383 l 529 383 l 529 511 l 399 511 l 597 996 l 413 996 l 300 701 l 297 692 l 296 704 l 186 996 l 0 996 l 192 511 l 71 511 l 71 383 l 204 383 l 204 315 z "},"₡":{"ha":724,"x_min":0,"x_max":0,"o":"m 140 -158 l 235 -158 l 264 -6 b 307 -12 278 -8 293 -11 l 281 -158 l 375 -158 l 401 -15 b 688 292 582 -4 686 100 l 688 419 l 501 419 l 501 299 b 368 150 501 197 463 150 b 229 322 264 150 229 207 l 229 669 b 368 850 229 792 274 850 b 501 708 460 850 501 799 l 501 600 l 685 600 l 685 719 b 553 967 685 838 638 921 l 583 1136 l 490 1136 l 465 999 b 421 1006 451 1001 436 1004 l 443 1136 l 350 1136 l 328 1007 b 50 679 154 992 50 878 l 50 311 b 176 32 50 178 94 83 z "},"₢":{"ha":719,"x_min":0,"x_max":0,"o":"m 369 -17 b 681 271 576 -17 681 96 l 681 374 l 517 374 l 517 272 b 438 138 517 199 493 154 l 438 328 b 536 442 438 426 446 442 l 622 442 l 622 601 l 574 601 b 428 488 488 601 443 568 l 404 599 l 293 599 l 293 143 b 215 321 238 168 215 226 l 215 665 b 368 857 215 794 267 857 b 507 726 464 857 507 804 l 507 663 l 678 663 l 678 732 b 369 1006 678 910 563 1006 b 50 675 168 1006 50 886 l 50 314 b 369 -17 50 101 146 -17 z "},"₣":{"ha":546,"x_min":0,"x_max":0,"o":"m 65 996 l 65 0 l 240 0 l 240 210 l 494 210 l 494 357 l 240 357 l 240 444 l 494 444 l 494 592 l 240 592 l 240 832 l 507 832 l 507 996 z "},"₤":{"ha":697,"x_min":0,"x_max":0,"o":"m 14 108 b 164 -18 14 26 63 -18 b 307 49 222 -18 272 6 b 488 -18 357 14 417 -18 b 668 215 618 -18 668 38 l 668 282 l 497 282 l 497 233 b 439 128 497 154 483 128 b 357 157 411 128 383 140 b 364 238 361 181 364 208 b 357 343 364 274 361 308 l 488 343 l 488 443 l 340 443 b 328 499 336 461 332 479 l 488 499 l 488 597 l 306 597 b 285 760 294 651 285 706 b 357 854 285 825 307 854 b 429 761 410 854 429 825 l 429 701 l 608 703 l 608 767 b 358 1011 608 922 526 1011 b 108 768 188 1011 108 915 b 138 597 108 706 121 649 l 57 597 l 57 499 l 175 499 b 200 443 183 479 192 461 l 57 443 l 57 343 l 238 343 b 258 224 250 304 258 264 l 258 215 b 158 242 228 231 196 242 b 14 108 71 242 14 190 z m 128 111 b 158 139 128 129 139 139 b 228 107 179 139 203 126 b 164 83 213 90 190 83 b 128 111 142 85 128 94 z "},"₹":{"ha":613,"x_min":0,"x_max":0,"o":"m 322 0 l 503 0 b 488 40 492 10 488 24 l 488 267 b 364 443 488 379 447 426 b 493 611 444 471 486 525 l 594 611 l 594 740 l 492 740 b 432 846 485 785 465 821 l 594 846 l 594 996 l 54 996 l 54 846 l 194 846 b 315 740 274 846 310 818 l 54 740 l 54 611 l 317 611 b 193 496 313 522 272 496 l 54 496 l 54 346 l 207 346 b 308 247 292 346 308 319 l 308 39 b 322 0 308 24 314 7 z "},"₦":{"ha":843,"x_min":0,"x_max":0,"o":"m 11 469 l 11 360 l 115 360 l 115 0 l 281 0 l 281 586 l 278 638 l 550 0 l 724 0 l 724 360 l 832 360 l 832 469 l 724 469 l 724 531 l 832 531 l 832 640 l 724 640 l 724 996 l 560 996 l 560 424 l 563 351 l 557 374 l 293 996 l 115 996 l 115 640 l 11 640 l 11 531 l 115 531 l 115 469 z "},"₧":{"ha":1603,"x_min":0,"x_max":0,"o":"m 711 307 b 1040 0 711 89 761 0 l 1242 0 b 1574 232 1506 0 1574 79 l 1574 268 b 1406 468 1574 394 1489 440 b 1236 568 1321 497 1236 510 l 1236 610 b 1311 681 1236 653 1260 681 b 1392 603 1365 681 1390 653 l 1392 535 l 1564 535 l 1564 607 b 1311 818 1557 738 1479 818 b 1064 607 1151 818 1064 735 l 1064 557 b 1232 360 1064 432 1149 388 b 1400 251 1315 332 1400 311 l 1400 239 b 1236 154 1400 179 1372 154 l 1065 154 b 881 328 911 154 881 189 l 881 642 l 1018 642 l 1018 807 l 881 807 l 881 958 l 756 958 b 736 868 751 922 746 892 b 688 811 725 840 710 822 b 600 793 668 800 633 793 b 326 996 585 933 500 996 l 64 996 l 64 0 l 239 0 l 239 313 l 328 313 b 603 575 521 313 603 411 l 603 642 l 711 642 z m 319 843 b 424 738 390 843 424 814 l 424 579 b 319 469 424 506 389 469 l 239 469 l 239 843 z "},"₨":{"ha":1210,"x_min":0,"x_max":0,"o":"m 65 996 l 65 0 l 240 0 l 240 382 l 299 382 b 461 268 388 382 422 332 l 507 190 b 840 -7 588 53 661 -7 l 908 -7 b 1176 229 1090 -7 1176 86 l 1176 243 b 1001 471 1176 381 1088 433 b 836 589 918 507 836 528 l 836 600 b 915 675 836 643 860 675 b 994 596 972 675 994 647 l 994 542 l 1164 542 l 1164 603 b 914 818 1164 733 1088 818 b 664 596 744 818 664 724 l 664 582 b 856 356 664 438 765 393 b 1001 235 931 325 1001 303 l 1001 228 b 893 142 1001 175 968 142 l 854 142 b 658 263 769 142 715 171 l 613 336 b 489 454 575 394 543 433 b 603 640 561 483 603 542 l 603 771 b 335 996 603 913 528 996 z m 326 843 b 424 756 396 843 424 815 l 424 635 b 326 539 424 572 396 539 l 240 539 l 240 843 z "},"₩":{"ha":957,"x_min":0,"x_max":0,"o":"m 14 453 l 14 331 l 135 331 l 188 0 l 353 0 l 461 554 l 475 725 l 489 554 l 590 0 l 754 0 l 813 331 l 943 331 l 943 453 l 835 453 l 844 515 l 943 515 l 943 639 l 867 639 l 929 996 l 760 996 l 674 442 l 660 236 l 639 431 l 538 996 l 418 996 l 308 431 l 286 246 l 278 442 l 201 996 l 31 996 l 88 639 l 14 639 l 14 515 l 107 515 l 117 453 z "},"₪":{"ha":976,"x_min":0,"x_max":0,"o":"m 65 0 l 221 0 l 221 854 l 336 854 b 529 636 465 854 529 797 l 529 217 l 543 217 b 685 376 643 217 685 251 l 685 665 b 353 996 685 886 563 996 l 65 996 z m 297 0 l 582 0 b 917 350 799 0 917 125 l 917 996 l 758 996 l 758 378 b 563 143 758 207 683 143 l 454 143 l 454 622 b 314 785 454 754 424 785 l 297 785 z "},"₮":{"ha":563,"x_min":0,"x_max":0,"o":"m 82 351 l 82 251 l 192 294 l 192 0 l 369 0 l 369 364 l 483 408 l 483 507 l 369 463 l 369 528 l 483 572 l 483 672 l 369 628 l 369 832 l 535 832 l 535 996 l 26 996 l 26 832 l 192 832 l 192 558 l 82 517 l 82 417 l 192 458 l 192 393 z "},"₱":{"ha":693,"x_min":0,"x_max":0,"o":"m 13 589 l 13 497 l 83 497 l 83 0 l 251 0 l 251 240 l 335 240 b 615 497 528 240 610 346 l 682 497 l 682 589 l 615 589 l 615 653 l 682 653 l 682 742 l 615 742 b 332 996 615 903 529 996 l 83 996 l 83 742 l 13 742 l 13 653 l 83 653 l 83 589 z m 325 851 b 446 742 403 851 442 818 l 251 742 l 251 851 z m 251 589 l 251 653 l 446 653 l 446 589 z m 325 388 l 251 388 l 251 497 l 444 497 b 325 388 439 426 401 388 z "},"฿":{"ha":649,"x_min":0,"x_max":0,"o":"m 64 0 l 251 0 l 251 -146 l 421 -146 l 421 3 b 610 235 563 18 610 99 l 610 336 b 483 513 610 433 572 488 b 596 689 564 538 596 592 l 596 778 b 421 989 596 896 547 967 l 421 1149 l 251 1149 l 251 996 l 64 996 z m 324 850 b 421 765 390 850 421 824 l 421 686 b 322 585 421 611 396 585 l 238 585 l 238 850 z m 322 435 b 426 338 399 435 426 407 l 426 251 b 329 156 426 179 403 156 l 238 156 l 238 435 z "},"₲":{"ha":683,"x_min":0,"x_max":0,"o":"m 492 0 l 625 0 l 625 532 l 329 532 l 329 385 l 446 385 l 446 294 b 342 151 446 206 414 151 b 233 303 268 151 233 197 l 233 697 b 343 850 233 801 269 850 b 442 736 411 850 442 811 l 442 633 l 625 633 l 625 746 b 435 1000 625 889 557 975 l 435 1149 l 264 1149 l 264 1001 b 50 708 131 975 50 881 l 50 286 b 264 -14 50 85 121 -10 l 264 -146 l 436 -146 l 436 64 b 469 157 451 89 463 119 z "},"₵":{"ha":660,"x_min":0,"x_max":0,"o":"m 251 1149 l 251 1001 b 50 708 125 974 50 879 l 50 288 b 251 -8 50 110 118 17 l 251 -146 l 422 -146 l 422 -6 b 617 282 546 21 615 110 l 617 422 l 429 422 l 429 293 b 333 150 429 196 404 150 b 236 300 258 150 236 196 l 236 700 b 332 851 236 800 260 851 b 428 708 410 851 429 813 l 428 600 l 617 600 l 617 721 b 421 1001 617 886 551 976 l 421 1149 z "},"₫":{"ha":622,"x_min":0,"x_max":0,"o":"m 246 172 b 399 278 328 172 375 214 l 417 182 l 557 182 l 557 844 l 613 844 l 613 943 l 557 943 l 557 996 l 392 996 l 392 943 l 310 943 l 310 844 l 392 844 l 392 724 b 246 808 367 778 319 808 b 49 563 131 808 49 731 l 49 426 b 246 172 49 257 124 172 z m 307 304 b 215 432 251 304 215 343 l 215 558 b 304 681 215 638 247 681 b 393 563 361 681 393 635 l 393 425 b 307 304 393 350 360 304 z m 47 117 l 47 0 l 593 0 l 593 117 z "},"₭":{"ha":644,"x_min":0,"x_max":0,"o":"m 75 0 l 254 0 l 254 436 l 308 436 l 431 0 l 626 0 l 488 436 l 604 436 l 604 578 l 482 578 l 606 996 l 421 996 l 303 578 l 254 578 l 254 996 l 75 996 l 75 578 l 8 578 l 8 436 l 75 436 z "},"₴":{"ha":651,"x_min":0,"x_max":0,"o":"m 324 -14 b 596 240 508 -14 596 76 l 596 321 l 417 321 l 417 249 b 322 146 417 183 390 146 b 235 242 258 146 235 185 l 235 267 b 271 374 235 307 246 342 l 638 374 l 638 486 l 383 486 l 446 535 l 638 535 l 638 647 l 557 647 b 588 760 578 678 588 713 l 588 774 b 329 1010 588 928 501 1010 b 65 768 156 1010 65 919 l 65 700 l 243 700 l 243 760 b 329 860 243 828 271 860 b 411 765 388 860 411 829 l 411 747 b 375 647 411 707 400 676 l 13 647 l 13 535 l 251 535 b 189 486 231 518 210 501 l 13 486 l 13 374 l 89 374 b 56 249 67 339 56 294 l 56 229 b 324 -14 56 74 140 -14 z "},"₸":{"ha":561,"x_min":0,"x_max":0,"o":"m 28 996 l 28 858 l 536 858 l 536 996 z m 192 0 l 371 0 l 371 664 l 536 664 l 536 800 l 26 800 l 26 664 l 192 664 z "},"₺":{"ha":642,"x_min":0,"x_max":0,"o":"m 217 0 b 615 471 465 0 610 140 l 444 471 b 276 178 436 249 383 186 l 276 440 l 408 490 l 408 593 l 276 543 l 276 622 l 408 672 l 408 776 l 276 726 l 276 996 l 97 996 l 97 658 l 14 628 l 14 524 l 97 554 l 97 475 l 14 443 l 14 340 l 97 372 l 97 0 z "},"₼":{"ha":736,"x_min":0,"x_max":0,"o":"m 35 0 l 203 0 l 203 493 b 286 657 203 585 229 640 l 286 0 l 451 0 l 451 657 b 533 493 507 639 533 583 l 533 0 l 701 0 l 701 507 b 451 810 701 683 611 793 l 451 996 l 286 996 l 286 810 b 35 507 124 793 35 683 z "},"₽":{"ha":703,"x_min":0,"x_max":0,"o":"m 131 0 l 306 0 l 306 164 l 503 164 l 503 286 l 306 286 l 306 340 l 394 340 b 669 603 588 340 669 440 l 669 744 b 393 996 669 919 586 996 l 131 996 l 131 475 l 15 475 l 15 340 l 131 340 l 131 286 l 14 286 l 14 164 l 131 164 z m 386 843 b 490 739 457 843 490 814 l 490 583 b 386 475 490 510 456 475 l 306 475 l 306 843 z "},"₿":{"ha":649,"x_min":0,"x_max":0,"o":"m 64 0 l 172 0 l 172 -132 l 294 -132 l 294 0 l 356 0 l 356 -132 l 479 -132 l 479 14 b 610 233 575 43 610 118 l 610 336 b 483 513 610 433 572 488 b 596 689 564 538 596 592 l 596 778 b 481 972 596 875 563 940 l 481 1132 l 357 1132 l 357 994 b 331 996 349 994 340 996 l 296 996 l 296 1132 l 174 1132 l 174 996 l 64 996 z m 324 850 b 421 765 390 850 421 824 l 421 686 b 322 585 421 611 396 585 l 238 585 l 238 850 z m 322 435 b 426 338 399 435 426 407 l 426 251 b 329 156 426 179 403 156 l 238 156 l 238 435 z "},"#":{"ha":903,"x_min":0,"x_max":0,"o":"m 39 399 l 39 247 l 182 247 l 154 0 l 325 0 l 353 247 l 494 247 l 467 0 l 636 0 l 664 247 l 833 247 l 833 399 l 681 399 l 706 617 l 867 617 l 867 768 l 722 768 l 749 996 l 579 996 l 553 768 l 411 768 l 438 996 l 267 996 l 242 768 l 72 768 l 72 617 l 224 617 l 200 399 z m 369 399 l 394 617 l 536 617 l 511 399 z "},"₀":{"ha":379,"x_min":0,"x_max":0,"o":"m 189 -119 b 342 33 288 -119 342 -71 l 342 240 b 189 394 342 344 285 394 b 36 240 93 394 36 344 l 36 33 b 189 -119 36 -69 90 -119 z m 189 -17 b 151 42 161 -17 151 -1 l 151 238 b 189 294 151 279 161 294 b 226 238 217 294 226 279 l 226 42 b 189 -17 226 -1 217 -17 z "},"₁":{"ha":310,"x_min":0,"x_max":0,"o":"m 28 -7 l 28 -111 l 282 -111 l 282 -7 l 211 -7 l 211 386 l 122 386 b 42 308 114 336 89 311 l 42 224 l 104 224 l 104 -7 z "},"₂":{"ha":363,"x_min":0,"x_max":0,"o":"m 33 -111 l 329 -111 l 329 -6 l 153 -6 b 238 79 161 29 200 51 b 329 226 282 111 329 150 l 329 268 b 183 394 329 350 283 394 b 35 265 88 394 35 344 l 35 192 l 149 192 l 149 258 b 182 299 149 283 156 299 b 217 264 208 299 217 288 l 217 229 b 147 142 217 189 183 167 b 33 -28 96 104 33 65 z "},"₃":{"ha":363,"x_min":0,"x_max":0,"o":"m 179 -121 b 329 -1 281 -121 329 -72 l 329 63 b 271 147 329 111 308 136 b 322 226 307 160 322 186 l 322 276 b 176 393 322 349 278 393 b 33 267 79 393 33 346 l 33 218 l 143 218 l 143 258 b 178 297 143 286 151 297 b 213 258 206 297 213 286 l 213 221 b 178 186 213 196 206 186 l 138 186 l 138 96 l 178 96 b 215 64 204 96 215 89 l 215 14 b 178 -19 215 -8 206 -19 b 140 18 150 -19 140 -7 l 140 65 l 28 65 l 28 6 b 179 -121 28 -79 72 -121 z "},"₄":{"ha":369,"x_min":0,"x_max":0,"o":"m 199 -111 l 297 -111 l 297 -22 l 350 -22 l 350 69 l 297 69 l 297 386 l 199 386 l 21 58 l 21 -22 l 199 -22 z m 192 185 l 201 211 l 199 183 l 199 69 l 128 69 z "},"₅":{"ha":367,"x_min":0,"x_max":0,"o":"m 185 -119 b 335 13 288 -119 335 -69 l 335 118 b 222 233 335 192 296 233 b 144 204 188 233 163 222 l 156 288 l 221 288 b 318 379 301 288 318 306 l 318 386 l 67 386 l 39 132 l 140 106 l 144 118 b 186 144 153 133 167 144 b 224 108 210 144 224 135 l 224 22 b 185 -19 224 -3 213 -19 b 150 17 160 -19 150 -8 l 150 68 l 35 68 l 35 8 b 185 -119 35 -74 79 -119 z "},"₆":{"ha":376,"x_min":0,"x_max":0,"o":"m 190 -119 b 340 15 289 -119 340 -69 l 340 83 b 232 189 340 154 300 189 b 147 147 190 189 164 174 l 147 239 b 188 300 147 285 161 300 b 224 256 214 300 224 285 l 224 221 l 336 221 l 336 258 b 189 394 336 347 289 394 b 36 240 93 394 36 343 l 36 39 b 190 -119 36 -65 78 -119 z m 147 40 l 147 92 b 192 114 156 106 171 114 b 232 79 218 114 232 103 l 232 22 b 190 -22 232 -6 219 -22 b 147 40 158 -22 147 -6 z "},"₇":{"ha":328,"x_min":0,"x_max":0,"o":"m 51 -111 l 176 -111 b 306 296 199 44 243 175 l 306 386 l 22 386 l 22 281 l 190 281 b 51 -111 138 181 79 47 z "},"₈":{"ha":376,"x_min":0,"x_max":0,"o":"m 340 3 l 340 57 b 283 147 340 106 319 135 b 335 231 315 160 335 186 l 335 276 b 189 394 335 351 283 394 b 42 275 94 394 42 350 l 42 232 b 94 147 42 185 61 160 b 35 60 57 133 35 103 l 35 3 b 188 -119 35 -79 81 -119 b 340 3 289 -119 340 -76 z m 189 304 b 228 265 218 304 228 290 l 228 222 b 190 188 228 199 215 188 l 185 188 b 149 222 160 188 149 200 l 149 265 b 189 304 149 290 161 304 z m 188 -22 b 144 17 158 -22 144 -12 l 144 68 b 185 107 144 90 156 107 l 190 107 b 232 69 219 107 232 93 l 232 17 b 188 -22 232 -12 217 -22 z "},"₉":{"ha":374,"x_min":0,"x_max":0,"o":"m 186 -121 b 338 35 285 -121 338 -68 l 338 236 b 185 394 338 340 292 394 b 33 258 83 394 33 344 l 33 197 b 146 89 33 124 76 89 b 228 132 189 89 214 104 l 228 38 b 188 -22 228 -6 215 -22 b 150 21 161 -22 150 -10 l 150 57 l 35 57 l 35 15 b 186 -121 35 -75 82 -122 z m 143 200 l 143 254 b 185 297 143 283 156 297 b 228 236 217 297 228 283 l 228 190 b 182 164 219 172 206 164 b 143 200 157 164 143 175 z "},"⁰":{"ha":379,"x_min":0,"x_max":0,"o":"m 189 601 b 342 754 288 601 342 650 l 342 961 b 189 1115 342 1065 285 1115 b 36 961 93 1115 36 1065 l 36 754 b 189 601 36 651 90 601 z m 189 704 b 151 763 161 704 151 719 l 151 958 b 189 1015 151 1000 161 1015 b 226 958 217 1015 226 1000 l 226 763 b 189 704 226 719 217 704 z "},"¹":{"ha":310,"x_min":0,"x_max":0,"o":"m 28 714 l 28 610 l 282 610 l 282 714 l 211 714 l 211 1107 l 122 1107 b 42 1029 114 1057 89 1032 l 42 944 l 104 944 l 104 714 z "},"²":{"ha":363,"x_min":0,"x_max":0,"o":"m 33 610 l 329 610 l 329 715 l 153 715 b 238 800 161 750 200 772 b 329 947 282 832 329 871 l 329 989 b 183 1115 329 1071 283 1115 b 35 986 88 1115 35 1065 l 35 913 l 149 913 l 149 979 b 182 1019 149 1004 156 1019 b 217 985 208 1019 217 1008 l 217 950 b 147 863 217 910 183 888 b 33 693 96 825 33 786 z "}}}
